<svg xmlns="http://www.w3.org/2000/svg" version="1.1" xmlns:xlink="http://www.w3.org/1999/xlink" xmlns:svgjs="http://svgjs.dev/svgjs" viewBox="0 0 1422 800" opacity="0.4"><g stroke-width="1" stroke="#7a3996" fill="none" stroke-linecap="round"><line x1="0" y1="0" x2="62" y2="62" opacity="0.21"></line><line x1="62" y1="0" x2="124" y2="62" opacity="0.59"></line><line x1="124" y1="0" x2="186" y2="62" opacity="0.57"></line><line x1="248" y1="0" x2="186" y2="62" opacity="0.96"></line><line x1="248" y1="0" x2="310" y2="62" opacity="0.61"></line><line x1="372" y1="0" x2="310" y2="62" opacity="0.64"></line><line x1="372" y1="0" x2="434" y2="62" opacity="0.99"></line><line x1="434" y1="0" x2="496" y2="62" opacity="0.20"></line><line x1="496" y1="0" x2="558" y2="62" opacity="0.48"></line><line x1="558" y1="0" x2="620" y2="62" opacity="0.29"></line><line x1="620" y1="0" x2="682" y2="62" opacity="0.95"></line><line x1="682" y1="0" x2="744" y2="62" opacity="0.99"></line><line x1="744" y1="0" x2="806" y2="62" opacity="0.56"></line><line x1="806" y1="0" x2="868" y2="62" opacity="0.84"></line><line x1="868" y1="0" x2="930" y2="62" opacity="0.25"></line><line x1="930" y1="0" x2="992" y2="62" opacity="0.57"></line><line x1="992" y1="0" x2="1054" y2="62" opacity="0.36"></line><line x1="1054" y1="0" x2="1116" y2="62" opacity="0.96"></line><line x1="1116" y1="0" x2="1178" y2="62" opacity="0.09"></line><line x1="1178" y1="0" x2="1240" y2="62" opacity="0.80"></line><line x1="1302" y1="0" x2="1240" y2="62" opacity="0.90"></line><line x1="1302" y1="0" x2="1364" y2="62" opacity="0.47"></line><line x1="1426" y1="0" x2="1364" y2="62" opacity="0.45"></line><line x1="0" y1="62" x2="62" y2="124" opacity="0.38"></line><line x1="62" y1="62" x2="124" y2="124" opacity="0.38"></line><line x1="124" y1="62" x2="186" y2="124" opacity="1.00"></line><line x1="186" y1="62" x2="248" y2="124" opacity="0.28"></line><line x1="248" y1="62" x2="310" y2="124" opacity="0.38"></line><line x1="310" y1="62" x2="372" y2="124" opacity="0.37"></line><line x1="372" y1="62" x2="434" y2="124" opacity="0.52"></line><line x1="434" y1="62" x2="496" y2="124" opacity="0.17"></line><line x1="496" y1="62" x2="558" y2="124" opacity="0.75"></line><line x1="558" y1="62" x2="620" y2="124" opacity="0.68"></line><line x1="682" y1="62" x2="620" y2="124" opacity="0.08"></line><line x1="682" y1="62" x2="744" y2="124" opacity="0.29"></line><line x1="744" y1="62" x2="806" y2="124" opacity="0.86"></line><line x1="806" y1="62" x2="868" y2="124" opacity="0.87"></line><line x1="930" y1="62" x2="868" y2="124" opacity="0.79"></line><line x1="930" y1="62" x2="992" y2="124" opacity="0.60"></line><line x1="992" y1="62" x2="1054" y2="124" opacity="0.75"></line><line x1="1054" y1="62" x2="1116" y2="124" opacity="0.12"></line><line x1="1116" y1="62" x2="1178" y2="124" opacity="0.22"></line><line x1="1178" y1="62" x2="1240" y2="124" opacity="0.99"></line><line x1="1240" y1="62" x2="1302" y2="124" opacity="0.81"></line><line x1="1302" y1="62" x2="1364" y2="124" opacity="0.98"></line><line x1="1364" y1="62" x2="1426" y2="124" opacity="0.25"></line><line x1="0" y1="124" x2="62" y2="186" opacity="0.17"></line><line x1="62" y1="124" x2="124" y2="186" opacity="0.15"></line><line x1="186" y1="124" x2="124" y2="186" opacity="0.26"></line><line x1="186" y1="124" x2="248" y2="186" opacity="0.52"></line><line x1="248" y1="124" x2="310" y2="186" opacity="0.46"></line><line x1="310" y1="124" x2="372" y2="186" opacity="0.53"></line><line x1="372" y1="124" x2="434" y2="186" opacity="0.21"></line><line x1="434" y1="124" x2="496" y2="186" opacity="0.21"></line><line x1="496" y1="124" x2="558" y2="186" opacity="0.86"></line><line x1="558" y1="124" x2="620" y2="186" opacity="0.40"></line><line x1="682" y1="124" x2="620" y2="186" opacity="0.99"></line><line x1="682" y1="124" x2="744" y2="186" opacity="0.59"></line><line x1="744" y1="124" x2="806" y2="186" opacity="0.22"></line><line x1="806" y1="124" x2="868" y2="186" opacity="0.20"></line><line x1="868" y1="124" x2="930" y2="186" opacity="0.64"></line><line x1="930" y1="124" x2="992" y2="186" opacity="0.66"></line><line x1="992" y1="124" x2="1054" y2="186" opacity="0.42"></line><line x1="1054" y1="124" x2="1116" y2="186" opacity="0.74"></line><line x1="1116" y1="124" x2="1178" y2="186" opacity="0.09"></line><line x1="1178" y1="124" x2="1240" y2="186" opacity="0.15"></line><line x1="1240" y1="124" x2="1302" y2="186" opacity="0.95"></line><line x1="1302" y1="124" x2="1364" y2="186" opacity="0.36"></line><line x1="1426" y1="124" x2="1364" y2="186" opacity="0.82"></line><line x1="0" y1="186" x2="62" y2="248" opacity="0.94"></line><line x1="124" y1="186" x2="62" y2="248" opacity="0.64"></line><line x1="124" y1="186" x2="186" y2="248" opacity="0.82"></line><line x1="248" y1="186" x2="186" y2="248" opacity="0.79"></line><line x1="248" y1="186" x2="310" y2="248" opacity="0.29"></line><line x1="310" y1="186" x2="372" y2="248" opacity="0.08"></line><line x1="434" y1="186" x2="372" y2="248" opacity="0.13"></line><line x1="434" y1="186" x2="496" y2="248" opacity="0.88"></line><line x1="496" y1="186" x2="558" y2="248" opacity="0.85"></line><line x1="558" y1="186" x2="620" y2="248" opacity="0.97"></line><line x1="620" y1="186" x2="682" y2="248" opacity="0.15"></line><line x1="682" y1="186" x2="744" y2="248" opacity="0.15"></line><line x1="744" y1="186" x2="806" y2="248" opacity="0.78"></line><line x1="806" y1="186" x2="868" y2="248" opacity="0.36"></line><line x1="868" y1="186" x2="930" y2="248" opacity="0.71"></line><line x1="930" y1="186" x2="992" y2="248" opacity="0.97"></line><line x1="992" y1="186" x2="1054" y2="248" opacity="0.23"></line><line x1="1116" y1="186" x2="1054" y2="248" opacity="0.78"></line><line x1="1116" y1="186" x2="1178" y2="248" opacity="0.96"></line><line x1="1178" y1="186" x2="1240" y2="248" opacity="0.50"></line><line x1="1240" y1="186" x2="1302" y2="248" opacity="0.46"></line><line x1="1302" y1="186" x2="1364" y2="248" opacity="0.34"></line><line x1="1364" y1="186" x2="1426" y2="248" opacity="0.50"></line><line x1="0" y1="248" x2="62" y2="310" opacity="0.62"></line><line x1="62" y1="248" x2="124" y2="310" opacity="0.53"></line><line x1="124" y1="248" x2="186" y2="310" opacity="0.71"></line><line x1="186" y1="248" x2="248" y2="310" opacity="0.56"></line><line x1="248" y1="248" x2="310" y2="310" opacity="0.45"></line><line x1="310" y1="248" x2="372" y2="310" opacity="0.80"></line><line x1="372" y1="248" x2="434" y2="310" opacity="0.87"></line><line x1="434" y1="248" x2="496" y2="310" opacity="0.48"></line><line x1="496" y1="248" x2="558" y2="310" opacity="0.81"></line><line x1="620" y1="248" x2="558" y2="310" opacity="0.32"></line><line x1="620" y1="248" x2="682" y2="310" opacity="0.39"></line><line x1="744" y1="248" x2="682" y2="310" opacity="0.33"></line><line x1="744" y1="248" x2="806" y2="310" opacity="0.52"></line><line x1="806" y1="248" x2="868" y2="310" opacity="0.29"></line><line x1="868" y1="248" x2="930" y2="310" opacity="0.99"></line><line x1="930" y1="248" x2="992" y2="310" opacity="0.65"></line><line x1="992" y1="248" x2="1054" y2="310" opacity="0.54"></line><line x1="1054" y1="248" x2="1116" y2="310" opacity="1.00"></line><line x1="1116" y1="248" x2="1178" y2="310" opacity="0.85"></line><line x1="1178" y1="248" x2="1240" y2="310" opacity="0.55"></line><line x1="1240" y1="248" x2="1302" y2="310" opacity="0.94"></line><line x1="1302" y1="248" x2="1364" y2="310" opacity="0.37"></line><line x1="1364" y1="248" x2="1426" y2="310" opacity="0.47"></line><line x1="0" y1="310" x2="62" y2="372" opacity="0.26"></line><line x1="62" y1="310" x2="124" y2="372" opacity="0.49"></line><line x1="186" y1="310" x2="124" y2="372" opacity="0.81"></line><line x1="186" y1="310" x2="248" y2="372" opacity="0.67"></line><line x1="248" y1="310" x2="310" y2="372" opacity="0.76"></line><line x1="310" y1="310" x2="372" y2="372" opacity="0.76"></line><line x1="372" y1="310" x2="434" y2="372" opacity="0.09"></line><line x1="496" y1="310" x2="434" y2="372" opacity="0.85"></line><line x1="496" y1="310" x2="558" y2="372" opacity="0.65"></line><line x1="558" y1="310" x2="620" y2="372" opacity="0.74"></line><line x1="620" y1="310" x2="682" y2="372" opacity="0.64"></line><line x1="682" y1="310" x2="744" y2="372" opacity="0.93"></line><line x1="744" y1="310" x2="806" y2="372" opacity="0.30"></line><line x1="806" y1="310" x2="868" y2="372" opacity="0.90"></line><line x1="868" y1="310" x2="930" y2="372" opacity="0.48"></line><line x1="930" y1="310" x2="992" y2="372" opacity="0.56"></line><line x1="992" y1="310" x2="1054" y2="372" opacity="0.33"></line><line x1="1054" y1="310" x2="1116" y2="372" opacity="0.36"></line><line x1="1116" y1="310" x2="1178" y2="372" opacity="0.46"></line><line x1="1178" y1="310" x2="1240" y2="372" opacity="0.96"></line><line x1="1240" y1="310" x2="1302" y2="372" opacity="0.31"></line><line x1="1302" y1="310" x2="1364" y2="372" opacity="0.71"></line><line x1="1364" y1="310" x2="1426" y2="372" opacity="0.41"></line><line x1="0" y1="372" x2="62" y2="434" opacity="0.81"></line><line x1="62" y1="372" x2="124" y2="434" opacity="0.64"></line><line x1="124" y1="372" x2="186" y2="434" opacity="0.11"></line><line x1="186" y1="372" x2="248" y2="434" opacity="0.22"></line><line x1="248" y1="372" x2="310" y2="434" opacity="0.13"></line><line x1="310" y1="372" x2="372" y2="434" opacity="0.44"></line><line x1="372" y1="372" x2="434" y2="434" opacity="0.49"></line><line x1="434" y1="372" x2="496" y2="434" opacity="0.24"></line><line x1="496" y1="372" x2="558" y2="434" opacity="0.32"></line><line x1="558" y1="372" x2="620" y2="434" opacity="0.52"></line><line x1="620" y1="372" x2="682" y2="434" opacity="0.60"></line><line x1="682" y1="372" x2="744" y2="434" opacity="0.91"></line><line x1="744" y1="372" x2="806" y2="434" opacity="0.22"></line><line x1="806" y1="372" x2="868" y2="434" opacity="0.87"></line><line x1="868" y1="372" x2="930" y2="434" opacity="0.35"></line><line x1="930" y1="372" x2="992" y2="434" opacity="0.48"></line><line x1="1054" y1="372" x2="992" y2="434" opacity="0.19"></line><line x1="1054" y1="372" x2="1116" y2="434" opacity="0.10"></line><line x1="1116" y1="372" x2="1178" y2="434" opacity="0.46"></line><line x1="1178" y1="372" x2="1240" y2="434" opacity="0.92"></line><line x1="1240" y1="372" x2="1302" y2="434" opacity="0.32"></line><line x1="1302" y1="372" x2="1364" y2="434" opacity="0.44"></line><line x1="1426" y1="372" x2="1364" y2="434" opacity="0.84"></line><line x1="62" y1="434" x2="0" y2="496" opacity="0.36"></line><line x1="124" y1="434" x2="62" y2="496" opacity="0.59"></line><line x1="124" y1="434" x2="186" y2="496" opacity="0.16"></line><line x1="248" y1="434" x2="186" y2="496" opacity="0.41"></line><line x1="310" y1="434" x2="248" y2="496" opacity="0.13"></line><line x1="372" y1="434" x2="310" y2="496" opacity="0.55"></line><line x1="434" y1="434" x2="372" y2="496" opacity="0.10"></line><line x1="434" y1="434" x2="496" y2="496" opacity="0.73"></line><line x1="496" y1="434" x2="558" y2="496" opacity="0.38"></line><line x1="558" y1="434" x2="620" y2="496" opacity="0.77"></line><line x1="620" y1="434" x2="682" y2="496" opacity="0.80"></line><line x1="744" y1="434" x2="682" y2="496" opacity="0.71"></line><line x1="744" y1="434" x2="806" y2="496" opacity="0.92"></line><line x1="806" y1="434" x2="868" y2="496" opacity="0.52"></line><line x1="868" y1="434" x2="930" y2="496" opacity="0.71"></line><line x1="930" y1="434" x2="992" y2="496" opacity="0.09"></line><line x1="992" y1="434" x2="1054" y2="496" opacity="0.80"></line><line x1="1054" y1="434" x2="1116" y2="496" opacity="0.90"></line><line x1="1178" y1="434" x2="1116" y2="496" opacity="0.38"></line><line x1="1240" y1="434" x2="1178" y2="496" opacity="0.57"></line><line x1="1240" y1="434" x2="1302" y2="496" opacity="0.13"></line><line x1="1302" y1="434" x2="1364" y2="496" opacity="0.99"></line><line x1="1364" y1="434" x2="1426" y2="496" opacity="0.32"></line><line x1="62" y1="496" x2="0" y2="558" opacity="0.90"></line><line x1="62" y1="496" x2="124" y2="558" opacity="0.56"></line><line x1="124" y1="496" x2="186" y2="558" opacity="0.76"></line><line x1="186" y1="496" x2="248" y2="558" opacity="0.90"></line><line x1="248" y1="496" x2="310" y2="558" opacity="0.40"></line><line x1="310" y1="496" x2="372" y2="558" opacity="0.14"></line><line x1="372" y1="496" x2="434" y2="558" opacity="0.55"></line><line x1="434" y1="496" x2="496" y2="558" opacity="0.87"></line><line x1="558" y1="496" x2="496" y2="558" opacity="0.29"></line><line x1="558" y1="496" x2="620" y2="558" opacity="0.91"></line><line x1="620" y1="496" x2="682" y2="558" opacity="0.95"></line><line x1="682" y1="496" x2="744" y2="558" opacity="0.82"></line><line x1="744" y1="496" x2="806" y2="558" opacity="0.55"></line><line x1="806" y1="496" x2="868" y2="558" opacity="0.93"></line><line x1="868" y1="496" x2="930" y2="558" opacity="0.35"></line><line x1="930" y1="496" x2="992" y2="558" opacity="0.79"></line><line x1="992" y1="496" x2="1054" y2="558" opacity="0.35"></line><line x1="1054" y1="496" x2="1116" y2="558" opacity="0.87"></line><line x1="1116" y1="496" x2="1178" y2="558" opacity="0.18"></line><line x1="1178" y1="496" x2="1240" y2="558" opacity="0.30"></line><line x1="1240" y1="496" x2="1302" y2="558" opacity="0.90"></line><line x1="1302" y1="496" x2="1364" y2="558" opacity="0.54"></line><line x1="1364" y1="496" x2="1426" y2="558" opacity="0.44"></line><line x1="0" y1="558" x2="62" y2="620" opacity="0.97"></line><line x1="62" y1="558" x2="124" y2="620" opacity="0.75"></line><line x1="124" y1="558" x2="186" y2="620" opacity="0.24"></line><line x1="186" y1="558" x2="248" y2="620" opacity="0.88"></line><line x1="248" y1="558" x2="310" y2="620" opacity="0.87"></line><line x1="372" y1="558" x2="310" y2="620" opacity="0.38"></line><line x1="372" y1="558" x2="434" y2="620" opacity="0.77"></line><line x1="434" y1="558" x2="496" y2="620" opacity="0.54"></line><line x1="496" y1="558" x2="558" y2="620" opacity="0.94"></line><line x1="558" y1="558" x2="620" y2="620" opacity="0.30"></line><line x1="620" y1="558" x2="682" y2="620" opacity="0.89"></line><line x1="682" y1="558" x2="744" y2="620" opacity="0.67"></line><line x1="744" y1="558" x2="806" y2="620" opacity="0.86"></line><line x1="806" y1="558" x2="868" y2="620" opacity="0.49"></line><line x1="868" y1="558" x2="930" y2="620" opacity="0.43"></line><line x1="930" y1="558" x2="992" y2="620" opacity="0.98"></line><line x1="992" y1="558" x2="1054" y2="620" opacity="0.82"></line><line x1="1054" y1="558" x2="1116" y2="620" opacity="0.19"></line><line x1="1178" y1="558" x2="1116" y2="620" opacity="0.83"></line><line x1="1178" y1="558" x2="1240" y2="620" opacity="0.71"></line><line x1="1240" y1="558" x2="1302" y2="620" opacity="0.13"></line><line x1="1302" y1="558" x2="1364" y2="620" opacity="0.99"></line><line x1="1364" y1="558" x2="1426" y2="620" opacity="0.59"></line><line x1="62" y1="620" x2="0" y2="682" opacity="0.72"></line><line x1="62" y1="620" x2="124" y2="682" opacity="0.36"></line><line x1="124" y1="620" x2="186" y2="682" opacity="0.79"></line><line x1="186" y1="620" x2="248" y2="682" opacity="0.75"></line><line x1="310" y1="620" x2="248" y2="682" opacity="0.75"></line><line x1="310" y1="620" x2="372" y2="682" opacity="0.35"></line><line x1="372" y1="620" x2="434" y2="682" opacity="0.48"></line><line x1="434" y1="620" x2="496" y2="682" opacity="0.73"></line><line x1="496" y1="620" x2="558" y2="682" opacity="0.73"></line><line x1="558" y1="620" x2="620" y2="682" opacity="0.57"></line><line x1="620" y1="620" x2="682" y2="682" opacity="0.11"></line><line x1="744" y1="620" x2="682" y2="682" opacity="0.73"></line><line x1="744" y1="620" x2="806" y2="682" opacity="0.58"></line><line x1="868" y1="620" x2="806" y2="682" opacity="0.56"></line><line x1="868" y1="620" x2="930" y2="682" opacity="0.60"></line><line x1="930" y1="620" x2="992" y2="682" opacity="0.62"></line><line x1="992" y1="620" x2="1054" y2="682" opacity="0.74"></line><line x1="1116" y1="620" x2="1054" y2="682" opacity="0.13"></line><line x1="1178" y1="620" x2="1116" y2="682" opacity="0.98"></line><line x1="1178" y1="620" x2="1240" y2="682" opacity="0.73"></line><line x1="1240" y1="620" x2="1302" y2="682" opacity="0.85"></line><line x1="1302" y1="620" x2="1364" y2="682" opacity="0.64"></line><line x1="1426" y1="620" x2="1364" y2="682" opacity="0.91"></line><line x1="62" y1="682" x2="0" y2="744" opacity="0.77"></line><line x1="62" y1="682" x2="124" y2="744" opacity="0.89"></line><line x1="124" y1="682" x2="186" y2="744" opacity="0.47"></line><line x1="186" y1="682" x2="248" y2="744" opacity="0.81"></line><line x1="248" y1="682" x2="310" y2="744" opacity="0.14"></line><line x1="372" y1="682" x2="310" y2="744" opacity="0.38"></line><line x1="372" y1="682" x2="434" y2="744" opacity="0.86"></line><line x1="434" y1="682" x2="496" y2="744" opacity="0.78"></line><line x1="558" y1="682" x2="496" y2="744" opacity="0.33"></line><line x1="558" y1="682" x2="620" y2="744" opacity="0.92"></line><line x1="620" y1="682" x2="682" y2="744" opacity="0.50"></line><line x1="682" y1="682" x2="744" y2="744" opacity="0.40"></line><line x1="806" y1="682" x2="744" y2="744" opacity="0.58"></line><line x1="868" y1="682" x2="806" y2="744" opacity="0.08"></line><line x1="868" y1="682" x2="930" y2="744" opacity="0.88"></line><line x1="930" y1="682" x2="992" y2="744" opacity="0.27"></line><line x1="992" y1="682" x2="1054" y2="744" opacity="0.12"></line><line x1="1054" y1="682" x2="1116" y2="744" opacity="0.54"></line><line x1="1116" y1="682" x2="1178" y2="744" opacity="0.51"></line><line x1="1178" y1="682" x2="1240" y2="744" opacity="0.35"></line><line x1="1240" y1="682" x2="1302" y2="744" opacity="1.00"></line><line x1="1364" y1="682" x2="1302" y2="744" opacity="0.31"></line><line x1="1364" y1="682" x2="1426" y2="744" opacity="0.79"></line><line x1="0" y1="744" x2="62" y2="806" opacity="0.82"></line><line x1="62" y1="744" x2="124" y2="806" opacity="0.46"></line><line x1="124" y1="744" x2="186" y2="806" opacity="0.54"></line><line x1="186" y1="744" x2="248" y2="806" opacity="0.55"></line><line x1="248" y1="744" x2="310" y2="806" opacity="0.62"></line><line x1="310" y1="744" x2="372" y2="806" opacity="0.16"></line><line x1="372" y1="744" x2="434" y2="806" opacity="0.55"></line><line x1="434" y1="744" x2="496" y2="806" opacity="0.69"></line><line x1="496" y1="744" x2="558" y2="806" opacity="0.20"></line><line x1="620" y1="744" x2="558" y2="806" opacity="0.85"></line><line x1="620" y1="744" x2="682" y2="806" opacity="0.43"></line><line x1="744" y1="744" x2="682" y2="806" opacity="0.10"></line><line x1="744" y1="744" x2="806" y2="806" opacity="0.70"></line><line x1="868" y1="744" x2="806" y2="806" opacity="0.92"></line><line x1="868" y1="744" x2="930" y2="806" opacity="0.91"></line><line x1="930" y1="744" x2="992" y2="806" opacity="0.67"></line><line x1="992" y1="744" x2="1054" y2="806" opacity="0.48"></line><line x1="1054" y1="744" x2="1116" y2="806" opacity="0.41"></line><line x1="1116" y1="744" x2="1178" y2="806" opacity="0.85"></line><line x1="1240" y1="744" x2="1178" y2="806" opacity="0.63"></line><line x1="1240" y1="744" x2="1302" y2="806" opacity="0.43"></line><line x1="1364" y1="744" x2="1302" y2="806" opacity="0.34"></line><line x1="1364" y1="744" x2="1426" y2="806" opacity="0.57"></line></g></svg>