<?xml version="1.0" encoding="utf-8"?>
<!-- Generator: Adobe Illustrator 23.0.1, SVG Export Plug-In . SVG Version: 6.00 Build 0)  -->
<svg version="1.1" id="Layer_1" xmlns="http://www.w3.org/2000/svg" xmlns:xlink="http://www.w3.org/1999/xlink" x="0px" y="0px"
	 viewBox="0 0 500 380.3" style="enable-background:new 0 0 500 380.3;" xml:space="preserve">
<style type="text/css">
	.st0{fill:none;}
	.st1{fill:#E0E0E0;}
	.st2{fill-rule:evenodd;clip-rule:evenodd;fill:#E0E0E0;}
	.st3{fill-rule:evenodd;clip-rule:evenodd;fill:#EBEBEB;}
	.st4{fill-rule:evenodd;clip-rule:evenodd;fill:#F5F5F5;}
	.st5{fill:#EBEBEB;}
	.st6{fill:#F5F5F5;}
	.st7{fill:#455A64;}
	.st8{fill:#263238;}
	.st9{fill:#2BAB8E;}
	.st10{fill:#FFFFFF;}
	.st11{opacity:0.3;enable-background:new    ;}
	.st12{fill:#E8505B;}
	.st13{fill:#EBFFF4;}
	.st14{fill:#85D6C1;}
	.st15{fill-rule:evenodd;clip-rule:evenodd;fill:#2BAB8E;}
	.st16{fill-rule:evenodd;clip-rule:evenodd;fill:#455A64;}
</style>
<g id="Background_Complete">
	<path class="st0" d="M373.2,124.4c0.5-1.9,1.2-3.7,2.1-5.4l-2.9-4.5l6.2-6.4l4.6,2.8c1.6-1,3.4-1.8,5.3-2.3l1.1-5.2l8.8-0.1
		l1.3,5.2c1.9,0.5,3.7,1.2,5.4,2.1l4.5-2.9l6.4,6.2l-2.8,4.6c1,1.6,1.8,3.4,2.3,5.3l5.2,1.1l0.1,8.8l-5.2,1.3
		c-0.5,1.9-1.2,3.7-2.1,5.4l2.9,4.5l-6.2,6.4l-4.6-2.8c-1.6,1-3.4,1.8-5.3,2.3l-1.1,5.2l-8.8,0.1l-1.3-5.2c-1.9-0.5-3.7-1.2-5.4-2.1
		l-4.5,2.9l-6.4-6.2l2.8-4.6c-1-1.6-1.8-3.4-2.3-5.3l-5.2-1.1l-0.1-8.8L373.2,124.4L373.2,124.4z M384.9,129.4
		c0.1,5.2,4.4,9.4,9.6,9.3c5.2-0.1,9.4-4.4,9.3-9.6c-0.1-5.2-4.4-9.4-9.6-9.3C389,119.8,384.8,124.1,384.9,129.4z"/>
	<path class="st1" d="M384.9,129.4c0,0-0.1-0.8,0.2-2.3c0.3-1.5,1.2-3.7,3.4-5.4c1.1-0.9,2.4-1.6,4-1.9s3.4-0.3,5.1,0.3
		c0.9,0.3,1.7,0.7,2.5,1.3c0.8,0.5,1.5,1.2,2.1,2c1.2,1.6,1.9,3.6,2,5.7c0,2.1-0.6,4.2-1.8,5.8c-0.6,0.8-1.3,1.5-2,2.1
		c-0.8,0.6-1.6,1-2.4,1.4c-1.7,0.7-3.5,0.7-5.1,0.5c-1.6-0.3-3-1-4.1-1.8c-2.2-1.7-3.2-3.8-3.5-5.3
		C384.8,130.2,384.9,129.4,384.9,129.4c0.1,0,0,0.8,0.4,2.3c0.4,1.4,1.4,3.5,3.5,5c1.1,0.8,2.4,1.4,3.9,1.6c1.5,0.2,3.2,0.1,4.9-0.5
		c0.8-0.3,1.6-0.7,2.3-1.3c0.7-0.5,1.4-1.2,1.9-2c1.1-1.5,1.7-3.5,1.7-5.5c-0.1-2-0.7-3.9-1.9-5.4c-0.6-0.8-1.2-1.4-2-1.9
		c-0.7-0.5-1.5-1-2.4-1.2c-1.6-0.6-3.4-0.6-4.9-0.3c-1.5,0.3-2.8,1-3.9,1.8c-2.1,1.6-3,3.7-3.4,5.2
		C384.9,128.5,385,129.4,384.9,129.4L384.9,129.4z"/>
	<path class="st1" d="M373.2,124.4c0,0-0.1,0-0.3,0.1c-0.2,0.1-0.6,0.1-1,0.3c-0.9,0.2-2.2,0.6-3.9,1l0.1-0.1c0,2.3,0.1,5.2,0.2,8.8
		l-0.1-0.1c1.6,0.3,3.4,0.7,5.2,1.1h0.1v0.1c0.5,1.7,1.2,3.5,2.3,5.2l0.1,0.1l-0.1,0.1c-0.9,1.4-1.8,3-2.8,4.6v-0.2
		c2,1.9,4.1,4,6.4,6.1h-0.3c1.4-0.9,2.9-1.9,4.5-2.9l0.1-0.1l0.1,0.1c1.6,0.9,3.4,1.6,5.3,2.1h0.1v0.1c0.4,1.6,0.8,3.4,1.3,5.2
		l-0.2-0.2c2.8,0,5.8-0.1,8.8-0.2l-0.2,0.2c0.3-1.6,0.7-3.4,1.1-5.2v-0.1h0.1c1.7-0.5,3.5-1.2,5.2-2.3l0.1-0.1l0.1,0.1
		c1.4,0.9,3,1.8,4.6,2.8h-0.3c1.9-2,4-4.2,6.2-6.4v0.3c-0.9-1.4-1.9-2.9-2.9-4.5l-0.1-0.1l0.1-0.1c0.9-1.6,1.6-3.4,2.1-5.3v-0.2h0.2
		c1.7-0.4,3.5-0.8,5.2-1.3l-0.2,0.3c0-3-0.1-5.9-0.1-8.8l0.2,0.2c-1.8-0.4-3.5-0.7-5.2-1.1h-0.2v-0.1c-0.5-1.9-1.3-3.6-2.3-5.2
		l-0.1-0.1l0.1-0.1c0.9-1.5,1.9-3.1,2.8-4.6v0.3c-2.2-2.1-4.3-4.2-6.4-6.2h0.3c-1.5,1-3,2-4.5,2.9l-0.1,0.1l-0.1-0.1
		c-1.7-1-3.5-1.7-5.3-2.1h-0.1v-0.1c-0.4-1.8-0.8-3.5-1.3-5.2l0.2,0.2c-3.1,0-6.1,0.1-8.8,0.1l0.2-0.2c-0.4,1.8-0.8,3.6-1.1,5.2v0.1
		h-0.1c-2,0.6-3.7,1.3-5.3,2.3l-0.1,0.1l-0.1-0.1c-1.7-1-3.2-1.9-4.6-2.8h0.2c-2.4,2.5-4.4,4.5-6.2,6.3v-0.1
		c1.2,1.8,2.1,3.3,2.9,4.5c-1,1.7-1.5,3.1-1.8,4c-0.1,0.4-0.2,0.8-0.3,1C373.3,124.3,373.2,124.4,373.2,124.4c0,0,0-0.1,0.1-0.4
		c0.1-0.2,0.1-0.6,0.3-1c0.3-0.9,0.8-2.3,1.7-4v0.1l-3-4.5l-0.1-0.1l0.1-0.1c1.7-1.8,3.8-3.9,6.1-6.4l0.1-0.1l0.1,0.1
		c1.4,0.9,2.9,1.8,4.6,2.8H383c1.6-0.9,3.3-1.8,5.3-2.3l-0.1,0.1c0.3-1.7,0.7-3.4,1.1-5.2v-0.2h0.2c2.8-0.1,5.7-0.1,8.8-0.2h0.2v0.2
		c0.4,1.7,0.8,3.4,1.3,5.2l-0.2-0.2c1.9,0.5,3.7,1.2,5.4,2.1h-0.2c1.5-1,3-1.9,4.5-2.9l0.2-0.1l0.1,0.1c2.1,2,4.2,4,6.4,6.1l0.1,0.1
		l-0.1,0.2c-0.9,1.5-1.8,3-2.8,4.6v-0.3c1,1.6,1.8,3.5,2.3,5.4l-0.2-0.2c1.7,0.4,3.5,0.7,5.2,1.1h0.2v0.2c0,2.9,0.1,5.9,0.1,8.8v0.2
		h-0.2c-1.7,0.4-3.5,0.8-5.2,1.3l0.2-0.2c-0.5,1.9-1.2,3.8-2.1,5.4v-0.3c1,1.5,2,3.1,2.9,4.5l0.1,0.2l-0.1,0.1
		c-2.1,2.2-4.2,4.3-6.2,6.4l-0.1,0.1l-0.2-0.1c-1.6-1-3.1-1.9-4.6-2.8h0.3c-1.7,1-3.6,1.8-5.4,2.3l0.2-0.2c-0.4,1.8-0.8,3.6-1.1,5.2
		v0.2h-0.2c-3.1,0-6.1,0.1-8.8,0.1h-0.2v-0.2c-0.4-1.8-0.9-3.6-1.3-5.2l0.2,0.2c-2-0.5-3.8-1.3-5.4-2.2h0.2c-1.6,1-3.1,2-4.5,2.9
		l-0.1,0.1l-0.1-0.1c-2.2-2.2-4.3-4.2-6.3-6.2l-0.1-0.1l0.1-0.1c1-1.6,1.9-3.1,2.8-4.6v0.2c-1.1-1.8-1.8-3.6-2.3-5.3l0.1,0.1
		c-1.9-0.4-3.6-0.8-5.2-1.1h-0.1v-0.1c0-3.6-0.1-6.6-0.1-8.9v-0.1h0.1c1.7-0.4,3-0.7,3.9-0.9c0.4-0.1,0.8-0.2,1-0.2
		C373.1,124.4,373.2,124.4,373.2,124.4L373.2,124.4z"/>
	<path class="st2" d="M114.4,100c0.5-2.1,1.3-4.1,2.4-6l-3.3-5l6.9-7.1l5.1,3.1c1.8-1.1,3.8-2,5.9-2.6l1.2-5.9l9.9-0.2l1.4,5.8
		c2.1,0.5,4.1,1.3,6,2.4l5-3.3l7.1,6.9l-3.1,5.1c1.1,1.8,2,3.8,2.6,5.9l5.9,1.2l0.2,9.9l-5.8,1.4c-0.5,2.1-1.3,4.1-2.4,6l3.3,5
		l-6.9,7.1l-5.1-3.1c-1.8,1.1-3.8,2-5.9,2.6l-1.2,5.9l-9.9,0.2l-1.4-5.8c-2.1-0.5-4.1-1.3-6-2.4l-5,3.3l-7.1-6.9l3.1-5.1
		c-1.1-1.8-2-3.8-2.6-5.9l-5.9-1.2l-0.2-9.9C108.6,101.4,114.4,100,114.4,100z M127.5,105.6c0.1,5.9,4.9,10.5,10.8,10.4
		c5.9-0.1,10.5-4.9,10.4-10.8s-4.9-10.5-10.8-10.4C132,94.9,127.4,99.7,127.5,105.6z M342.5,74.4c0.2-0.6,0.4-1.2,0.7-1.7l-0.9-1.4
		l2-2.1l1.5,0.9c0.5-0.3,1.1-0.6,1.7-0.7l0.4-1.7h2.9l0.4,1.7c0.6,0.2,1.2,0.4,1.7,0.7l1.4-0.9l2.1,2l-0.9,1.5
		c0.3,0.5,0.6,1.1,0.7,1.7l1.7,0.4v2.9l-1.7,0.4c-0.2,0.6-0.4,1.2-0.7,1.7l0.9,1.4l-2,2.1l-1.5-0.9c-0.5,0.3-1.1,0.6-1.7,0.7
		l-0.4,1.7h-2.9l-0.4-1.7c-0.6-0.2-1.2-0.4-1.7-0.7l-1.4,0.9l-2.1-2l0.9-1.5c-0.3-0.5-0.6-1.1-0.7-1.7l-1.7-0.4v-2.9L342.5,74.4z
		 M346.2,76c0,1.7,1.4,3,3.1,3s3-1.4,3-3.1s-1.4-3-3.1-3C347.6,72.9,346.2,74.3,346.2,76z"/>
	<path class="st3" d="M48.6,104c0.2-0.8,0.5-1.7,0.9-2.4l-1.3-2l2.8-2.8l2,1.2c0.7-0.4,1.5-0.8,2.4-1l0.5-2.3l4-0.1l0.6,2.3
		c0.8,0.2,1.7,0.5,2.4,0.9l2-1.3l2.8,2.8l-1.2,2c0.4,0.7,0.8,1.5,1,2.4l2.3,0.5l0.1,4l-2.3,0.6c-0.2,0.8-0.5,1.7-0.9,2.4l1.3,2
		l-2.8,2.8l-2-1.2c-0.7,0.4-1.5,0.8-2.4,1l-0.5,2.3l-4,0.1l-0.6-2.3c-0.8-0.2-1.7-0.5-2.4-0.9l-2,1.3l-2.8-2.8l1.2-2
		c-0.4-0.7-0.8-1.5-1-2.4l-2.3-0.5l-0.1-4C46.3,104.6,48.6,104,48.6,104z M53.8,106.2c0,2.3,2,4.2,4.3,4.2s4.2-2,4.2-4.3
		s-2-4.2-4.3-4.2C55.6,101.9,53.8,103.9,53.8,106.2z M408.3,40.3c0.5-1.9,1.2-3.8,2.2-5.5l-3-4.6l6.3-6.5l4.7,2.8
		c1.7-1,3.5-1.8,5.4-2.3l1.1-5.4l9.1-0.1l1.3,5.3c1.9,0.5,3.8,1.2,5.5,2.2l4.6-3l6.5,6.3l-2.8,4.7c1,1.7,1.8,3.5,2.3,5.4l5.4,1.1
		l0.1,9.1l-5.3,1.3c-0.5,1.9-1.2,3.8-2.2,5.5l3,4.6l-6.3,6.5l-4.7-2.8c-1.7,1-3.5,1.8-5.4,2.3l-1.1,5.4l-9.1,0.1l-1.3-5.3
		c-1.9-0.5-3.8-1.2-5.5-2.2l-4.6,3l-6.5-6.3l2.8-4.7c-1-1.7-1.8-3.5-2.3-5.4l-5.4-1.1l-0.1-9.1L408.3,40.3z M420.3,45.4
		c0.1,5.4,4.5,9.6,9.9,9.6c5.4-0.1,9.6-4.5,9.6-9.9c-0.1-5.4-4.5-9.6-9.9-9.6C424.5,35.6,420.2,40,420.3,45.4z"/>
	<path class="st4" d="M62.9,191.2c0.4-1.8,1.1-3.4,2-5l-2.7-4.1l5.7-5.9l4.2,2.6c1.5-0.9,3.2-1.6,4.9-2.1l1-4.8l8.2-0.1l1.2,4.8
		c1.8,0.4,3.4,1.1,5,2l4.1-2.7l5.9,5.7l-2.6,4.2c0.9,1.5,1.6,3.2,2.1,4.9l4.8,1l0.1,8.2l-4.8,1.2c-0.4,1.8-1.1,3.4-2,5l2.7,4.1
		l-5.7,5.9l-4.2-2.6c-1.5,0.9-3.2,1.6-4.9,2.1l-1,4.8l-8.2,0.1l-1.2-4.8c-1.8-0.4-3.4-1.1-5-2l-4.1,2.7l-5.9-5.7l2.6-4.2
		c-0.9-1.5-1.6-3.2-2.1-4.9l-4.8-1l-0.1-8.2L62.9,191.2z M73.7,195.8c0.1,4.9,4.1,8.7,8.9,8.6c4.9-0.1,8.7-4.1,8.6-8.9
		c-0.1-4.9-4.1-8.7-8.9-8.6C77.5,187,73.7,191,73.7,195.8z M234.9,21.6c0.2-0.8,0.5-1.5,0.9-2.2l-1.2-1.8l2.5-2.6l1.8,1.1
		c0.7-0.4,1.4-0.7,2.1-0.9l0.4-2.1L245,13l0.5,2.1c0.8,0.2,1.5,0.5,2.2,0.9l1.8-1.2l2.6,2.5l-1.1,1.8c0.4,0.7,0.7,1.4,0.9,2.1
		l2.1,0.4l0.1,3.6l-2.1,0.5c-0.2,0.8-0.5,1.5-0.9,2.2l1.2,1.8l-2.5,2.6l-1.8-1.1c-0.7,0.4-1.4,0.7-2.1,0.9l-0.4,2.1l-3.6,0.1
		l-0.5-2.1c-0.8-0.2-1.5-0.5-2.2-0.9l-1.8,1.2l-2.6-2.5l1.1-1.8c-0.4-0.7-0.7-1.4-0.9-2.1l-2.1-0.4l-0.1-3.6
		C232.8,22.1,234.9,21.6,234.9,21.6z M239.6,23.6c0,2.1,1.8,3.8,3.9,3.8c2.1,0,3.8-1.8,3.8-3.9s-1.8-3.8-3.9-3.8
		C241.2,19.8,239.6,21.5,239.6,23.6z"/>
	<path class="st5" d="M420,271.3c4.5-2.3,9.8-2.6,14.8-1.8c2.7,0.4,5.5,1.2,7.3,3.3c1.8,2,2.2,5.6,0.1,7.3c-1.2,1-3,1.2-4.6,1.2
		c-3.9,0-8.2-0.7-11.4,1.6c-1.8,1.3-3,3.6-5.1,4.2s-4.4-0.6-5.5-2.5s-1.1-4.2-0.6-6.4C414.9,278.2,415.4,273.6,420,271.3L420,271.3z
		 M409.7,251.4c2.7,3.9,8.1,2.6,10.6,0.2s3.5-5.9,4.5-9.2c2.2-7.6,4.4-15.5,2.8-23.2c-0.5-2.3-1.3-4.6-3-6.3
		c-1.6-1.7-4.1-2.7-6.4-2.1c-2.7,0.7-4.4,3.4-5.6,5.9c-3.6,7.4-5.4,15.6-5.5,23.8C407,244.2,407.5,248.2,409.7,251.4 M402.1,257
		c3-3.5,3.6-8.7,2.2-13.2c-1.3-4.4-4.3-8.2-7.8-11.3c-4.1-3.6-8.8-6.4-13.9-8.2c-2-0.7-4.1-1.3-6.3-1.1c-2.1,0.2-4.3,1.3-5.3,3.2
		c-1.5,2.8-0.1,6.2,1.5,9c2.7,4.9,5.7,9.5,9.2,14c2.7,3.5,5.9,7,10.1,8.6s8.5,1.4,10.7-1.5"/>
	<path class="st1" d="M409.5,310.6c0.1,0,0.1-0.6,0.2-1.8c0.1-1.3,0.3-2.9,0.5-4.9s0.5-4.5,1.1-7.1s1.5-5.5,2.6-8.4
		c1.2-2.9,2.6-5.5,4.3-7.6c1.7-2.1,3.6-3.6,5.4-4.5s3.5-1.3,4.6-1.4s1.8-0.2,1.8-0.3c0-0.1-0.6-0.1-1.8,0c-1.2,0.1-2.9,0.4-4.8,1.2
		c-1.9,0.9-4,2.4-5.7,4.6c-1.8,2.1-3.3,4.8-4.5,7.8s-2,5.9-2.6,8.6c-0.5,2.7-0.8,5.2-0.9,7.2c-0.2,2.1-0.2,3.7-0.2,4.9
		C409.4,310,409.4,310.6,409.5,310.6L409.5,310.6z"/>
	<path class="st1" d="M409.8,306.9v-3.2c0-2.1,0-5,0.1-8.7c0.2-7.3,0.8-15.2,2-26.4c1.2-10.5,2.7-22.7,4.3-30.6
		c0.4-1.8,0.7-3.4,1-4.8c0.3-1.4,0.6-2.7,0.9-3.6c0.2-0.9,0.4-1.7,0.6-2.3c0.1-0.5,0.2-0.8,0.1-0.8c0,0-0.1,0.3-0.3,0.8
		c-0.2,0.6-0.4,1.3-0.7,2.3c-0.3,1-0.6,2.2-1,3.6s-0.8,3-1.1,4.8c-1.6,7.2-3.3,17.2-4.6,28.4c-1.2,11.2-1.8,21.3-1.8,28.7
		c0,3.7,0,6.7,0.1,8.7c0.1,1,0.1,1.7,0.1,2.4C409.7,306.6,409.8,306.9,409.8,306.9z"/>
	<path class="st1" d="M409.9,287.3c0.1,0,0-0.9,0-2.5c-0.1-1.6-0.3-3.9-0.8-6.7c-0.5-2.8-1.1-6.1-2.2-9.8c-0.5-1.7-1.5-5.6-4.1-11.6
		c-3.4-8-8-14.6-12-18.7c-0.9-1.1-2-1.9-2.8-2.6c-0.4-0.4-0.8-0.7-1.2-1c-0.4-0.3-0.8-0.5-1.1-0.8c-1.3-0.9-2.1-1.4-2.1-1.3
		c-0.1,0.2,3,2,6.8,6.1c3.9,4.1,8.3,10.6,11.7,18.6c1.9,4.3,3.2,8.2,4.1,11.4c1.1,3.6,1.8,6.9,2.3,9.7c0.5,2.8,0.8,5.1,1,6.6
		C409.7,286.4,409.8,287.3,409.9,287.3L409.9,287.3z M390.9,321.9l2,26.9h34.6l1.9-26.9H390.9z M387.6,311.2h46v10.6h-46V311.2z"/>
	<path class="st5" d="M387.6,347.7v3h45.2v-3H387.6z"/>
	<path class="st1" d="M391.8,355.9l-2.1-5.2h41.4l-2.4,5.2H391.8z"/>
	<path class="st6" d="M428.8,330.7c0,0,0,0.1-0.2,0.2c-0.1,0.2-0.3,0.4-0.5,0.7c-0.5,0.6-1.2,1.5-2,2.6l-0.1,0.1l-0.1-0.1
		c-1.3-1.8-3-4.1-5-6.8h0.3c-1.5,2.1-3.1,4.4-4.9,6.9l-0.2,0.2l-0.2-0.2c-1.8-2.1-3.8-4.5-5.8-6.9h0.3c-0.1,0.1-0.2,0.3-0.3,0.4
		c-1.8,2.2-3.5,4.4-5.2,6.5l-0.2,0.2l-0.2-0.2c-1.8-2.5-3.4-4.8-4.9-6.9h0.3c-2.4,2.7-4.4,5.1-6,6.8l-0.1,0.1l-0.1-0.1
		c-0.8-1.3-1.4-2.4-1.9-3.2c-0.2-0.3-0.4-0.6-0.5-0.8c-0.1-0.2-0.2-0.3-0.1-0.3c0,0,0.1,0.1,0.2,0.3c0.1,0.2,0.3,0.5,0.5,0.8
		c0.5,0.8,1.1,1.8,2,3.1h-0.2c1.5-1.8,3.5-4.2,5.9-6.9l0.1-0.2l0.1,0.2c1.5,2.1,3.1,4.4,4.9,6.9h-0.3c1.6-2.1,3.4-4.2,5.2-6.5
		c0.1-0.1,0.2-0.3,0.3-0.4l0.2-0.2l0.2,0.2c2,2.4,4,4.7,5.8,6.9h-0.3c1.8-2.5,3.4-4.8,4.9-6.9l0.1-0.2l0.1,0.2
		c1.9,2.8,3.6,5.1,4.8,6.9h-0.2c0.9-1.1,1.6-1.9,2.1-2.5c0.2-0.3,0.4-0.5,0.6-0.6C428.7,330.7,428.8,330.7,428.8,330.7L428.8,330.7z
		 M429.9,321.7c0,0.1-8.7,0.2-19.4,0.2s-19.4-0.1-19.4-0.2s8.7-0.2,19.4-0.2S429.9,321.6,429.9,321.7z M431.6,351
		c0,0.1-9.4,0.2-21,0.2s-21-0.1-21-0.2s9.4-0.2,21-0.2S431.6,350.9,431.6,351z"/>
	<path class="st5" d="M67.4,49.5h1.8c0.6,0,1.3,0,2.1,0.1s1.8,0.1,2.8,0.2c2.1,0.2,4.5,0.6,7.2,1.1c2.7,0.6,5.6,1.4,8.5,2.5
		c3,1.1,5.7,2.4,8.1,3.6c2.4,1.3,4.5,2.6,6.2,3.8c0.9,0.6,1.6,1.1,2.3,1.6c0.7,0.5,1.2,0.9,1.7,1.3c0.9,0.7,1.4,1.2,1.3,1.2
		c0,0-0.5-0.3-1.5-1c-0.5-0.3-1-0.8-1.7-1.2c-0.7-0.5-1.4-1-2.3-1.6c-1.7-1.1-3.8-2.4-6.2-3.6c-2.4-1.2-5.1-2.5-8.1-3.5
		c-2.9-1.1-5.8-1.9-8.5-2.5c-2.6-0.6-5.1-1-7.1-1.2c-1-0.2-1.9-0.2-2.8-0.3c-0.8-0.1-1.5-0.1-2.1-0.2C68.1,49.6,67.4,49.6,67.4,49.5
		z M48.9,160.9l0.5-0.5c0.4-0.3,0.9-0.7,1.6-1.2c0.7-0.5,1.6-1.2,2.6-1.8c1-0.7,2.2-1.5,3.5-2.3s2.8-1.7,4.4-2.6
		c1.6-0.9,3.4-1.8,5.2-2.7c3.8-1.7,8-3.5,12.5-4.9c4.6-1.4,9-2.5,13.1-3.2c2-0.3,4-0.7,5.8-0.8c1.8-0.2,3.5-0.4,5.1-0.5
		s3-0.1,4.2-0.2h3.2c0.8,0,1.5,0.1,2,0.1s0.7,0,0.7,0.1h-2.7c-0.9,0-1.9,0-3.2,0.1c-1.2,0.1-2.6,0.1-4.2,0.2s-3.3,0.3-5.1,0.5
		c-1.8,0.2-3.7,0.5-5.8,0.9c-4,0.8-8.5,1.8-13,3.2c-4.5,1.5-8.7,3.1-12.5,4.9c-1.9,0.9-3.6,1.7-5.2,2.6c-1.6,0.8-3.1,1.7-4.4,2.5
		c-1.4,0.8-2.5,1.6-3.6,2.2c-1.1,0.7-1.9,1.3-2.6,1.8c-0.7,0.5-1.2,0.8-1.7,1.1C49.1,160.8,48.9,160.9,48.9,160.9L48.9,160.9z
		 M120.8,214.7c0,0,0-0.2,0.1-0.5c0.1-0.4,0.2-0.9,0.3-1.5c0.1-0.7,0.3-1.5,0.5-2.4s0.5-2,0.8-3.2c0.6-2.3,1.5-5.1,2.7-8.1
		c1.1-3,2.5-6.2,4.2-9.6c1.7-3.3,3.4-6.4,5.2-9.1c1.7-2.7,3.4-5.1,4.9-7c0.7-1,1.4-1.8,2-2.6s1.1-1.4,1.6-1.9c0.4-0.5,0.8-0.8,1-1.2
		c0.2-0.3,0.4-0.4,0.4-0.4s-0.1,0.2-0.3,0.4c-0.3,0.3-0.6,0.7-1,1.2s-1,1.2-1.5,1.9c-0.6,0.8-1.3,1.6-2,2.6c-1.4,1.9-3.1,4.3-4.8,7
		s-3.4,5.8-5.1,9.1c-1.6,3.3-3,6.5-4.2,9.5c-1.1,3-2.1,5.7-2.8,8c-0.4,1.2-0.6,2.2-0.9,3.1c-0.3,0.9-0.5,1.7-0.6,2.4
		c-0.2,0.6-0.3,1.1-0.4,1.5C120.8,214.5,120.8,214.7,120.8,214.7L120.8,214.7z M346.7,44.1c0,0-0.2,0.1-0.6,0.1
		c-0.5,0.1-1,0.1-1.7,0.2c-0.4,0-0.8,0.1-1.3,0.2s-0.9,0.2-1.5,0.3c-1.1,0.2-2.3,0.4-3.6,0.8c-0.7,0.2-1.3,0.3-2.1,0.5
		c-0.7,0.2-1.4,0.5-2.2,0.7c-1.5,0.5-3.1,1.1-4.7,1.8c-3.3,1.5-6.7,3.3-10.1,5.7s-6.3,5-8.8,7.6c-1.2,1.3-2.4,2.6-3.3,3.8
		c-0.5,0.6-1,1.2-1.4,1.8l-1.2,1.8c-0.8,1.1-1.4,2.2-1.9,3.1c-0.3,0.5-0.5,0.9-0.8,1.3c-0.2,0.4-0.4,0.8-0.6,1.1
		c-0.3,0.6-0.6,1.1-0.8,1.6c-0.2,0.4-0.3,0.5-0.3,0.5s0.1-0.2,0.2-0.6c0.2-0.4,0.4-0.9,0.7-1.6c0.2-0.4,0.3-0.7,0.5-1.2
		c0.2-0.4,0.5-0.8,0.7-1.3c0.5-0.9,1.1-2,1.9-3.2l1.2-1.8c0.4-0.6,0.9-1.2,1.4-1.9c0.9-1.3,2.1-2.6,3.3-3.9c2.5-2.6,5.4-5.3,8.8-7.7
		s6.9-4.2,10.2-5.7c1.7-0.7,3.3-1.3,4.8-1.8c0.8-0.2,1.5-0.5,2.2-0.7s1.4-0.3,2.1-0.5c1.3-0.4,2.5-0.5,3.6-0.7
		c0.5-0.1,1-0.2,1.5-0.2s0.9-0.1,1.3-0.1c0.7-0.1,1.3-0.1,1.7-0.1C346.4,44.1,346.7,44.1,346.7,44.1L346.7,44.1z M420.2,103.6
		c0,0-0.1,0-0.3-0.1c-0.2-0.1-0.4-0.2-0.8-0.3c-0.7-0.2-1.7-0.6-2.9-1c-0.6-0.2-1.3-0.5-2.1-0.8c-0.8-0.3-1.6-0.5-2.5-0.8
		c-1.8-0.6-3.8-1.3-6.1-1.9c-1.1-0.3-2.3-0.6-3.6-1c-1.2-0.3-2.6-0.6-3.9-0.9c-2.7-0.7-5.6-1.2-8.7-1.7c-6.2-1-13-1.7-20.2-2
		c-7.2-0.2-14.1,0.1-20.3,0.7c-3.1,0.4-6.1,0.7-8.8,1.2c-1.4,0.2-2.7,0.4-4,0.7c-1.3,0.3-2.5,0.5-3.6,0.8c-2.3,0.4-4.4,1-6.2,1.5
		c-0.9,0.2-1.8,0.4-2.5,0.6c-0.8,0.2-1.5,0.4-2.1,0.6c-1.2,0.4-2.2,0.6-2.9,0.9c-0.3,0.1-0.6,0.2-0.8,0.2c-0.2,0-0.3,0.1-0.3,0.1
		s0.1,0,0.2-0.1c0.2-0.1,0.4-0.2,0.8-0.3c0.7-0.2,1.7-0.5,2.9-0.9c0.6-0.2,1.3-0.4,2.1-0.7c0.8-0.2,1.6-0.4,2.5-0.7
		c1.8-0.5,3.9-1.1,6.2-1.6c1.2-0.3,2.4-0.5,3.6-0.8c1.3-0.3,2.6-0.5,4-0.7c2.7-0.5,5.7-0.8,8.8-1.2c6.2-0.6,13.1-1,20.4-0.8
		c7.2,0.3,14.1,1,20.3,2c3.1,0.6,6,1.1,8.7,1.8c1.4,0.3,2.7,0.6,3.9,0.9c1.2,0.4,2.4,0.7,3.6,1c2.3,0.6,4.3,1.3,6.1,1.9
		c0.9,0.3,1.7,0.6,2.5,0.8c0.7,0.3,1.4,0.6,2.1,0.8c1.2,0.5,2.2,0.9,2.8,1.1c0.3,0.1,0.5,0.2,0.7,0.3L420.2,103.6L420.2,103.6z"/>
</g>
<g id="Robot">
	<path class="st7" d="M101,31.2l0.6,1.2l-28,14.8L73,46.1c-3.6-6.8-1-15.2,5.8-18.9l3.3-1.8C88.9,21.8,97.4,24.4,101,31.2z"/>
	<path class="st8" d="M101.6,32.4l-28,14.9L73,46.1c-1.7-3.3-2.1-7-1-10.6s3.5-6.5,6.8-8.2l3.3-1.8c3.3-1.7,7.1-2.1,10.6-1
		c3.6,1.1,6.5,3.5,8.2,6.8C100.9,31.3,101.6,32.4,101.6,32.4z M73.6,47.2l27.9-14.8l-0.6-1.1c-1.7-3.3-4.7-5.7-8.2-6.8
		c-3.6-1.1-7.3-0.7-10.6,1l-3.3,1.8C75.5,29,73.1,32,72,35.5s-0.7,7.3,1,10.6C73,46.1,73.6,47.2,73.6,47.2z"/>
	<path class="st7" d="M117.4,131l-0.6-1.2l28.5-13.8l0.6,1.2c3.4,6.9,0.5,15.3-6.5,18.6l-3.4,1.6C129.1,140.9,120.7,138,117.4,131
		L117.4,131z"/>
	<path class="st8" d="M146.7,127.3c-0.1,0.2-0.1,0.4-0.2,0.5c-1.2,3.5-3.7,6.4-7.1,8l-3.4,1.6c-3.4,1.6-7.2,1.9-10.7,0.6
		c-3.5-1.2-6.4-3.7-8-7.1l-0.6-1.2l28.5-13.8l0.6,1.2C147.4,120.4,147.7,124,146.7,127.3L146.7,127.3z M117.4,131
		c1.6,3.3,4.5,5.9,8,7.1c3.5,1.2,7.3,1,10.6-0.6l3.4-1.6c3.3-1.6,5.9-4.5,7.1-8c0.1-0.2,0.1-0.4,0.2-0.5c1-3.4,0.7-6.9-0.8-10.1
		l-0.6-1.2l-28.5,13.8C116.8,129.9,117.4,131,117.4,131z"/>
	<path class="st7" d="M86.2,134.4l17.1-11.7l1.4,2.1l-17.1,11.7L86.2,134.4z"/>
	<path class="st8" d="M82.6,132.2c2.3-1.6,5.5-1,7.1,1.3s1,5.5-1.3,7.1s-5.5,1-7.1-1.3C79.7,136.9,80.3,133.8,82.6,132.2z"/>
	<path class="st9" d="M137.8,30.1l31,58.5c4.3,8.1,1.2,18-6.8,22.3l-37,19.6c-8.1,4.3-18,1.2-22.3-6.8l-31-58.5
		c-4.3-8.1-1.2-18,6.8-22.3l37-19.6C123.6,19,133.5,22.1,137.8,30.1z"/>
	<path class="st7" d="M70.8,63.6l-8.7-0.4L61.4,69l-6.3-0.2l0.1-1.9h4.6l0.9-5.7l9,0.2L70.8,63.6z"/>
	<path class="st8" d="M110.7,49.6l26.8,50.5c3.6,6.8,1,15.3-5.8,18.9l-2.3,1.2c-6.8,3.6-15.3,1-18.9-5.8L83.7,63.9
		c-3.6-6.8-1-15.3,5.8-18.9l2.3-1.2C98.6,40.2,107.1,42.8,110.7,49.6z"/>
	<path class="st8" d="M114.9,48.5c0,0-0.1-0.2-0.3-0.5c-0.2-0.3-0.5-0.8-0.9-1.4c-0.9-1.2-2.4-3-4.8-4.5c-1.2-0.8-2.6-1.5-4.3-2
		c-1.7-0.5-3.6-0.8-5.6-0.8s-4.2,0.5-6.3,1.3c-0.5,0.2-1,0.5-1.6,0.8c-0.5,0.3-1.1,0.6-1.6,0.9c-1.1,0.6-2.2,1.2-3.2,1.9
		c-2.1,1.5-3.9,3.5-5.2,6c-1.3,2.5-2.1,5.3-2,8.3c0,1.5,0.2,3,0.6,4.5s1.1,2.9,1.8,4.3c1.5,2.8,3.1,5.8,4.7,8.8
		c6.4,12,13.4,25.3,20.8,39.1c1.9,3.4,4.8,6.2,8.2,7.7c1.7,0.8,3.6,1.2,5.4,1.4c1.9,0.2,3.7,0,5.5-0.3c0.9-0.2,1.8-0.5,2.6-0.8
		c0.8-0.4,1.6-0.7,2.4-1.2c1.6-0.9,3.2-1.6,4.6-2.7c2.8-2.1,4.9-5.1,5.9-8.3c1.1-3.2,1.2-6.6,0.4-9.7c-0.2-0.8-0.5-1.5-0.7-2.3
		c-0.3-0.7-0.6-1.4-1-2.1c-0.7-1.4-1.5-2.7-2.2-4.1c-2.8-5.4-5.5-10.3-7.9-14.9c-4.8-9.1-8.7-16.5-11.4-21.6
		c-1.3-2.5-2.4-4.5-3.1-5.9c-0.3-0.7-0.6-1.2-0.8-1.5C115,48.7,114.9,48.5,114.9,48.5c0,0,0.1,0.2,0.3,0.5c0.2,0.4,0.5,0.9,0.8,1.5
		c0.7,1.4,1.8,3.3,3.2,5.8c2.7,5.1,6.7,12.4,11.5,21.5c2.4,4.5,5.1,9.5,7.9,14.9c0.7,1.3,1.4,2.7,2.2,4.1c0.4,0.7,0.7,1.4,1,2.2
		c0.3,0.8,0.6,1.5,0.7,2.3c0.8,3.2,0.7,6.7-0.4,9.9c-1.1,3.3-3.2,6.3-6.1,8.5c-1.4,1.1-3.1,1.9-4.7,2.8c-0.8,0.4-1.6,0.8-2.5,1.2
		c-0.9,0.3-1.8,0.6-2.7,0.8c-1.8,0.4-3.7,0.6-5.7,0.4c-1.9-0.2-3.8-0.7-5.6-1.5c-3.6-1.5-6.6-4.4-8.5-7.9
		c-7.4-13.9-14.4-27.1-20.8-39.2c-1.6-3-3.1-5.9-4.7-8.8c-0.8-1.4-1.4-2.9-1.9-4.4c-0.4-1.5-0.6-3.1-0.6-4.6c0-3.1,0.8-6,2.1-8.5
		c1.4-2.5,3.2-4.6,5.4-6.1c1.1-0.8,2.2-1.4,3.3-1.9c0.5-0.3,1.1-0.6,1.6-0.8c0.5-0.3,1.1-0.5,1.6-0.8c2.2-0.9,4.4-1.3,6.4-1.3
		c2.1,0,4,0.3,5.7,0.8c1.7,0.6,3.1,1.3,4.3,2.1c2.4,1.6,3.9,3.4,4.7,4.6c0.5,0.6,0.7,1.1,0.9,1.5C114.8,48.3,114.9,48.5,114.9,48.5z
		"/>
	<path class="st10" d="M130,107.3c0,0.1-3.9-0.9-8.7-2.2c-4.8-1.4-8.6-2.6-8.6-2.7s3.9,0.9,8.7,2.2S130,107.2,130,107.3z"/>
	<path class="st10" d="M123.2,96.2c0.1,0-0.7,4-2,8.8c-1.2,4.8-2.3,8.7-2.5,8.7c-0.1,0,0.7-4,2-8.8C121.9,100,123.1,96.1,123.2,96.2
		z M105.5,62.7c0,0.1-3.9-0.9-8.7-2.2c-4.8-1.4-8.6-2.6-8.6-2.7c0-0.1,3.9,0.9,8.7,2.2S105.6,62.5,105.5,62.7z"/>
	<path class="st10" d="M98.8,51.5c0.1,0-0.7,4-2,8.8c-1.2,4.8-2.3,8.7-2.5,8.7c-0.1,0,0.7-4,2-8.8C97.5,55.4,98.6,51.5,98.8,51.5z"
		/>
	<circle class="st8" cx="51.5" cy="68" r="5.1"/>
	<path class="st8" d="M167.8,86.6c0,0-0.3,0.3-1,0.6c-0.6,0.4-1.5,0.9-2.7,1.6c-2.3,1.3-5.4,3-9,4.9c-3.5,1.9-6.7,3.6-9,4.8
		c-2.3,1.2-3.8,1.9-3.9,1.8c0,0,0.3-0.2,1-0.6s1.6-0.9,2.7-1.5c2.4-1.3,5.5-3,9-4.9s6.7-3.6,9-4.8c1.1-0.6,2-1,2.8-1.4
		C167.4,86.8,167.8,86.6,167.8,86.6L167.8,86.6z M138.6,32.5c0,0-0.3,0.3-1,0.6c-0.6,0.4-1.5,0.9-2.7,1.6c-2.3,1.3-5.4,3-9,4.9
		c-3.5,1.9-6.7,3.6-9,4.8s-3.8,1.9-3.9,1.8c0,0,0.3-0.2,1-0.6c0.7-0.4,1.6-0.9,2.7-1.5c2.4-1.3,5.5-3,9-4.9c3.5-1.9,6.7-3.6,9-4.8
		c1.1-0.6,2-1,2.8-1.4C138.2,32.7,138.6,32.5,138.6,32.5L138.6,32.5z"/>
	<path class="st8" d="M119.1,48.2l5-2.7l25,45.8l-5,2.7L119.1,48.2z"/>
	<path class="st8" d="M149.1,100.7c0.6,0.2,0.9,0.8,0.7,1.4s-0.8,0.9-1.4,0.7c-0.6-0.2-0.9-0.8-0.7-1.4S148.5,100.5,149.1,100.7z
		 M159.9,95.3c0.6,0.2,0.9,0.8,0.7,1.4s-0.8,0.9-1.4,0.7c-0.6-0.2-0.9-0.8-0.7-1.4S159.4,95.1,159.9,95.3z M115.5,39.3
		c0.6,0.2,0.9,0.8,0.7,1.4c-0.2,0.6-0.8,0.9-1.4,0.7s-0.9-0.8-0.7-1.4S114.9,39.1,115.5,39.3z M126.4,33.9c0.6,0.2,0.9,0.8,0.7,1.4
		c-0.2,0.6-0.8,0.9-1.4,0.7s-0.9-0.8-0.7-1.4S125.8,33.7,126.4,33.9z"/>
	<path class="st10" d="M140.9,131.8c0,0.1-1.1,0.5-2.6,1.6c-0.8,0.6-1.7,1.3-2.8,2s-2.5,1.2-3.9,1.5c-3,0.5-5.7-0.4-7.4-1.4
		c-0.8-0.5-1.4-1-1.8-1.4s-0.6-0.6-0.5-0.7c0.1-0.1,0.9,0.9,2.5,1.7c1.6,0.9,4.3,1.7,7.1,1.2c2.9-0.4,5-2.2,6.6-3.2
		C139.6,132.1,140.8,131.8,140.9,131.8L140.9,131.8z M76.5,66.9c0.1-0.1,7,13,15.4,29.2s15,29.4,14.9,29.4c-0.1,0.1-7-13-15.4-29.2
		S76.3,67,76.5,66.9z M88.6,138.5c0.1,0-0.2,0.5-0.8,1c-0.6,0.5-1.7,1-3,0.9s-2.2-0.8-2.8-1.4c-0.5-0.6-0.6-1.1-0.6-1.1
		c0.1,0,0.3,0.4,0.9,0.9c0.5,0.5,1.4,1,2.5,1.1s2.1-0.3,2.7-0.7C88.2,138.8,88.5,138.4,88.6,138.5z M54.7,70.2c0,0-0.2,0.5-0.9,1.1
		c-0.7,0.5-1.9,1-3.2,0.8c-1.4-0.2-2.3-1.1-2.8-1.8S47.3,69,47.3,69c0.1,0,0.3,0.5,0.8,1.1s1.4,1.3,2.6,1.5c1.2,0.2,2.3-0.2,2.9-0.6
		C54.3,70.6,54.7,70.2,54.7,70.2z M73.4,36.3c0.2,0-0.5,1.9-0.3,4.2s1.1,4,1,4.1s-1.3-1.6-1.5-4.1C72.3,38.1,73.3,36.2,73.4,36.3z
		 M163.5,107c0.1,0.1-4.1,2.4-9.2,5s-9.4,4.7-9.4,4.5c-0.1-0.1,4.1-2.4,9.2-5S163.5,106.8,163.5,107z"/>
	<path class="st9" d="M208.4,279h42.8v60.6h-42.8V279z"/>
	<path class="st8" d="M256.6,344.8h-53.5v-0.5c0-3.1,2.6-5.7,5.7-5.7h42.1c3.2,0,5.7,2.6,5.7,5.7V344.8z"/>
	<path class="st9" d="M198.2,344.8h65v9.9h-65L198.2,344.8z"/>
	<path class="st8" d="M251,333c0,0.1-9.5,0.3-21.2,0.3s-21.2-0.1-21.2-0.3s9.5-0.3,21.2-0.3S251,332.8,251,333z M251,325.7
		c0,0.1-9.5,0.3-21.2,0.3s-21.2-0.1-21.2-0.3c0-0.1,9.5-0.3,21.2-0.3C241.5,325.5,251,325.6,251,325.7z M251,318.7
		c0,0.1-9.5,0.3-21.2,0.3s-21.2-0.1-21.2-0.3s9.5-0.3,21.2-0.3S251,318.5,251,318.7z M251,311.4c0,0.1-9.5,0.3-21.2,0.3
		s-21.2-0.1-21.2-0.3c0-0.1,9.5-0.3,21.2-0.3C241.5,311.2,251,311.3,251,311.4z M251,304.4c0,0.1-9.5,0.3-21.2,0.3
		s-21.2-0.1-21.2-0.3s9.5-0.3,21.2-0.3S251,304.2,251,304.4z M251,297.1c0,0.1-9.5,0.3-21.2,0.3s-21.2-0.1-21.2-0.3
		s9.5-0.3,21.2-0.3C241.5,296.9,251,297,251,297.1z M251,290.1c0,0.1-9.5,0.3-21.2,0.3s-21.2-0.1-21.2-0.3s9.5-0.3,21.2-0.3
		S251,289.9,251,290.1z M251,282.9c0,0.1-9.5,0.3-21.2,0.3s-21.2-0.1-21.2-0.3s9.5-0.3,21.2-0.3S251,282.7,251,282.9z"/>
	<path class="st11" d="M208.4,287.4l42.6-1.2v-6.1h-42.9L208.4,287.4z"/>
	<path class="st9" d="M275.5,279h42.8v60.6h-42.8V279z"/>
	<path class="st8" d="M323.6,344.8h-53.5v-0.5c0-3.1,2.6-5.7,5.7-5.7h42.1c3.1,0,5.7,2.6,5.7,5.7L323.6,344.8L323.6,344.8z"/>
	<path class="st9" d="M265.2,344.8h65v9.9h-65V344.8z"/>
	<path class="st8" d="M318,333c0,0.1-9.5,0.3-21.2,0.3s-21.2-0.1-21.2-0.3s9.5-0.3,21.2-0.3C308.6,332.7,318,332.8,318,333z
		 M318,325.7c0,0.1-9.5,0.3-21.2,0.3s-21.2-0.1-21.2-0.3c0-0.1,9.5-0.3,21.2-0.3C308.6,325.5,318,325.6,318,325.7z M318,318.7
		c0,0.1-9.5,0.3-21.2,0.3s-21.2-0.1-21.2-0.3s9.5-0.3,21.2-0.3C308.6,318.4,318,318.5,318,318.7z M318,311.4c0,0.1-9.5,0.3-21.2,0.3
		s-21.2-0.1-21.2-0.3c0-0.1,9.5-0.3,21.2-0.3C308.6,311.2,318,311.3,318,311.4z M318,304.4c0,0.1-9.5,0.3-21.2,0.3
		s-21.2-0.1-21.2-0.3s9.5-0.3,21.2-0.3C308.6,304.1,318,304.2,318,304.4z M318,297.1c0,0.1-9.5,0.3-21.2,0.3s-21.2-0.1-21.2-0.3
		s9.5-0.3,21.2-0.3C308.6,296.9,318,297,318,297.1z M318,290.1c0,0.1-9.5,0.3-21.2,0.3s-21.2-0.1-21.2-0.3s9.5-0.3,21.2-0.3
		C308.6,289.8,318,289.9,318,290.1z M318,282.9c0,0.1-9.5,0.3-21.2,0.3s-21.2-0.1-21.2-0.3s9.5-0.3,21.2-0.3
		C308.6,282.6,318,282.7,318,282.9z"/>
	<path class="st11" d="M275.5,287.4l42.5-1.2v-6.1h-42.9L275.5,287.4z"/>
	<path class="st9" d="M340.8,112.3l-2,7.7l-17.1-4.3c-1-0.2-1.6-1.2-1.3-2.2l1.1-4.2c0.2-1,1.2-1.6,2.2-1.3L340.8,112.3L340.8,112.3
		z"/>
	<path class="st11" d="M340.8,112.3l-2,7.7l-17.1-4.3c-1-0.2-1.6-1.2-1.3-2.2l1.1-4.2c0.2-1,1.2-1.6,2.2-1.3L340.8,112.3
		L340.8,112.3z"/>
	<path class="st9" d="M337.7,124.4l-2.9,11.7l-16-4c-1.6-0.4-2.6-2.1-2.2-3.7l1.5-5.8c0.4-1.6,2.1-2.6,3.7-2.2
		C321.8,120.4,337.7,124.4,337.7,124.4z"/>
	<path class="st9" d="M328.3,130.2l5-19.8l7.5,1.9l-5,19.8L328.3,130.2z"/>
	<path class="st9" d="M345.7,190.8c0,0,31.9-1.3,29.3-31.9c-2-23.5-36.9-23.7-36.9-23.7l8.9-19.5c0,0,40.8,3.5,48.8,33.2
		c9.1,33.5-11.9,60.9-50.1,60.2L345.7,190.8L345.7,190.8z"/>
	<path class="st8" d="M331.4,137.4l6-27l12.1,2.7l-6,27L331.4,137.4z"/>
	<path class="st7" d="M344.2,137.1c0,0.2-2.8-0.2-6-1c-3.3-0.8-5.9-1.5-5.9-1.6s2.7,0.4,6,1.1c1.6,0.4,3.1,0.7,4.2,1
		c0.4,0.1,0.9,0.2,1.3,0.3C344,137.1,344.1,137.1,344.2,137.1z M345.2,132.3c0,0.2-2.8-0.2-6-1c-3.3-0.8-5.9-1.5-5.9-1.6
		s2.7,0.4,6,1.1c1.6,0.4,3.1,0.7,4.2,1c0.4,0.1,0.9,0.2,1.3,0.3C345.1,132.2,345.2,132.2,345.2,132.3z M346.5,127.4
		c0,0.2-2.8-0.2-6-1c-3.3-0.8-5.9-1.5-5.9-1.6s2.7,0.4,6,1.1c1.6,0.4,3.1,0.7,4.2,1c0.4,0.1,0.9,0.2,1.3,0.3
		C346.4,127.3,346.5,127.4,346.5,127.4z M347.4,122.5c0,0.2-2.8-0.2-6-1c-3.3-0.8-5.9-1.5-5.9-1.6s2.7,0.4,6,1.1
		c1.6,0.4,3.1,0.7,4.2,1c0.4,0.1,0.9,0.2,1.3,0.3C347.2,122.5,347.4,122.5,347.4,122.5z M348.6,118c0,0.2-2.8-0.2-6-1
		c-3.3-0.8-5.9-1.5-5.9-1.6s2.7,0.4,6,1.1c1.6,0.4,3.1,0.7,4.2,1c0.4,0.1,0.9,0.2,1.3,0.3C348.5,117.9,348.6,118,348.6,118z"/>
	<path class="st8" d="M352.7,209c-0.1,0-0.3-1-0.6-2.7c-0.3-1.7-0.7-4-1-6.6s-0.4-5-0.5-6.7s0-2.8,0-2.8c0.1,0,0.2,1,0.3,2.7
		c0.2,1.7,0.4,4,0.7,6.6c0.3,2.6,0.6,4.9,0.8,6.6C352.6,207.9,352.7,209,352.7,209L352.7,209z M362.6,207.4c-0.1,0-1.4-4.2-2.9-9.5
		s-2.5-9.6-2.4-9.7c0.1,0,1.4,4.2,2.9,9.5C361.6,203.1,362.7,207.4,362.6,207.4z M375.9,202.6c-0.1,0-0.7-1-1.7-2.7
		c-1.1-1.8-2.4-4-3.9-6.5s-2.8-4.7-3.9-6.5c-1-1.7-1.6-2.7-1.5-2.8c0.1,0,0.8,0.9,1.8,2.6c1.1,1.6,2.5,3.9,4.1,6.4
		c1.5,2.5,2.8,4.9,3.8,6.6C375.5,201.5,376,202.6,375.9,202.6L375.9,202.6z M387.2,193.6c-0.1,0.1-4.1-3-8.9-7s-8.6-7.3-8.5-7.4
		c0.1-0.1,4.1,3,8.9,7C383.4,190.2,387.3,193.5,387.2,193.6z M394.4,181.3c-0.1,0.1-4.8-1.7-10.5-4.1c-5.7-2.4-10.4-4.4-10.3-4.6
		c0.1-0.1,4.8,1.7,10.5,4.1C389.8,179.1,394.5,181.2,394.4,181.3z M397.9,168c0,0.1-1.3-0.1-3.4-0.3c-2.2-0.3-5-0.6-8.1-1
		s-5.9-0.7-8.1-1c-2.1-0.3-3.3-0.4-3.3-0.5s1.3,0,3.4,0.1c2.1,0.2,5,0.4,8.1,0.8c3.2,0.4,6,0.8,8.1,1.2
		C396.7,167.6,397.9,167.9,397.9,168z M396.3,154.2c0,0.1-1.1,0.5-3,1c-1.9,0.6-4.5,1.2-7.5,1.9c-2.9,0.6-5.6,1.1-7.6,1.3
		c-2,0.3-3.2,0.3-3.2,0.3c0-0.1,1.2-0.3,3.1-0.6s4.6-0.8,7.5-1.5c2.9-0.6,5.6-1.2,7.5-1.7C395.1,154.4,396.3,154.1,396.3,154.2z
		 M392.3,140.9c0.1,0.1-4.2,2.4-9.6,5.1c-5.4,2.7-9.7,4.8-9.8,4.7c-0.1-0.1,4.2-2.4,9.6-5.1C387.8,142.9,392.2,140.8,392.3,140.9z
		 M384,130.1c0.1,0.1-3.5,3.3-8,7.2s-8.2,6.9-8.3,6.8c-0.1-0.1,3.5-3.3,8-7.2C380.2,133.1,383.9,130,384,130.1z M370.1,122.2
		c0.1,0.1-2.1,4-5,8.8s-5.3,8.6-5.5,8.6c-0.1-0.1,2.1-4,5-8.8C367.6,125.9,370,122.1,370.1,122.2z M357.7,117.2c0.1,0-1.2,4.5-3,9.9
		s-3.3,9.7-3.5,9.7c-0.1,0,1.2-4.5,3-9.9S357.5,117.1,357.7,117.2z"/>
	<path class="st11" d="M372.7,174.5c-2.9,6.4-7.6,9.9-11.6,11.9c-4.5,2.3-7.8,3.1-7.8,3.1c6.1,3.3,14.1,1.3,19.4-3.1
		c5.3-4.4,8.2-11.4,8.3-18.3c0.1-3.3-0.4-6.6-1.7-9.6c-1.4-3-3.6-6.1-6.6-7.5c0,0,1.2,2,1.9,5.2
		C375.5,160.8,375.7,167.8,372.7,174.5L372.7,174.5z"/>
	<path class="st8" d="M137.8,228.5c0,0,0.4,0.4,1,1.1c0.6,0.7,1.5,1.8,2.5,3.2c2,2.8,4.5,6.8,6.6,11.6s3.5,9.3,4.3,12.6
		c0.4,1.7,0.6,3,0.8,4c0.1,0.9,0.2,1.5,0.2,1.5s-0.2-0.5-0.4-1.4s-0.5-2.3-0.9-3.9c-0.9-3.3-2.3-7.8-4.4-12.5
		c-2.1-4.7-4.6-8.8-6.5-11.6c-0.9-1.4-1.7-2.5-2.3-3.3C138.1,228.9,137.8,228.5,137.8,228.5L137.8,228.5z M133.6,224.9
		c0.1-0.1,0.6,0.2,1.1,0.6c0.5,0.4,0.8,0.9,0.7,1s-0.6-0.2-1.1-0.6C133.8,225.5,133.5,225,133.6,224.9z M134.6,222
		c0.1-0.1,0.6,0.5,1.1,1.3s0.8,1.5,0.7,1.6s-0.6-0.5-1.1-1.3C134.7,222.8,134.4,222.1,134.6,222z"/>
	<path class="st7" d="M153.1,263.1c0,0,0-0.3,0.2-0.8c0.1-0.6,0.3-1.3,0.5-2.3c0.5-2,1.1-4.8,1.9-8.4c1.5-7.1,3.4-17,4.8-28
		c0.7-5.5,1-10.8,2.3-15.5c0.6-2.3,1.5-4.5,2.7-6.3s2.6-3.3,4-4.5c2.9-2.3,5.8-3.3,7.7-3.8c1-0.2,1.8-0.3,2.3-0.3h0.8
		c0,0-0.3,0.1-0.8,0.1c-0.5,0.1-1.3,0.2-2.3,0.4c-1.9,0.5-4.8,1.5-7.5,3.9c-1.4,1.1-2.7,2.6-3.9,4.4c-1.1,1.8-2,3.9-2.6,6.2
		c-1.2,4.6-1.5,9.9-2.2,15.4c-1.4,11-3.3,20.9-4.9,28c-0.8,3.5-1.5,6.4-2.1,8.4c-0.3,0.9-0.5,1.7-0.6,2.3
		C153.2,262.8,153.1,263.1,153.1,263.1L153.1,263.1z"/>
	<path class="st8" d="M154.2,183.8c0.1-0.1,0.6,1.7,2.5,3.7s5.4,4.1,9.6,4.7c4.2,0.6,8.1,0,10.9-0.5c1.3-0.2,2.4-0.4,3.3-0.6
		c0.8-0.1,1.2-0.2,1.2-0.2s-0.4,0.2-1.2,0.4s-1.9,0.5-3.3,0.7c-2.8,0.5-6.7,1.2-11.1,0.6c-4.4-0.6-7.9-2.8-9.8-4.9
		c-1-1.1-1.6-2.1-1.9-2.8C154.3,184.2,154.2,183.8,154.2,183.8L154.2,183.8z M150.4,180.6c0.1-0.1,0.6,0.2,1.1,0.7s0.8,1,0.7,1.1
		s-0.6-0.2-1.1-0.7C150.7,181.2,150.3,180.7,150.4,180.6z M151.6,178.9c0.1-0.1,0.6,0.4,1,1.1c0.4,0.7,0.7,1.3,0.6,1.4
		c-0.1,0.1-0.6-0.4-1-1.1C151.7,179.6,151.5,178.9,151.6,178.9z M154.7,178.6c0.1,0,0.2,0.6,0.1,1.3c-0.1,0.7-0.3,1.3-0.5,1.2
		s-0.2-0.6-0.1-1.3C154.4,179.2,154.6,178.6,154.7,178.6z"/>
	<path class="st7" d="M164.1,217.7c0,0,0,0.6-0.1,1.8c-0.1,1.1-0.3,2.8-0.5,4.8c-0.5,4.1-1.3,9.7-2.6,15.8s-2.7,11.6-3.8,15.6
		c-0.6,2-1.1,3.6-1.4,4.6c-0.4,1.1-0.6,1.7-0.6,1.7s0.1-0.6,0.4-1.7c0.3-1.2,0.8-2.8,1.3-4.7c1.1-4,2.4-9.4,3.7-15.6
		c1.2-6.1,2.1-11.7,2.7-15.8c0.3-2,0.5-3.6,0.7-4.8C164,218.3,164.1,217.7,164.1,217.7L164.1,217.7z M181.9,194.5
		c0,0.1-1.4,0.1-3.6,0.7s-5.2,1.9-7.7,4.2c-2.6,2.4-4.1,5.2-4.8,7.4c-0.8,2.2-0.9,3.6-1,3.6v-1c0.1-0.6,0.2-1.6,0.6-2.7
		c0.7-2.2,2.2-5.2,4.8-7.6c2.6-2.4,5.7-3.7,8-4.2c1.1-0.3,2.1-0.4,2.7-0.4H181.9z"/>
	<path class="st7" d="M157.8,262.9v-0.8c0-0.5,0.1-1.2,0.3-2.1c0.3-1.8,0.7-4.6,2.4-7.6c0.8-1.5,2-2.9,2.9-4.6
		c0.5-0.9,0.9-1.8,1-2.8c0.2-1,0.2-2.1,0.1-3.2c-0.2-2.2-0.8-4.5-0.3-7c0.2-1.2,0.9-2.4,1.6-3.4c0.7-1,1.6-2,2.2-3
		c0.7-1,1.1-2.2,1.1-3.4s-0.2-2.4-0.5-3.6c-0.6-2.3-0.8-4.7-0.6-7c0.4-4.5,2.2-8.3,4.4-10.9c2.2-2.6,4.5-4.2,6.1-5
		c0.8-0.4,1.5-0.7,2-0.9s0.7-0.2,0.7-0.2s-0.2,0.1-0.7,0.3c-0.4,0.2-1.1,0.5-1.9,1c-1.6,0.9-3.9,2.5-6,5.1s-3.8,6.3-4.2,10.7
		c-0.2,2.2,0,4.5,0.6,6.8c0.3,1.2,0.5,2.4,0.5,3.7s-0.5,2.6-1.2,3.7s-1.6,2.1-2.3,3c-0.7,1-1.3,2-1.5,3.2c-0.5,2.3,0.1,4.6,0.3,6.8
		c0.1,1.1,0.1,2.2-0.1,3.3c-0.2,1.1-0.6,2-1.1,2.9c-1,1.7-2.2,3.2-3,4.6c-1.7,2.9-2.1,5.6-2.5,7.4c-0.1,0.9-0.3,1.6-0.3,2.1
		C157.9,262.6,157.8,262.9,157.8,262.9L157.8,262.9z"/>
	<path class="st1" d="M183,204.9c0,0.1-0.9-0.1-2.5,0.3c-1.5,0.4-3.6,1.7-5.2,4.1c-1.6,2.4-2.3,5.8-2.7,9.6s-0.9,8-1.8,12.3
		c-1.8,8.7-4.2,16.3-6,21.8c-0.9,2.8-1.7,5-2.2,6.5c-0.3,0.7-0.5,1.3-0.6,1.8c-0.1,0.4-0.2,0.6-0.3,0.6c0,0,0-0.2,0.2-0.6
		c0.1-0.5,0.3-1.1,0.5-1.8c0.5-1.6,1.2-3.8,2-6.5c1.7-5.5,4-13.2,5.8-21.8c0.9-4.3,1.5-8.5,1.9-12.3s1.2-7.3,2.9-9.7
		c1.7-2.5,3.8-3.7,5.4-4.1c0.8-0.2,1.4-0.2,1.9-0.2H183L183,204.9z"/>
	<path class="st9" d="M146.3,259.3h19.4c0,0-11.7,93.3-76.6,93l0.8-18.2C89.9,334.1,134,331.3,146.3,259.3z M82.7,328.8l-0.1,8
		l-17.7-0.3c-1,0-1.8-0.9-1.8-1.9l0.1-4.3c0-1,0.9-1.8,1.9-1.8L82.7,328.8L82.7,328.8z"/>
	<path class="st11" d="M82.7,328.8l-0.1,8l-17.7-0.3c-1,0-1.8-0.9-1.8-1.9l0.1-4.3c0-1,0.9-1.8,1.9-1.8L82.7,328.8L82.7,328.8z"/>
	<path class="st9" d="M82.5,341.3l-0.2,12L65.8,353c-1.7,0-3-1.4-3-3.1l0.1-5.9c0-1.7,1.4-3,3.1-3L82.5,341.3z"/>
	<path class="st9" d="M74.6,349.1l0.4-20.4l7.7,0.1l-0.4,20.4L74.6,349.1z"/>
	<path class="st8" d="M79,327.7l12.4-0.2l0.3,27.7l-12.4,0.2L79,327.7z"/>
	<path class="st7" d="M91.6,352.2c0,0.2-2.7,0.4-6.1,0.4s-6.1-0.1-6.1-0.3c0-0.1,2.7-0.3,6.1-0.3h5.6
		C91.5,352.2,91.6,352.2,91.6,352.2L91.6,352.2z M91.6,347.3c0,0.2-2.7,0.4-6.1,0.4s-6.1-0.1-6.1-0.3c0-0.1,2.7-0.3,6.1-0.3h5.6
		C91.4,347.2,91.6,347.3,91.6,347.3L91.6,347.3z M91.7,342.2c0,0.2-2.7,0.4-6.1,0.4s-6.1-0.1-6.1-0.3c0-0.1,2.7-0.3,6.1-0.3h5.6
		C91.6,342.2,91.7,342.2,91.7,342.2L91.7,342.2z M91.5,337.3c0,0.2-2.7,0.4-6.1,0.4s-6.1-0.1-6.1-0.3c0-0.1,2.7-0.3,6.1-0.3H91
		C91.3,337.3,91.4,337.3,91.5,337.3L91.5,337.3z M91.6,332.6c0,0.2-2.7,0.4-6.1,0.4s-6.1-0.1-6.1-0.3c0-0.1,2.7-0.3,6.1-0.3h5.6
		C91.5,332.5,91.6,332.6,91.6,332.6L91.6,332.6z"/>
	<path class="st8" d="M98.4,351.3c0,0,0,0.2,0.1,0.5v0.6l-0.2-0.6c-0.4-1.2-1.2-4.8-1.9-9.2c-0.4-2.7-0.7-5.1-0.9-6.9
		c-0.2-1.8-0.2-2.9-0.1-2.9s0.2,1.1,0.5,2.8c0.3,1.8,0.6,4.2,1,6.9c0.7,4.3,1.4,8,1.5,9.2h-0.2C98.4,351.5,98.4,351.3,98.4,351.3z
		 M107.6,349.6c-0.1,0-1.6-4.2-3.2-9.4s-2.9-9.5-2.7-9.6c0.1,0,1.6,4.2,3.2,9.4C106.6,345.2,107.8,349.5,107.6,349.6z M118.5,345
		c-0.1,0.1-2.3-4-4.8-9.1s-4.4-9.2-4.3-9.3c0.1-0.1,2.3,4,4.8,9.1C116.7,340.7,118.6,344.9,118.5,345z M128.1,337.8
		c-0.1,0.1-2.9-3.5-6.2-7.9c-3.3-4.5-5.9-8.1-5.8-8.2s2.9,3.5,6.2,7.9C125.7,334,128.3,337.7,128.1,337.8z M136.5,329.8
		c-0.1,0.1-3.3-3-7.2-6.9c-3.9-3.9-6.9-7.1-6.8-7.2s3.3,3,7.2,6.9S136.6,329.7,136.5,329.8z M143.5,320.2c0,0.1-1-0.5-2.5-1.3
		c-1.7-1-3.7-2.2-5.9-3.5s-4.3-2.5-5.9-3.5c-1.5-0.9-2.4-1.5-2.4-1.5c0-0.1,1,0.4,2.6,1.2c1.6,0.8,3.7,2,6,3.3
		c2.3,1.4,4.4,2.6,5.8,3.6C142.6,319.5,143.5,320.2,143.5,320.2L143.5,320.2z M148.2,310.5c0,0.1-1-0.4-2.4-1.1
		c-1.5-0.7-3.5-1.7-5.8-2.8c-2.3-1-4.3-2-5.8-2.6c-1.5-0.7-2.4-1.1-2.4-1.1c0-0.1,1,0.2,2.5,0.8c1.5,0.6,3.6,1.4,5.9,2.5
		c2.3,1.1,4.3,2.1,5.7,2.9S148.2,310.4,148.2,310.5L148.2,310.5z M153.8,301.1c0,0.1-1.1-0.1-2.8-0.5s-4-0.9-6.6-1.7
		c-2.5-0.7-4.8-1.5-6.4-2.1c-1.6-0.6-2.6-1-2.6-1.1s1.1,0.2,2.7,0.7c1.7,0.5,3.9,1.2,6.5,2c2.5,0.7,4.8,1.4,6.5,1.8
		C152.8,300.8,153.8,301.1,153.8,301.1L153.8,301.1z M156.8,291.7c0,0.1-4.2-0.3-9.2-0.9c-5.1-0.6-9.2-1.3-9.2-1.4s4.2,0.3,9.2,0.9
		C152.7,290.9,156.8,291.5,156.8,291.7z M159.9,282.4c0,0.1-1,0-2.7-0.1s-3.9-0.3-6.5-0.6c-2.5-0.3-4.8-0.5-6.5-0.7
		s-2.7-0.4-2.7-0.5s1,0,2.7,0.1s3.9,0.3,6.5,0.6c2.5,0.3,4.8,0.5,6.4,0.7C158.9,282.2,159.9,282.3,159.9,282.4z M162.4,273.5
		c0,0.1-4.3,0.4-9.6,0.6s-9.7,0.2-9.7,0c0-0.1,4.3-0.4,9.6-0.6C158.1,273.3,162.4,273.3,162.4,273.5z M163.4,266.1
		c0,0.1-1,0.2-2.6,0.4s-3.9,0.3-6.4,0.3s-4.8-0.1-6.4-0.3c-1.6-0.2-2.6-0.3-2.6-0.4s1,0,2.7,0c1.6,0.1,3.9,0.1,6.4,0.1
		s4.8-0.1,6.4-0.2C162.4,266.1,163.4,266.1,163.4,266.1L163.4,266.1z"/>
	<path class="st10" d="M147.1,262v1c0,0.6,0,1.6-0.1,2.8c-0.1,2.5-0.4,6-1.2,10.4c-0.8,4.3-2.2,9.5-4.3,14.9
		c-2.2,5.4-5.2,11.2-9.1,16.6c-4,5.5-8.4,10.2-12.9,13.9c-4.5,3.8-8.9,6.7-12.8,8.8c-3.9,2.1-7.2,3.6-9.5,4.4
		c-1.1,0.5-2.1,0.7-2.7,1c-0.3,0.1-0.5,0.2-0.7,0.2s-0.2,0.1-0.2,0.1s0.1,0,0.2-0.1c0.2-0.1,0.4-0.2,0.7-0.3c0.6-0.3,1.5-0.6,2.6-1
		c2.3-0.9,5.5-2.4,9.4-4.6c3.8-2.2,8.2-5.1,12.6-8.9s8.9-8.4,12.8-13.9c3.9-5.5,6.9-11.1,9.1-16.5c2.2-5.4,3.6-10.5,4.4-14.8
		c0.8-4.3,1.2-7.9,1.4-10.3c0.1-1.2,0.1-2.2,0.2-2.8v-0.7C147.1,262.1,147.1,262,147.1,262L147.1,262z"/>
	<path class="st12" d="M236.9,153.3c0,0-10.7-14.5-35.5-12.4c0,0,25.3-19.4,10.4-39.3c0,0,31.9,9.4,32.3-30.4c0,0,5.8,37,35.9,26.5
		c0,0,2.1,29.4,23,23.9c-10.1,9.9-19.9,18.6-17.9,31.3"/>
	<path class="st13" d="M236.9,153.3c0,0-10.7-14.5-35.5-12.4c0,0,25.3-19.4,10.4-39.3c0,0,31.9,9.4,32.3-30.4c0,0,5.8,37,35.9,26.5
		c0,0,2.1,29.4,23,23.9c-10.1,9.9-19.9,18.6-17.9,31.3"/>
	<path class="st12" d="M236.9,153.3c0,0-0.3-16.9-20.2-15.2c0,0,18.5-10.7,6.6-26.7c0,0,25.6,7.6,25.9-24.5c0,0,4.7,29.7,28.8,21.2
		c0,0-2.9,21.5,13.8,17.2c-8.1,8-11.4,17-9.8,27.2"/>
	<path class="st14" d="M236.9,153.3c0,0-0.3-16.9-20.2-15.2c0,0,18.5-10.7,6.6-26.7c0,0,25.6,7.6,25.9-24.5c0,0,4.7,29.7,28.8,21.2
		c0,0-2.9,21.5,13.8,17.2c-8.1,8-11.4,17-9.8,27.2"/>
	<path class="st9" d="M269.6,41.1c0,0-0.1,0.2-0.2,0.6c-0.2,0.5-0.5,1-0.8,1.8c-0.4,0.8-0.8,1.7-1.2,2.8c-0.5,1.1-1,2.3-1.5,3.7
		s-1.1,2.9-1.7,4.6c-0.6,1.7-1.1,3.5-1.7,5.3c-1.1,3.8-2.1,8-3,12.5c-0.8,4.5-1.3,8.8-1.6,12.8c-0.1,2-0.2,3.8-0.3,5.6
		c-0.1,1.8-0.1,3.4,0,4.9c0,1.5,0.1,2.8,0.1,4s0.1,2.2,0.2,3c0,0.8,0.1,1.4,0.1,1.9v0.7c0,0-0.1-0.2-0.1-0.7
		c-0.1-0.5-0.1-1.1-0.2-1.9s-0.2-1.9-0.3-3c-0.1-1.2-0.2-2.5-0.2-4s-0.1-3.1,0-4.9c0-1.8,0.1-3.7,0.2-5.6c0.3-4,0.8-8.3,1.6-12.8
		s1.9-8.8,3-12.6c0.6-1.9,1.1-3.7,1.8-5.4c0.6-1.7,1.2-3.2,1.7-4.6c0.5-1.4,1.1-2.6,1.6-3.7s0.9-2,1.3-2.8c0.4-0.7,0.6-1.3,0.9-1.7
		C269.5,41.3,269.6,41.1,269.6,41.1L269.6,41.1z M198.1,34.2c-0.1,0.1-2.3-2.5-6-4.5s-7.1-2.3-7.1-2.5c0-0.1,0.9-0.1,2.2,0.2
		c1.4,0.3,3.2,0.8,5.1,1.8c1.9,1,3.4,2.2,4.3,3.2C197.6,33.5,198.1,34.2,198.1,34.2z M205.8,77.8c0,0,0.2,0.1,0.4,0.4
		c0.3,0.3,0.7,0.7,1.1,1.2c1,1,2.3,2.6,3.9,4.6c1.6,2,3.4,4.4,5.4,7.1c1.9,2.8,3.9,5.9,5.9,9.2c1.9,3.4,3.6,6.6,5.1,9.7
		c1.4,3,2.6,5.8,3.5,8.2c0.9,2.4,1.6,4.3,2,5.7c0.2,0.6,0.4,1.1,0.5,1.6c0.1,0.4,0.2,0.5,0.1,0.6c0,0-0.1-0.2-0.2-0.5
		c-0.2-0.4-0.3-0.9-0.6-1.5c-0.5-1.3-1.2-3.2-2.2-5.6c-0.9-2.3-2.2-5.1-3.6-8.1c-1.5-3-3.2-6.3-5.1-9.6c-1.9-3.3-3.9-6.4-5.8-9.2
		c-1.9-2.7-3.7-5.2-5.3-7.2s-2.9-3.6-3.8-4.7c-0.4-0.5-0.8-0.9-1-1.3C205.9,77.9,205.7,77.8,205.8,77.8L205.8,77.8z M274.5,82.9
		c0,0-0.1,0.2-0.2,0.5c-0.2,0.3-0.4,0.8-0.7,1.3c-0.3,0.5-0.7,1.2-1.1,2s-0.9,1.7-1.3,2.7c-1,2-2,4.4-3,7.2s-1.9,5.8-2.6,9.1
		c-0.7,3.3-1.2,6.5-1.5,9.4s-0.4,5.5-0.4,7.7v3c0,0.9,0.1,1.6,0.1,2.2s0.1,1,0.1,1.4v0.5c0,0-0.1-0.2-0.1-0.5c0-0.4-0.1-0.9-0.2-1.4
		c-0.1-0.6-0.2-1.4-0.2-2.3s-0.1-1.9-0.1-3c-0.1-2.2,0-4.9,0.3-7.8s0.7-6.1,1.5-9.4s1.7-6.4,2.7-9.2c1-2.7,2.1-5.2,3.1-7.2
		c0.5-1,1-1.9,1.4-2.6c0.4-0.8,0.8-1.4,1.1-2c0.3-0.5,0.6-0.9,0.8-1.2C274.4,83,274.5,82.9,274.5,82.9L274.5,82.9z M294.2,86.8
		c0,0.1-0.8,0.7-2.2,1.9c-1.3,1.2-3.1,2.9-4.8,5c-1.7,2.1-2.9,4.2-3.8,5.7c-0.8,1.6-1.3,2.6-1.3,2.5c-0.1,0,0.3-1.1,1-2.7
		c0.8-1.6,2-3.8,3.7-5.9s3.5-3.8,4.9-4.9C293.2,87.2,294.1,86.7,294.2,86.8L294.2,86.8z M210.6,112.3c0-0.1,1,0.5,2.4,1.5
		s3.3,2.7,5.2,4.7c1.8,2,3.2,4.1,4.1,5.6c0.9,1.5,1.3,2.6,1.3,2.6c-0.1,0-0.6-0.9-1.6-2.4s-2.4-3.5-4.2-5.5s-3.6-3.6-5-4.7
		C211.5,113,210.6,112.3,210.6,112.3z M205.6,103c-0.1,0.1-2.1-1-4.9-1.7c-2.8-0.7-5.1-0.7-5.1-0.9c0-0.1,2.4-0.4,5.2,0.4
		C203.7,101.5,205.7,102.9,205.6,103z"/>
	<path class="st15" d="M185,71.7c0.1-0.6,0.4-1.1,0.7-1.7l-0.9-1.4l1.9-2l1.4,0.9c0.5-0.3,1.1-0.5,1.6-0.7l0.3-1.6h2.7l0.4,1.6
		c0.6,0.1,1.1,0.4,1.7,0.7l1.4-0.9l2,1.9l-0.9,1.4c0.3,0.5,0.5,1.1,0.7,1.6l1.6,0.3v2.7l-1.6,0.4c-0.1,0.6-0.4,1.1-0.7,1.7l0.9,1.4
		l-1.9,2l-1.3-1c-0.5,0.3-1.1,0.5-1.6,0.7l-0.3,1.6h-2.7l-0.4-1.6c-0.6-0.1-1.1-0.4-1.7-0.7l-1.4,0.9l-2-1.9l0.9-1.4
		c-0.3-0.5-0.5-1.1-0.7-1.6l-1.6-0.3V72L185,71.7L185,71.7z M188.6,73.2c0,1.6,1.4,2.9,3,2.9s2.9-1.4,2.9-3s-1.4-2.9-3-2.9
		C189.9,70.3,188.6,71.6,188.6,73.2z"/>
	<path class="st16" d="M299.6,145.5c0.1-0.4,0.3-0.8,0.5-1.2l-0.7-1l1.4-1.4l1,0.6c0.4-0.2,0.8-0.4,1.2-0.5l0.2-1.2h2l0.3,1.2
		c0.4,0.1,0.8,0.3,1.2,0.5l1-0.7l1.4,1.4l-0.6,1c0.2,0.4,0.4,0.8,0.5,1.2l1.2,0.2v2l-1.2,0.3c-0.1,0.4-0.3,0.8-0.5,1.2l0.7,1
		l-1.4,1.4l-1-0.6c-0.4,0.2-0.8,0.4-1.2,0.5l-0.2,1.2h-2l-0.3-1.2c-0.4-0.1-0.8-0.3-1.2-0.5l-1,0.7l-1.4-1.4l0.6-1
		c-0.2-0.4-0.4-0.8-0.5-1.2l-1.2-0.2v-2L299.6,145.5z M302.2,146.7c0,1.2,1,2.1,2.2,2.1s2.1-1,2.1-2.2s-1-2.1-2.2-2.1
		C303.2,144.5,302.2,145.5,302.2,146.7z"/>
	<path class="st1" d="M275.1,68.5l4.5-9.4l4.2,2l-4.5,9.4L275.1,68.5z"/>
	<path class="st8" d="M275,68.5c0,0,0.5,0.2,1.2,0.5c0.8,0.3,1.8,0.8,3.1,1.4l-0.3,0.1c1.1-2.5,2.7-5.8,4.4-9.4
		c-0.1-0.3,0.2,0.4,0.1,0.3h-0.1l-0.1-0.1l-0.3-0.1l-0.6-0.3c-0.4-0.2-0.7-0.3-1.1-0.5c-0.7-0.3-1.4-0.7-2.1-1l0.3-0.1
		c-1.3,2.7-2.4,5-3.3,6.6c-0.4,0.8-0.7,1.4-1,1.9C275.2,68.2,275.1,68.5,275,68.5c0,0,0.1-0.2,0.3-0.7c0.2-0.5,0.5-1.2,0.9-2
		c0.7-1.7,1.8-4.1,3.1-6.9l0.1-0.2l0.2,0.1c0.7,0.3,1.4,0.6,2.1,1c0.4,0.2,0.7,0.3,1.1,0.5l0.6,0.3l0.3,0.1l0.1,0.1h0.1
		c0-0.1,0.2,0.7,0.1,0.3c-1.7,3.7-3.3,7-4.5,9.4l-0.1,0.2l-0.2-0.1c-1.3-0.7-2.4-1.2-3.1-1.6C275.4,68.7,275,68.5,275,68.5z"/>
	<path class="st1" d="M283.4,56.1c-2.2-1-4.8-0.1-5.8,2.1l7.9,3.7C286.4,59.7,285.5,57.1,283.4,56.1z"/>
	<path class="st8" d="M283.4,56.1c0,0,0.2,0,0.5,0.2s0.7,0.4,1.1,0.9s0.8,1.1,1,2c0.2,0.8,0.1,1.9-0.3,2.8l-0.1,0.2l-0.2-0.1
		c-1.2-0.6-2.6-1.2-3.9-1.8c-1.4-0.7-2.7-1.3-3.9-1.9l-0.2-0.1l0.1-0.2c0.5-1,1.2-1.7,2-2c0.8-0.4,1.6-0.5,2.2-0.5s1.1,0.2,1.4,0.3
		C283.2,56,283.4,56.1,283.4,56.1c0,0.1-0.7-0.3-1.8-0.3c-0.6,0-1.3,0.2-2,0.5c-0.7,0.4-1.3,1-1.8,1.9l-0.1-0.3
		c1.2,0.6,2.6,1.2,3.9,1.8c1.4,0.7,2.7,1.3,3.9,1.9l-0.3,0.1c0.4-0.9,0.5-1.8,0.4-2.6s-0.5-1.4-0.8-1.9
		C284,56.4,283.3,56.2,283.4,56.1L283.4,56.1z"/>
	<path class="st1" d="M283.5,58.6c0.3-1-0.1-2.1-0.9-2.8"/>
	<path class="st8" d="M282.6,55.8c0.1-0.1,0.8,0.3,1.1,1.2c0.3,0.9-0.1,1.7-0.2,1.6c-0.1,0,0-0.7-0.3-1.4
		C283,56.4,282.5,55.9,282.6,55.8z M278.6,60.4c0.1-0.1,1.1,0.4,2.3,0.9c1.2,0.6,2.3,0.9,2.2,1.1c0,0.1-1.2,0-2.4-0.6
		C279.4,61.3,278.6,60.5,278.6,60.4z M278.1,61.5c0.1-0.1,1.1,0.4,2.3,0.9c1.2,0.6,2.3,0.9,2.2,1.1c0,0.1-1.2,0-2.4-0.6
		C278.9,62.4,278,61.6,278.1,61.5z M277.6,62.6c0.1-0.1,1.1,0.4,2.3,0.9c1.2,0.6,2.3,0.9,2.2,1.1c0,0.1-1.2,0-2.4-0.6
		C278.4,63.5,277.5,62.7,277.6,62.6z M277.1,63.7c0.1-0.1,1.1,0.4,2.3,0.9c1.2,0.6,2.3,0.9,2.2,1.1c0,0.1-1.2,0-2.4-0.6
		C277.9,64.6,277,63.8,277.1,63.7z M276.5,64.8c0.1-0.1,1.1,0.4,2.3,0.9c1.2,0.6,2.3,0.9,2.2,1.1c0,0.1-1.2,0-2.4-0.6
		C277.3,65.7,276.5,65,276.5,64.8z M276,65.9c0.1-0.1,1.1,0.4,2.3,0.9c1.2,0.6,2.3,0.9,2.2,1.1c0,0.1-1.2,0-2.4-0.6
		C276.8,66.8,275.9,66.1,276,65.9z M275.5,67c0.1-0.1,1.1,0.4,2.3,0.9c1.2,0.6,2.3,0.9,2.2,1.1c0,0.1-1.2,0-2.4-0.6
		C276.3,67.9,275.4,67.2,275.5,67z"/>
	<path class="st1" d="M171.3,144.6l9.5-4.3l1.9,4.3l-9.5,4.3L171.3,144.6z"/>
	<path class="st8" d="M182.8,144.6c0,0-0.3-0.4-0.6-1.2c-0.4-0.7-0.9-1.8-1.5-3l0.2,0.1c-2.4,1.2-5.8,2.7-9.5,4.4
		c-0.1,0.3,0.2-0.4,0.1-0.3v0.1l0.1,0.1l0.1,0.3l0.3,0.6c0.2,0.4,0.3,0.7,0.5,1.1l0.9,2.1l-0.3-0.1c2.7-1.2,5.1-2.2,6.8-3
		c0.8-0.3,1.5-0.6,2-0.8C182.5,144.7,182.7,144.6,182.8,144.6c0,0-0.2,0.1-0.6,0.4c-0.5,0.3-1.2,0.6-1.9,0.9c-1.7,0.8-4,1.9-6.8,3.2
		l-0.2,0.1l-0.1-0.2c-0.3-0.7-0.6-1.4-1-2.1c-0.2-0.4-0.3-0.7-0.5-1.1l-0.3-0.6l-0.1-0.3l-0.1-0.1v-0.1c0,0.1,0.2-0.7,0.1-0.3
		c3.7-1.7,7.1-3.2,9.5-4.2l0.2-0.1l0.1,0.2c0.6,1.4,1.1,2.5,1.4,3.2C182.7,144.2,182.8,144.6,182.8,144.6L182.8,144.6z"/>
	<path class="st1" d="M168.4,148.7c1,2.2,3.6,3.2,5.8,2.2l-3.6-7.9C168.4,143.9,167.4,146.5,168.4,148.7z"/>
	<path class="st8" d="M168.4,148.7c0,0-0.1-0.1-0.3-0.4c-0.1-0.3-0.3-0.8-0.3-1.4c0-0.6,0.1-1.4,0.5-2.2s1.1-1.5,2.1-2l0.2-0.1
		l0.1,0.2c0.6,1.2,1.2,2.6,1.8,4s1.2,2.7,1.8,4l0.1,0.2l-0.2,0.1c-1,0.4-2,0.5-2.8,0.3c-0.9-0.2-1.5-0.6-2-1s-0.7-0.8-0.9-1.1
		C168.4,148.9,168.4,148.7,168.4,148.7c0.1,0,0.3,0.7,1.2,1.4c0.5,0.4,1.1,0.7,1.9,0.9c0.8,0.2,1.7,0.1,2.6-0.3L174,151
		c-0.6-1.2-1.2-2.6-1.8-4s-1.2-2.7-1.8-4l0.3,0.1c-0.9,0.4-1.5,1-1.9,1.7s-0.6,1.4-0.6,2C168.1,148,168.5,148.7,168.4,148.7
		L168.4,148.7z"/>
	<path class="st1" d="M169.9,146.7c-0.9,0.6-1.3,1.7-1.1,2.7"/>
	<path class="st8" d="M168.8,149.4c-0.1,0.1-0.4-0.7-0.1-1.6c0.4-0.9,1.2-1.2,1.2-1.1c0.1,0.1-0.4,0.6-0.7,1.3
		S168.9,149.4,168.8,149.4L168.8,149.4z M174.8,148.5c-0.1,0-0.6-1-1.1-2.2c-0.6-1.2-1.1-2.2-1-2.3s0.9,0.8,1.5,2
		C174.7,147.3,174.9,148.4,174.8,148.5z M175.9,147.9c-0.1,0-0.6-1-1.1-2.2c-0.6-1.2-1.1-2.2-1-2.3s0.9,0.8,1.5,2
		C175.8,146.8,176,147.9,175.9,147.9z M177,147.4c-0.1,0-0.6-1-1.1-2.2c-0.6-1.2-1.1-2.2-1-2.3s0.9,0.8,1.5,2
		C177,146.3,177.2,147.4,177,147.4z M178.1,146.9c-0.1,0-0.6-1-1.1-2.2c-0.6-1.2-1.1-2.2-1-2.3s0.9,0.8,1.5,2
		C178.1,145.8,178.3,146.9,178.1,146.9z M179.2,146.4c-0.1,0-0.6-1-1.1-2.2c-0.6-1.2-1.1-2.2-1-2.3s0.9,0.8,1.5,2
		C179.2,145.3,179.4,146.4,179.2,146.4z M180.4,145.9c-0.1,0-0.6-1-1.1-2.2c-0.6-1.2-1.1-2.2-1-2.3s0.9,0.8,1.5,2
		C180.3,144.8,180.5,145.9,180.4,145.9z M181.5,145.4c-0.1,0-0.6-1-1.1-2.2c-0.6-1.2-1.1-2.2-1-2.3s0.9,0.8,1.5,2
		C181.4,144.3,181.6,145.4,181.5,145.4z"/>
	<path class="st9" d="M201.5,22.7c0,0,12.1,12,15.1,19.4c2.9,7.1,4.8,13.7,4.8,13.7s3.1-5.5,6.6,0s20.1,71.8,22.8,96.7h10.6
		c0,0-4.9-41.7-7.3-46.4c-2.3-4.7-4.3-6.2-4.3-6.2s-2.7-17.6-4.7-20.3s-4.3-3.9-4.3-3.9s-3.5-19.1-8.6-23s-9-2-9-2
		S220.1,30.4,201.5,22.7L201.5,22.7z"/>
	<path class="st7" d="M300.7,111.3c0,0.2-3.3,0.7-7,2.4s-6.3,3.9-6.4,3.7c0,0,0.5-0.7,1.6-1.5s2.7-1.9,4.6-2.7
		c1.9-0.9,3.7-1.4,5.1-1.7C299.8,111.3,300.7,111.2,300.7,111.3L300.7,111.3z M300.3,109.2c0,0.2-3.3,1-7.1,3.1
		c-3.7,2.1-6.3,4.4-6.4,4.3c0,0,0.5-0.7,1.6-1.6s2.6-2.1,4.5-3.1s3.7-1.8,5.1-2.2C299.4,109.3,300.2,109.1,300.3,109.2z"/>
	<path class="st7" d="M298.2,114.3c0,0.2-2.2,0.2-4.8,0.9c-2.6,0.7-4.5,1.9-4.6,1.7c-0.1-0.1,1.8-1.5,4.4-2.2
		C296,114,298.2,114.2,298.2,114.3z"/>
	<path class="st8" d="M274.9,152.5c-1.8-14,2.8-30.4,14-38.3l2.7,2.2c0,0-13.9,8.3-12.9,36.2"/>
	<path class="st7" d="M217.4,132.3c0,0.2-2.6,0.7-5.4,2.4c-2.8,1.7-4.4,3.8-4.6,3.7c-0.1-0.1,1.4-2.4,4.3-4.2
		C214.6,132.5,217.4,132.2,217.4,132.3z M217.1,131.1c0,0.1-2.4,1-5.4,2.1s-5.4,2.1-5.5,2s2.3-1.3,5.3-2.5
		C214.5,131.6,217.1,131,217.1,131.1L217.1,131.1z"/>
	<path class="st8" d="M247.9,156l-4.8-1.3c0.7-2.8,0.3-6-1.3-8.5c-0.6-1-1.4-1.9-2.4-2.6c-0.5,3.2-2.5,6-5.3,7.1
		c-2.1,0.9-4.6,0.7-6.6-0.4c-1.9-1-3.2-2.8-3.6-4.7c-0.6-3,1-6.3,3.9-8c1.1-0.6,2.3-1.1,3.7-1.2c-0.1-0.1-0.2-0.2-0.4-0.3
		c-4.2-3.2-10.7-3.4-15.1-0.4l-2.8-4.1c6.2-4.2,15-4,20.9,0.6c1.9,1.5,3.4,3.3,4.3,5.2c3.1,1.2,5.9,3.5,7.6,6.3
		C248.3,147.2,249,151.8,247.9,156L247.9,156z M233,141.2c-1.1,0-2,0.2-2.8,0.7c-1,0.6-1.7,1.8-1.5,2.8c0.1,0.7,0.8,1.1,1.1,1.3
		c0.8,0.4,1.7,0.5,2.4,0.2c1.5-0.6,2.5-2.6,2.3-4.6v-0.2C234,141.2,233.5,141.2,233,141.2z"/>
	<path class="st9" d="M207.3,63.1c0,0,0.5,0.2,1.3,0.7c0.9,0.5,2,1.2,3.5,2.2c1.4,1,3.1,2.3,4.8,3.8s3.6,3.3,5.4,5.3
		c1.8,2,3.4,4,4.7,5.9s2.4,3.7,3.3,5.2c0.9,1.5,1.5,2.8,1.9,3.7c0.4,0.9,0.6,1.4,0.6,1.4s-0.3-0.5-0.8-1.3c-0.4-0.9-1.1-2.1-2-3.6
		s-2-3.2-3.3-5.1c-1.4-1.9-2.9-3.8-4.7-5.8s-3.6-3.7-5.3-5.2s-3.3-2.8-4.7-3.8s-2.6-1.8-3.4-2.4C207.8,63.4,207.3,63.1,207.3,63.1z"
		/>
	<path class="st8" d="M191.3,225h-0.8c-5,0-9-4-9-9v-32.6c0-5,4-9,9-9h0.8V225z M336.8,225h-0.9v-50.5h0.9c4.9,0,8.9,4,8.9,8.9v32.8
		C345.7,221.1,341.7,225,336.8,225z"/>
	<path class="st9" d="M324,274.7H202.8c-7.8,0-14.1-6.3-14.1-14.1v-81.8c0-7.8,6.3-14.1,14.1-14.1H324c7.8,0,14.1,6.3,14.1,14.1
		v81.8C338.1,268.3,331.8,274.7,324,274.7z"/>
	<path class="st10" d="M282.4,176.4c-18.9,0-34.2,15.3-34.2,34.2h68.5C316.6,191.7,301.3,176.4,282.4,176.4L282.4,176.4z"/>
	<path class="st1" d="M310,208.9h3.7c0.9,0,1.5,0.1,1.5,0.1s-0.6,0.1-1.5,0.1h-8.9h1.5C307.2,209,308.5,208.9,310,208.9L310,208.9z
		 M307.6,198.6c2.6-1.2,4.8-2.1,4.8-2c0.1,0.2-2,1.2-4.6,2.4s-4.8,2.1-4.8,2C302.9,200.9,305,199.8,307.6,198.6z M301.2,190.1
		c1.9-2.2,3.5-3.8,3.7-3.7c0.1,0.1-1.3,1.9-3.3,4c-1.9,2.1-3.6,3.8-3.7,3.7C297.8,194.1,299.3,192.3,301.2,190.1z M292,184.7
		c1-2.7,1.9-4.9,2.1-4.8c0.2,0.1-0.5,2.3-1.6,5c-1,2.7-2,4.8-2.1,4.8C290.3,189.6,291,187.4,292,184.7z M281.5,182.9
		c0-2.9,0.1-5.2,0.3-5.2c0.2,0,0.3,2.3,0.3,5.2s-0.1,5.2-0.3,5.2C281.6,188.1,281.5,185.8,281.5,182.9z M271,184.9
		c-1-2.7-1.7-4.9-1.6-5c0.2-0.1,1.1,2.1,2.1,4.8s1.7,4.9,1.6,5C273,189.7,272.1,187.6,271,184.9z M262,190.5c-1.9-2.1-3.4-3.9-3.3-4
		s1.8,1.5,3.7,3.7c1.9,2.2,3.4,4,3.3,4S263.9,192.6,262,190.5z M255.7,199c-2.6-1.2-4.7-2.3-4.6-2.4s2.2,0.7,4.8,2
		c2.6,1.2,4.7,2.3,4.6,2.4C260.5,201.1,258.3,200.2,255.7,199z M253.5,209.2h-3.7c-0.9,0-1.5-0.1-1.5-0.1s0.6-0.1,1.5-0.1h3.7
		c1.4,0,2.7,0.1,3.7,0.1h1.5h-1.5C256.3,209.2,255,209.2,253.5,209.2L253.5,209.2z"/>
	<path class="st10" d="M225.3,182.3c0,2.5-2,4.5-4.5,4.5s-4.5-2-4.5-4.5s2-4.5,4.5-4.5S225.3,179.8,225.3,182.3z"/>
	<path class="st7" d="M225.3,196.1c0,2.5-2,4.5-4.5,4.5s-4.5-2-4.5-4.5s2-4.5,4.5-4.5C223.3,191.5,225.3,193.5,225.3,196.1z"/>
	<path class="st8" d="M311.4,265.2v-12.8c0-8.1-0.1-19.8-0.1-34.3l0.2,0.2c-24.5,0-57.2,0-93.2,0.1l0.3-0.3v47l-0.2-0.2
		c27.2,0,50.4,0.1,66.9,0.1c8.2,0,14.8,0.1,19.3,0.1h6.5C311.3,265.2,311.4,265.2,311.4,265.2h-6.8c-4.5,0-11,0-19.2,0.1
		c-16.5,0-39.8,0.1-67.1,0.1h-0.2v-47.5h0.3c35.9,0,68.7,0,93.2,0.1h0.2v0.2c0,14.5-0.1,26.3-0.1,34.4v11.7
		C311.4,264.9,311.4,265.2,311.4,265.2L311.4,265.2z M316.4,281.3H210.3c-3.4,0-6.2-2.8-6.2-6.2v-0.6h118.6v0.6
		C322.7,278.5,319.9,281.3,316.4,281.3L316.4,281.3z"/>
	<path class="st11" d="M301.5,224.8c-0.2,1.3,0.7,2.6,1.9,3c1.2,0.4,2.7-0.2,3.4-1.2c0.7-1.1,0.7-2.6,0-3.7c0,0.8-0.2,1.7-0.8,2.3
		c-0.6,0.6-1.4,1-2.3,0.9s-1.6-0.8-1.7-1.6"/>
	<path class="st1" d="M306.8,223.7c0,1.5-1.2,2.8-2.8,2.8c-1.5,0-2.8-1.2-2.8-2.8c0-1.5,1.2-2.8,2.8-2.8
		C305.6,220.9,306.8,222.1,306.8,223.7z"/>
	<path class="st8" d="M306.8,223.7c0,0-0.1-0.2-0.2-0.6c-0.1-0.4-0.4-1-1-1.4s-1.5-0.7-2.4-0.3c-0.9,0.3-1.7,1.3-1.6,2.4
		c0,1.1,0.8,2.1,1.6,2.4c0.9,0.3,1.8,0.1,2.4-0.3c0.6-0.4,0.9-1,1-1.4C306.8,223.9,306.8,223.7,306.8,223.7c0,0,0.1,0.2,0,0.7
		c-0.1,0.4-0.3,1.1-1,1.6c-0.6,0.5-1.7,0.9-2.8,0.5c-1.1-0.3-2-1.5-2-2.8s0.9-2.5,2-2.8c1.1-0.4,2.2-0.1,2.8,0.5
		c0.7,0.5,0.9,1.2,1,1.6C306.9,223.4,306.8,223.7,306.8,223.7L306.8,223.7z"/>
	<path class="st8" d="M305.3,222.5c0.1,0.1-0.6,0.5-1.2,1.1s-0.9,1.3-1.1,1.2c-0.1,0,0-0.9,0.7-1.6
		C304.4,222.5,305.3,222.4,305.3,222.5z"/>
	<path class="st8" d="M305.3,224.5c-0.1,0.1-0.6-0.4-1.3-0.9c-0.7-0.5-1.3-0.7-1.3-0.8s0.8-0.1,1.6,0.4S305.4,224.5,305.3,224.5
		L305.3,224.5z"/>
	<path class="st11" d="M302.8,259c-0.2,1.3,0.7,2.6,1.9,3c1.2,0.4,2.7-0.2,3.4-1.2c0.7-1.1,0.7-2.6,0-3.7c0,0.8-0.2,1.7-0.8,2.3
		c-0.6,0.6-1.4,1-2.3,0.9c-0.8-0.1-1.6-0.8-1.7-1.6"/>
	<circle class="st1" cx="305.3" cy="257.9" r="2.8"/>
	<path class="st8" d="M308.1,257.9c0,0-0.1-0.2-0.2-0.7c-0.1-0.4-0.4-1-1-1.4s-1.5-0.7-2.4-0.3c-0.9,0.3-1.7,1.3-1.6,2.4
		c0,1.1,0.8,2.1,1.6,2.4c0.9,0.3,1.8,0.1,2.4-0.3s0.9-1,1-1.4C308.1,258.1,308.1,257.9,308.1,257.9s0.1,0.2,0,0.7
		c-0.1,0.4-0.3,1.1-1,1.6c-0.6,0.5-1.7,0.9-2.8,0.5c-1.1-0.3-2-1.5-2-2.8s0.9-2.5,2-2.8c1.1-0.4,2.2-0.1,2.8,0.5
		c0.7,0.5,0.9,1.2,1,1.6S308.1,257.9,308.1,257.9L308.1,257.9z"/>
	<path class="st8" d="M306.6,256.7c0.1,0.1-0.6,0.5-1.2,1.1s-0.9,1.3-1.1,1.2c-0.1,0,0-0.9,0.7-1.6S306.6,256.5,306.6,256.7z"/>
	<path class="st8" d="M306.6,258.7c-0.1,0.1-0.6-0.4-1.3-0.9c-0.7-0.5-1.3-0.7-1.3-0.8c0-0.1,0.8-0.1,1.6,0.4
		S306.7,258.7,306.6,258.7L306.6,258.7z"/>
	<path class="st11" d="M222.4,224.7c-0.2,1.3,0.7,2.6,1.9,3s2.7-0.2,3.4-1.2c0.7-1.1,0.7-2.6,0-3.7c0,0.8-0.2,1.7-0.8,2.3
		s-1.4,1-2.3,0.9c-0.8-0.1-1.6-0.8-1.7-1.6"/>
	<circle class="st1" cx="225" cy="223.6" r="2.8"/>
	<path class="st8" d="M227.7,223.6c0,0-0.1-0.2-0.2-0.7c-0.1-0.4-0.4-1-1-1.4s-1.5-0.7-2.4-0.3c-0.9,0.3-1.7,1.3-1.6,2.4
		c0,1.1,0.8,2.1,1.6,2.4c0.9,0.3,1.8,0.1,2.4-0.3c0.6-0.4,0.9-1,1-1.4C227.7,223.9,227.7,223.6,227.7,223.6s0.1,0.2,0,0.7
		c-0.1,0.4-0.3,1.1-1,1.6c-0.6,0.5-1.7,0.9-2.8,0.5c-1.1-0.3-2-1.5-2-2.8s0.9-2.5,2-2.8c1.1-0.4,2.2-0.1,2.8,0.5
		c0.7,0.5,0.9,1.2,1,1.6C227.8,223.4,227.8,223.6,227.7,223.6z"/>
	<path class="st8" d="M226.2,222.4c0.1,0.1-0.6,0.5-1.2,1.1c-0.6,0.6-0.9,1.3-1.1,1.2c-0.1,0,0-0.9,0.7-1.6
		C225.4,222.5,226.2,222.3,226.2,222.4z"/>
	<path class="st8" d="M226.2,224.5c-0.1,0.1-0.6-0.4-1.3-0.9s-1.3-0.7-1.3-0.8s0.8-0.1,1.6,0.4S226.4,224.4,226.2,224.5z"/>
	<path class="st11" d="M221.8,258.6c-0.2,1.3,0.7,2.6,1.9,3s2.7-0.2,3.4-1.2c0.7-1.1,0.7-2.6,0-3.7c0,0.8-0.2,1.7-0.8,2.3
		c-0.6,0.6-1.4,1-2.3,0.9c-0.8-0.1-1.6-0.8-1.7-1.6"/>
	<circle class="st1" cx="224.4" cy="257.5" r="2.8"/>
	<path class="st8" d="M227.1,257.5c0,0-0.1-0.2-0.2-0.6c-0.1-0.4-0.4-1-1-1.4s-1.5-0.7-2.4-0.3c-0.9,0.3-1.7,1.3-1.6,2.4
		c0,1.1,0.8,2.1,1.6,2.4c0.9,0.3,1.8,0.1,2.4-0.3c0.6-0.4,0.9-1,1-1.4C227.1,257.8,227.1,257.5,227.1,257.5c0,0,0.1,0.2,0,0.7
		c-0.1,0.4-0.3,1.1-1,1.6c-0.6,0.5-1.7,0.9-2.8,0.5c-1.1-0.3-2-1.5-2-2.8s0.9-2.5,2-2.8c1.1-0.4,2.2-0.1,2.8,0.5
		c0.7,0.5,0.9,1.2,1,1.6C227.2,257.3,227.2,257.5,227.1,257.5L227.1,257.5z"/>
	<path class="st8" d="M225.7,256.3c0.1,0.1-0.6,0.5-1.2,1.1c-0.6,0.6-0.9,1.3-1.1,1.2c-0.1,0,0-0.9,0.7-1.6
		C224.8,256.4,225.6,256.2,225.7,256.3z"/>
	<path class="st8" d="M225.7,258.4c-0.1,0.1-0.6-0.4-1.3-0.9s-1.3-0.7-1.3-0.8c0-0.1,0.8-0.1,1.6,0.4S225.8,258.3,225.7,258.4z"/>
	<path class="st11" d="M218.3,265.4c10.8,2.4,23.5,2.4,35.1,1.9c5.6-0.3,11.8-0.6,16.3,2.8c1,0.7,2.1,1.7,3.3,1.3
		c1.7-0.6,1.7-3.7,3.5-3.8c0.9,0,1.6,0.8,1.9,1.7c0.3,0.9,0.4,1.8,0.8,2.6c0.5,0.8,1.6,1.3,2.3,0.8c1.1-0.9-0.2-2.7,0.3-4.1
		c0.4-1.4,2.5-1.5,3.8-1c1.4,0.6,2.7,1.5,4.2,1.3c1.1-0.2,1.9-0.9,2.8-1.5c2.6-1.6,5.9-1.7,9-1.8c3.3-0.1,6.6-0.4,9.9-0.4
		L218.3,265.4L218.3,265.4z"/>
	<path class="st8" d="M292.8,230.1c0,0-0.2,0.1-0.5,0.2s-0.8,0.2-1.5,0.5c-1.2,0.5-2.9,1.4-4.9,2.8c-2,1.4-4.1,3.2-6.8,4.9
		c-1.4,0.8-2.9,1.5-4.6,1.9s-3.5,0.3-5.3,0.4c-3.6,0-6.8,1.5-9.6,3s-5.3,2.8-7.3,4.2c-2,1.3-3.4,2.6-4.3,3.6c-0.9,1-1.4,1.6-1.4,1.5
		c0,0,0.1-0.2,0.3-0.5s0.5-0.7,1-1.2c0.9-1,2.3-2.4,4.3-3.7c2-1.4,4.5-2.8,7.2-4.3c1.4-0.8,2.9-1.5,4.5-2.1s3.5-0.9,5.3-1
		s3.6,0,5.2-0.4s3.1-1.1,4.5-1.8c2.7-1.6,4.9-3.5,6.9-4.8c2-1.4,3.7-2.2,5-2.7c0.6-0.2,1.1-0.3,1.5-0.4
		C292.6,230.1,292.8,230.1,292.8,230.1L292.8,230.1z M269.1,238.1c0,0.1-1.1-0.1-2.9-0.4c-1.8-0.4-4.2-1.1-6.8-2.1
		c-2.6-1-4.8-2.2-6.3-3.2c-1.5-0.9-2.4-1.6-2.4-1.7c0-0.1,1,0.5,2.6,1.4s3.8,2,6.4,3c2.5,1,4.9,1.8,6.7,2.2
		C268,237.7,269.1,238,269.1,238.1L269.1,238.1z"/>
	<path class="st9" d="M284.1,205.4c0.8-0.4,23.2-7.6,23.2-7.6l-21.5,12L284.1,205.4z"/>
	<path class="st8" d="M281.8,203c-4.2,0-7.6,3.4-7.6,7.6h15.2C289.4,206.4,286,203,281.8,203z M205.3,274.4
		c-0.1,0-0.3-24.4-0.3-54.5s0.1-54.5,0.3-54.5c0.1,0,0.3,24.4,0.3,54.5S205.5,274.4,205.3,274.4z M324.2,274.4
		c-0.1,0-0.3-24.4-0.3-54.5s0.1-54.5,0.3-54.5c0.1,0,0.3,24.4,0.3,54.5S324.3,274.4,324.2,274.4z"/>
	<circle class="st8" cx="200.4" cy="179" r="1.2"/>
	<circle class="st8" cx="200.4" cy="200.9" r="1.2"/>
	<circle class="st8" cx="200.4" cy="222.7" r="1.2"/>
	<circle class="st8" cx="200.4" cy="244.6" r="1.2"/>
	<circle class="st8" cx="200.4" cy="266.5" r="1.2"/>
	<circle class="st8" cx="330.3" cy="179" r="1.2"/>
	<circle class="st8" cx="330.3" cy="200.9" r="1.2"/>
	<circle class="st8" cx="330.3" cy="222.7" r="1.2"/>
	<circle class="st8" cx="330.3" cy="244.6" r="1.2"/>
	<circle class="st8" cx="330.3" cy="266.5" r="1.2"/>
	<path class="st7" d="M234.3,152.6h51.1v12h-51.1L234.3,152.6z"/>
	<path class="st8" d="M238,164.7c-0.1,0-0.3-2.6-0.3-5.8s0.1-5.8,0.3-5.8c0.1,0,0.3,2.6,0.3,5.8C238.2,162.1,238.1,164.7,238,164.7z
		 M243.2,164.7c-0.1,0-0.3-2.6-0.3-5.8s0.1-5.8,0.3-5.8c0.1,0,0.3,2.6,0.3,5.8S243.4,164.7,243.2,164.7z M248.5,164.7
		c-0.1,0-0.3-2.6-0.3-5.8s0.1-5.8,0.3-5.8c0.1,0,0.3,2.6,0.3,5.8C248.7,162.1,248.6,164.7,248.5,164.7z M253.7,164.7
		c-0.1,0-0.3-2.6-0.3-5.8s0.1-5.8,0.3-5.8c0.1,0,0.3,2.6,0.3,5.8S253.9,164.7,253.7,164.7z M259,164.7c-0.1,0-0.3-2.6-0.3-5.8
		s0.1-5.8,0.3-5.8s0.3,2.6,0.3,5.8C259.2,162.1,259.1,164.7,259,164.7z M264.2,164.7c-0.1,0-0.3-2.6-0.3-5.8s0.1-5.8,0.3-5.8
		s0.3,2.6,0.3,5.8S264.4,164.7,264.2,164.7z M269.5,164.7c-0.1,0-0.3-2.6-0.3-5.8s0.1-5.8,0.3-5.8c0.1,0,0.3,2.6,0.3,5.8
		C269.7,162.1,269.6,164.7,269.5,164.7z M274.7,164.7c-0.1,0-0.3-2.6-0.3-5.8s0.1-5.8,0.3-5.8s0.3,2.6,0.3,5.8
		S274.9,164.7,274.7,164.7z M280,164.7c-0.1,0-0.3-2.6-0.3-5.8s0.1-5.8,0.3-5.8s0.3,2.6,0.3,5.8C280.2,162.1,280.1,164.7,280,164.7z
		"/>
	<path class="st11" d="M345.7,190.8c1.2,6.3,2.4,12.2,3.6,18.4c-1.2,0.1-3.6,0-3.6,0V190.8"/>
	<path class="st10" d="M192.1,176.4c0.1,0,0,18.7-0.3,41.7s-0.7,41.7-0.9,41.7c-0.1,0,0-18.7,0.3-41.7
		C191.6,195.1,192,176.4,192.1,176.4z M213.9,262.4c-0.1,0-0.3-9.3-0.3-20.8s0.1-20.8,0.3-20.8c0.1,0,0.3,9.3,0.3,20.8
		C214.1,253.1,214,262.4,213.9,262.4z M312.1,168c0,0.1-22.9,0.3-51.2,0.3s-51.2-0.1-51.2-0.3c0-0.1,22.9-0.3,51.2-0.3
		C289.2,167.8,312.1,167.9,312.1,168z"/>
</g>
<path id="Floor" class="st8" d="M462.6,355.5c0,0.1-95.2,0.3-212.6,0.3s-212.6-0.1-212.6-0.3c0-0.1,95.2-0.3,212.6-0.3
	S462.6,355.4,462.6,355.5z"/>
</svg>
