<?xml version="1.0" encoding="UTF-8"?>
<svg id="Layer_1" data-name="Layer 1" xmlns="http://www.w3.org/2000/svg" xmlns:xlink="http://www.w3.org/1999/xlink" viewBox="0 0 300 300">
  <defs>
    <style>
      .cls-1 {
        stroke: url(#linear-gradient);
      }

      .cls-1, .cls-2, .cls-3 {
        fill: none;
        stroke-linecap: round;
        stroke-linejoin: round;
        stroke-width: 7px;
      }

      .cls-2 {
        stroke: url(#linear-gradient-2);
      }

      .cls-3 {
        stroke: #00bbbe;
      }
    </style>
    <linearGradient id="linear-gradient" x1="100.1" y1="157.13" x2="163.44" y2="93.79" gradientUnits="userSpaceOnUse">
      <stop offset=".07" stop-color="#00bbbe"/>
      <stop offset=".08" stop-color="#01b8bd"/>
      <stop offset=".29" stop-color="#4274a8"/>
      <stop offset=".44" stop-color="#6a499b"/>
      <stop offset=".52" stop-color="#7a3996"/>
      <stop offset=".59" stop-color="#8a3f90"/>
      <stop offset=".75" stop-color="#b45181"/>
      <stop offset=".94" stop-color="#f26b6b"/>
    </linearGradient>
    <linearGradient id="linear-gradient-2" x1="26.54" y1="273.46" x2="273.46" y2="26.54" xlink:href="#linear-gradient"/>
  </defs>
  <g id="icons">
    <g>
      <path class="cls-1" d="m113.54,164.53c-1.44,0-2.62-1.18-2.62-2.62v-72.91c0-.4.1-.81.28-1.17.45-.89,1.35-1.45,2.35-1.45.41,0,.8.09,1.17.28l72.91,36.46c.51.25.92.66,1.17,1.17.31.63.36,1.34.14,2-.22.66-.69,1.2-1.31,1.51l-72.91,36.46c-.36.18-.77.28-1.17.28Z"/>
      <line class="cls-3" x1="290" y1="204.21" x2="10" y2="204.21"/>
      <g>
        <line class="cls-3" x1="75.96" y1="204.21" x2="27.34" y2="252.83"/>
        <line class="cls-3" x1="141.53" y1="204.21" x2="92.91" y2="252.83"/>
        <line class="cls-3" x1="207.09" y1="204.21" x2="158.47" y2="252.83"/>
        <line class="cls-3" x1="272.66" y1="204.21" x2="224.04" y2="252.83"/>
      </g>
      <rect class="cls-2" x="10" y="46.71" width="280" height="206.58" rx="2.25" ry="2.25"/>
    </g>
  </g>
</svg>