<?xml version="1.0" encoding="utf-8"?>
<!-- Generator: Adobe Illustrator 28.0.0, SVG Export Plug-In . SVG Version: 6.00 Build 0)  -->
<svg version="1.1" id="Layer_1" xmlns="http://www.w3.org/2000/svg" xmlns:xlink="http://www.w3.org/1999/xlink" x="0px" y="0px"
	 viewBox="0 0 300 300" style="enable-background:new 0 0 300 300;" xml:space="preserve">
<style type="text/css">
	.st0{fill:none;stroke:#00BBBE;stroke-width:7;stroke-linecap:round;stroke-linejoin:round;}
	.st1{fill:none;stroke:url(#SVGID_1_);stroke-width:7;stroke-linecap:round;stroke-linejoin:round;}
</style>
<g>
	<path class="st0" d="M290,92.8v142c0,14.7-11.9,26.6-26.6,26.6H36.6c-14.7,0-26.6-11.9-26.6-26.6v-142c0-14.7,11.9-26.6,26.6-26.6
		h51v-4.3c0-12.9,10.4-23.3,23.3-23.3h78.1c12.9,0,23.3,10.4,23.3,23.3v4.3h51C278.1,66.2,290,78.1,290,92.8L290,92.8z"/>
	<circle class="st0" cx="248.8" cy="108" r="11.5"/>
	
		<linearGradient id="SVGID_1_" gradientUnits="userSpaceOnUse" x1="89.5147" y1="103.9556" x2="210.4689" y2="173.7938" gradientTransform="matrix(1 0 0 -1 0 302)">
		<stop  offset="7.000000e-02" style="stop-color:#00BBBE"/>
		<stop  offset="8.000000e-02" style="stop-color:#01B8BD"/>
		<stop  offset="0.29" style="stop-color:#4274A8"/>
		<stop  offset="0.44" style="stop-color:#6A499B"/>
		<stop  offset="0.52" style="stop-color:#7A3996"/>
		<stop  offset="0.59" style="stop-color:#8A3F90"/>
		<stop  offset="0.75" style="stop-color:#B45181"/>
		<stop  offset="0.94" style="stop-color:#F26B6B"/>
	</linearGradient>
	<path class="st1" d="M133,124.3c5.2-2.3,11-3.6,17-3.6s11.8,1.3,17,3.6c1.2,0.6,2.5,1.2,3.6,1.8c6.9,3.9,12.7,9.7,16.5,16.7
		c0.7,1.3,1.4,2.7,1.9,4.1c2.1,5,3.2,10.4,3.2,16.2 M112.9,183.5c4,7.3,10,13.2,17.4,17.1c1.4,0.7,2.9,1.4,4.4,2
		c4.8,1.9,10,2.9,15.4,2.9 M211.3,137.8c-0.9-2.2-1.9-4.3-3-6.4c-6-11-15-20.1-25.9-26.2c-1.9-1.1-3.8-2-5.7-2.9
		c-8.2-3.6-17.2-5.6-26.7-5.6s-18.5,2-26.7,5.6c-1.9,0.8-3.8,1.8-5.7,2.8c-10.9,6.1-19.9,15.2-25.9,26.1c-1.1,2-2.1,4.1-3,6.3
		c-3.3,7.8-5.1,16.4-5.1,25.4s1.8,17.6,5.1,25.4c0.9,2.2,2,4.4,3.1,6.5c6.2,11.4,15.7,20.7,27.2,26.8c2.2,1.2,4.5,2.2,6.8,3.1
		c7.5,2.9,15.6,4.5,24.1,4.5s16.6-1.6,24.1-4.5c2.3-0.9,4.6-2,6.8-3.1c11.5-6.1,21-15.4,27.2-26.8c1.1-2.1,2.2-4.3,3.1-6.5
		c3.3-7.8,5-16.4,5-25.4S214.5,145.6,211.3,137.8L211.3,137.8z"/>
</g>
</svg>
