<?xml version="1.0" encoding="utf-8"?>
<!-- Generator: Adobe Illustrator 28.0.0, SVG Export Plug-In . SVG Version: 6.00 Build 0)  -->
<svg version="1.1" id="Layer_1" xmlns="http://www.w3.org/2000/svg" xmlns:xlink="http://www.w3.org/1999/xlink" x="0px" y="0px"
	 viewBox="0 0 300 300" style="enable-background:new 0 0 300 300;" xml:space="preserve">
<style type="text/css">
	.st0{fill:none;stroke:url(#SVGID_1_);stroke-width:7;stroke-linecap:round;stroke-linejoin:round;}
	
		.st1{fill:none;stroke:url(#SVGID_00000155133863947605409100000010111363289390771619_);stroke-width:7;stroke-linecap:round;stroke-linejoin:round;}
	.st2{fill:none;stroke:#00BBBE;stroke-width:7;stroke-linecap:round;stroke-linejoin:round;}
</style>
<g>
	
		<linearGradient id="SVGID_1_" gradientUnits="userSpaceOnUse" x1="215.0501" y1="3429.2998" x2="253.7999" y2="3390.55" gradientTransform="matrix(1 0 0 1 0 -3236)">
		<stop  offset="7.000000e-02" style="stop-color:#00BBBE"/>
		<stop  offset="8.000000e-02" style="stop-color:#01B8BD"/>
		<stop  offset="0.29" style="stop-color:#4274A8"/>
		<stop  offset="0.44" style="stop-color:#6A499B"/>
		<stop  offset="0.52" style="stop-color:#7A3996"/>
		<stop  offset="0.59" style="stop-color:#8A3F90"/>
		<stop  offset="0.75" style="stop-color:#B45181"/>
		<stop  offset="0.94" style="stop-color:#F26B6B"/>
	</linearGradient>
	<polyline class="st0" points="208.2,181.5 226.9,200.1 258.8,164.5 	"/>
	
		<linearGradient id="SVGID_00000124876952615216814930000013923028708255646395_" gradientUnits="userSpaceOnUse" x1="193.102" y1="3453.8523" x2="273.8964" y2="3373.0476" gradientTransform="matrix(1 0 0 1 0 -3236)">
		<stop  offset="7.000000e-02" style="stop-color:#00BBBE"/>
		<stop  offset="8.000000e-02" style="stop-color:#01B8BD"/>
		<stop  offset="0.29" style="stop-color:#4274A8"/>
		<stop  offset="0.44" style="stop-color:#6A499B"/>
		<stop  offset="0.52" style="stop-color:#7A3996"/>
		<stop  offset="0.59" style="stop-color:#8A3F90"/>
		<stop  offset="0.75" style="stop-color:#B45181"/>
		<stop  offset="0.94" style="stop-color:#F26B6B"/>
	</linearGradient>
	
		<path style="fill:none;stroke:url(#SVGID_00000124876952615216814930000013923028708255646395_);stroke-width:7;stroke-linecap:round;stroke-linejoin:round;" d="
		M279,147.1V188c0,10.3-2.7,22.4-12.8,32.6c-9.1,9.1-32.7,19.4-32.7,19.4s-23.5-10.4-32.7-19.4C190.7,210.4,188,198.2,188,188v-40.9
		c0,0,25.2-0.3,45.5-20.5C253.8,146.8,279,147.1,279,147.1z"/>
</g>
<g>
	<path class="st2" d="M233.6,107V29c0-13.2-4.9-19-19-19H89.9"/>
	<path class="st2" d="M21.4,78.5h49.5c13.2,0,19-6.7,19-19V10L21.4,78.5L21.4,78.5z"/>
	<line class="st2" x1="188.2" y1="65.3" x2="129.8" y2="65.3"/>
	<line class="st2" x1="144.1" y1="117.7" x2="63.4" y2="117.7"/>
	<line class="st2" x1="144.1" y1="148.2" x2="63.4" y2="148.2"/>
	<line class="st2" x1="144.1" y1="178.6" x2="63.4" y2="178.6"/>
	<line class="st2" x1="103.8" y1="209" x2="63.4" y2="209"/>
	<path class="st2" d="M233.5,258.5v7v0.5v4c0,12.8-3.6,19-19,19H40.4c-12.2,0-19-5.9-19-19V78.5"/>
</g>
</svg>
