<?xml version="1.0" encoding="utf-8"?>
<!-- Generator: Adobe Illustrator 28.0.0, SVG Export Plug-In . SVG Version: 6.00 Build 0)  -->
<svg version="1.1" id="Layer_1" xmlns="http://www.w3.org/2000/svg" xmlns:xlink="http://www.w3.org/1999/xlink" x="0px" y="0px"
	 viewBox="0 0 300 300" style="enable-background:new 0 0 300 300;" xml:space="preserve">
<style type="text/css">
	.st0{fill:none;stroke:#00BBBE;stroke-width:7;stroke-linecap:round;stroke-linejoin:round;}
	.st1{fill:none;stroke:url(#SVGID_1_);stroke-width:7;stroke-linecap:round;stroke-linejoin:round;}
</style>
<g>
	<path class="st0" d="M172.5,41.3v8.9c0,5.6-4.5,10.1-10.1,10.1H81.6c-5.6,0-10.1-4.5-10.1-10.1v-8.9c0-5.6,4.5-10.1,10.1-10.1h10.8
		c4.4,0,8.2-2.8,9.6-7c2.9-8.3,10.8-14.2,20-14.2s17.1,5.9,20,14.2c1.4,4.1,5.2,7,9.6,7h10.8C168,31.2,172.5,35.7,172.5,41.3
		L172.5,41.3L172.5,41.3z"/>
	<g>
		<line class="st0" x1="194.9" y1="101.1" x2="85.4" y2="101.1"/>
		<line class="st0" x1="146.6" y1="139.5" x2="85.4" y2="139.5"/>
		<line class="st0" x1="139.4" y1="177.8" x2="85.4" y2="177.8"/>
		<line class="st0" x1="139.4" y1="216.2" x2="85.4" y2="216.2"/>
	</g>
	<g>
		<rect x="43.4" y="92.3" class="st0" width="17.7" height="17.7"/>
		<rect x="43.4" y="130.6" class="st0" width="17.7" height="17.7"/>
		<rect x="43.4" y="169" class="st0" width="17.7" height="17.7"/>
		<rect x="43.4" y="207.3" class="st0" width="17.7" height="17.7"/>
	</g>
	<path class="st0" d="M225.9,242.5v23l-0.1,0.5c0,13.2-10.7,24-24,24H41c-13.3,0-24-10.8-24-24V68.4c0-13.3,10.7-24,24-24h30.5v5.8
		c0,5.6,4.5,10.1,10.1,10.1h80.8c5.6,0,10.1-4.5,10.1-10.1v-5.8h29.3c13.3,0,24,10.7,24,24v52.1"/>
</g>
<linearGradient id="SVGID_1_" gradientUnits="userSpaceOnUse" x1="163.62" y1="1801.2817" x2="284.0626" y2="1801.2817" gradientTransform="matrix(1 0 0 1 0 -1618)">
	<stop  offset="7.000000e-02" style="stop-color:#00BBBE"/>
	<stop  offset="0.52" style="stop-color:#7A3996"/>
	<stop  offset="0.94" style="stop-color:#F26B6B"/>
</linearGradient>
<path class="st1" d="M175.1,211.9l72.8-72.8l20.1,20.1L195.2,232L175.1,211.9L175.1,211.9z M195.6,231.6l-20.1-20.1l-8.3,28.5
	L195.6,231.6z M268,159.3l8.4-8.4c5.5-5.5,5.5-14.5-0.1-20l0,0c-5.6-5.6-14.6-5.7-20-0.1l-8.4,8.4L268,159.3L268,159.3z"/>
</svg>
