<?xml version="1.0" encoding="UTF-8"?>
<svg id="Layer_1" data-name="Layer 1" xmlns="http://www.w3.org/2000/svg" xmlns:xlink="http://www.w3.org/1999/xlink" viewBox="0 0 300 300">
  <defs>
    <style>
      .cls-1 {
        stroke: url(#linear-gradient);
      }

      .cls-1, .cls-2 {
        fill: none;
        stroke-linecap: round;
        stroke-linejoin: round;
        stroke-width: 7px;
      }

      .cls-2 {
        stroke: #00bbbe;
      }
    </style>
    <linearGradient id="linear-gradient" x1="52.12" y1="265.75" x2="247.88" y2="69.99" gradientUnits="userSpaceOnUse">
      <stop offset=".07" stop-color="#00bbbe"/>
      <stop offset=".08" stop-color="#01b8bd"/>
      <stop offset=".29" stop-color="#4274a8"/>
      <stop offset=".44" stop-color="#6a499b"/>
      <stop offset=".52" stop-color="#7a3996"/>
      <stop offset=".59" stop-color="#8a3f90"/>
      <stop offset=".75" stop-color="#b45181"/>
      <stop offset=".94" stop-color="#f26b6b"/>
    </linearGradient>
  </defs>
  <path class="cls-1" d="m286.74,178.88c-17.13-61.78-23.88-115.61-68.54-115.61H81.8c-44.65,0-51.41,53.83-68.54,115.61-14.62,52.74,23.4,68.2,45.27,51.33,15.04-11.6,35.81-55,35.81-55h111.33s20.77,43.39,35.81,55c21.87,16.87,59.89,1.41,45.27-51.33Z"/>
  <line class="cls-2" x1="87.2" y1="97.77" x2="87.2" y2="133.07"/>
  <line class="cls-2" x1="69.55" y1="115.42" x2="104.85" y2="115.42"/>
  <path class="cls-2" d="m234.98,117.73c-1.22,0-2.2-.98-2.2-2.2s.98-2.2,2.2-2.2,2.2.98,2.2,2.2-.98,2.2-2.2,2.2Z"/>
  <path class="cls-2" d="m192.31,117.73c-1.21,0-2.2-.98-2.2-2.2s.98-2.2,2.2-2.2,2.2.98,2.2,2.2-.98,2.2-2.2,2.2Z"/>
  <circle class="cls-2" cx="213.65" cy="94.2" r="2.2"/>
  <path class="cls-2" d="m215.85,136.87c0,1.21-.98,2.2-2.2,2.2s-2.2-.99-2.2-2.2.98-2.2,2.2-2.2,2.2.98,2.2,2.2Z"/>
</svg>