<?xml version="1.0" encoding="utf-8"?>
<!-- Generator: Adobe Illustrator 28.0.0, SVG Export Plug-In . SVG Version: 6.00 Build 0)  -->
<svg version="1.1" id="Layer_1" xmlns="http://www.w3.org/2000/svg" xmlns:xlink="http://www.w3.org/1999/xlink" x="0px" y="0px"
	 viewBox="0 0 300 300" style="enable-background:new 0 0 300 300;" xml:space="preserve">
<style type="text/css">
	.st0{fill:none;stroke:#00BBBE;stroke-width:7;stroke-linecap:round;stroke-linejoin:round;}
	.st1{fill:none;stroke:url(#SVGID_1_);stroke-width:7;stroke-linecap:round;stroke-linejoin:round;}
</style>
<g>
	<path class="st0" d="M172.6,41.3v8.9c0,5.6-4.5,10.1-10.1,10.1H81.6c-5.6,0-10.1-4.5-10.1-10.1v-8.9c0-5.6,4.5-10.1,10.1-10.1h10.8
		c4.4,0,8.2-2.8,9.6-7c2.9-8.3,10.8-14.2,20-14.2s17.1,5.9,20,14.2c1.4,4.1,5.2,7,9.6,7h10.8C168.1,31.2,172.6,35.7,172.6,41.3
		C172.6,41.3,172.6,41.3,172.6,41.3z"/>
	<g>
		<line class="st0" x1="194.9" y1="101.1" x2="85.4" y2="101.1"/>
		<line class="st0" x1="146.6" y1="139.5" x2="85.4" y2="139.5"/>
		<line class="st0" x1="139.4" y1="177.8" x2="85.4" y2="177.8"/>
		<line class="st0" x1="139.4" y1="216.2" x2="85.4" y2="216.2"/>
	</g>
	<g>
		<rect x="43.5" y="92.3" class="st0" width="17.7" height="17.7"/>
		<rect x="43.5" y="130.6" class="st0" width="17.7" height="17.7"/>
		<rect x="43.5" y="169" class="st0" width="17.7" height="17.7"/>
		<rect x="43.5" y="207.3" class="st0" width="17.7" height="17.7"/>
	</g>
	<path class="st0" d="M225.9,258.5v7.5c0,13.2-10.7,24-24,24H41c-13.3,0-24-10.8-24-24V68.4c0-13.3,10.7-24,24-24h30.5v5.8
		c0,5.6,4.5,10.1,10.1,10.1h80.8c5.6,0,10.1-4.5,10.1-10.1v-5.8h29.3c13.3,0,24,10.7,24,24V107"/>
</g>
<linearGradient id="SVGID_1_" gradientUnits="userSpaceOnUse" x1="173.4846" y1="3449.3269" x2="277.8912" y2="3389.0447" gradientTransform="matrix(1 0 0 1 0 -3236)">
	<stop  offset="7.000000e-02" style="stop-color:#00BBBE"/>
	<stop  offset="8.000000e-02" style="stop-color:#01B8BD"/>
	<stop  offset="0.29" style="stop-color:#4274A8"/>
	<stop  offset="0.44" style="stop-color:#6A499B"/>
	<stop  offset="0.52" style="stop-color:#7A3996"/>
	<stop  offset="0.59" style="stop-color:#8A3F90"/>
	<stop  offset="0.75" style="stop-color:#B45181"/>
	<stop  offset="0.94" style="stop-color:#F26B6B"/>
</linearGradient>
<path class="st1" d="M225.6,158.2c14,0,25.2,11.3,25.2,25.3s-11.3,25.3-25.3,25.3s-25.3-11.3-25.3-25.3S211.7,158.2,225.6,158.2
	L225.6,158.2L225.6,158.2z M281.4,193.9c1.3-6.9,1.7-14,0.4-20.9l-12-1.2c-0.9-3.6-2.4-7.1-4.3-10.5l7.8-9.2
	c-4.1-6.2-9.2-11.4-15.3-15.5l-9.2,7.6c-3.4-2-6.8-3.5-10.4-4.5l-1-12.1c-3.6-0.7-7.4-1.1-11.3-1.1c-3.6,0-7.1,0.4-10.5,0.9l-1.2,12
	c-3.6,0.9-7.1,2.4-10.5,4.3l-9.2-7.8c-6.2,4.1-11.4,9.2-15.5,15.3l7.6,9.3c-2,3.4-3.5,6.9-4.5,10.4l-12,1
	c-1.5,7.6-1.9,15.2-0.4,22.6l12,1c1,3.6,2.5,7.1,4.5,10.4l-7.6,9.3c4.2,6.1,9.3,11.2,15.5,15.3l9.2-7.8c3.4,1.9,6.9,3.3,10.5,4.3
	l1.2,12c3.4,0.7,6.9,0.9,10.5,0.9c3.9,0,7.7-0.4,11.3-1.1l1-12.1c3.6-1,7.1-2.5,10.4-4.5l9.2,7.6c6.1-4.2,11.2-9.4,15.3-15.5
	l-7.8-9.2c1.9-3.4,3.3-6.9,4.3-10.5L281.4,193.9L281.4,193.9L281.4,193.9z"/>
</svg>
