<?xml version="1.0" encoding="utf-8"?>
<!-- Generator: Adobe Illustrator 28.0.0, SVG Export Plug-In . SVG Version: 6.00 Build 0)  -->
<svg version="1.1" id="Layer_1" xmlns="http://www.w3.org/2000/svg" xmlns:xlink="http://www.w3.org/1999/xlink" x="0px" y="0px"
	 viewBox="0 0 300 300" style="enable-background:new 0 0 300 300;" xml:space="preserve">
<style type="text/css">
	.st0{fill:none;stroke:#00BBBE;stroke-width:7;stroke-linecap:round;stroke-linejoin:round;}
	.st1{fill:none;stroke:url(#SVGID_1_);stroke-width:7;stroke-linecap:round;stroke-linejoin:round;}
</style>
<g>
	<path class="st0" d="M172.6,41.3v8.9c0,5.6-4.5,10.1-10.1,10.1H81.6c-5.6,0-10.1-4.5-10.1-10.1v-8.9c0-5.6,4.5-10.1,10.1-10.1h10.8
		c4.4,0,8.2-2.8,9.6-7c2.9-8.3,10.8-14.2,20-14.2s17.1,5.9,20,14.2c1.4,4.1,5.2,7,9.6,7h10.8C168.1,31.2,172.6,35.7,172.6,41.3
		C172.6,41.3,172.6,41.3,172.6,41.3z"/>
	<g>
		<line class="st0" x1="194.9" y1="101.1" x2="85.4" y2="101.1"/>
		<line class="st0" x1="146.6" y1="139.5" x2="85.4" y2="139.5"/>
		<line class="st0" x1="139.4" y1="177.8" x2="85.4" y2="177.8"/>
		<line class="st0" x1="139.4" y1="216.2" x2="85.4" y2="216.2"/>
	</g>
	<g>
		<rect x="43.5" y="92.3" class="st0" width="17.7" height="17.7"/>
		<rect x="43.5" y="130.6" class="st0" width="17.7" height="17.7"/>
		<rect x="43.5" y="169" class="st0" width="17.7" height="17.7"/>
		<rect x="43.5" y="207.3" class="st0" width="17.7" height="17.7"/>
	</g>
	<path class="st0" d="M225.9,258.5v7v0.5c0,13.2-10.7,24-24,24H41c-13.3,0-24-10.8-24-24V68.4c0-13.3,10.7-24,24-24h30.5v5.8
		c0,5.6,4.5,10.1,10.1,10.1h80.8c5.6,0,10.1-4.5,10.1-10.1v-5.8h29.3c13.3,0,24,10.7,24,24V107"/>
</g>
<linearGradient id="SVGID_1_" gradientUnits="userSpaceOnUse" x1="182.8148" y1="-1543.8848" x2="268.0548" y2="-1458.6348" gradientTransform="matrix(1 0 0 -1 0 -1318)">
	<stop  offset="7.000000e-02" style="stop-color:#00BBBE"/>
	<stop  offset="8.000000e-02" style="stop-color:#01B8BD"/>
	<stop  offset="0.29" style="stop-color:#4274A8"/>
	<stop  offset="0.44" style="stop-color:#6A499B"/>
	<stop  offset="0.52" style="stop-color:#7A3996"/>
	<stop  offset="0.59" style="stop-color:#8A3F90"/>
	<stop  offset="0.75" style="stop-color:#B45181"/>
	<stop  offset="0.94" style="stop-color:#F26B6B"/>
</linearGradient>
<path class="st1" d="M212.8,174.9v-12.2h-12.2 M229.4,159.2c11.8,1.7,20.8,11.8,20.8,24.1c0,13.5-10.9,24.4-24.3,24.4
	s-24.3-10.9-24.3-24.4c0-8.6,4.5-16.2,11.2-20.5 M280.9,193.7c1.3-7,1.7-13.9,0.4-20.9l-12-1.2c-0.9-3.6-2.3-7.2-4.3-10.5l7.8-9.2
	c-4.1-6.1-9.2-11.3-15.2-15.5l-9.3,7.6c-3.3-1.9-6.8-3.4-10.4-4.4l-1-11.9c-3.6-0.7-7.4-1.1-11.3-1.1c-3.5,0-7.1,0.4-10.4,0.9
	l-1.2,12c-3.6,0.9-7.1,2.4-10.5,4.3l-9.2-7.8c-6.1,4-11.3,9.2-15.5,15.2l7.6,9.3c-1.9,3.4-3.3,6.8-4.4,10.4l-12,1
	c-1.5,7.4-1.9,15.2-0.4,22.7l12,1c1,3.6,2.5,7.1,4.4,10.4l-7.6,9.3c4.1,6,9.4,11.2,15.5,15.2l9.2-7.8c3.3,1.9,6.9,3.2,10.5,4.3
	l1.2,12c3.3,0.6,6.9,0.9,10.4,0.9c3.9,0,7.6-0.4,11.3-1.1l1-12c3.6-1,7.1-2.5,10.4-4.4l9.3,7.6c6-4.1,11.2-9.4,15.2-15.5l-7.8-9.2
	c1.9-3.4,3.2-6.9,4.3-10.5L280.9,193.7L280.9,193.7"/>
</svg>
