<?xml version="1.0" encoding="utf-8"?>
<!-- Generator: Adobe Illustrator 28.0.0, SVG Export Plug-In . SVG Version: 6.00 Build 0)  -->
<svg version="1.1" id="GM_M0111" xmlns="http://www.w3.org/2000/svg" xmlns:xlink="http://www.w3.org/1999/xlink" x="0px" y="0px"
	 viewBox="0 0 561 561" style="enable-background:new 0 0 561 561;" xml:space="preserve">
<style type="text/css">
	.st0{fill:none;stroke:url(#SVGID_1_);stroke-miterlimit:10;stroke-dasharray:0,0,0,0,0,293.6287;}
	
		.st1{fill:none;stroke:url(#SVGID_00000167391290400974915830000003378193863262216576_);stroke-miterlimit:10;stroke-dasharray:0,0,0,0,0,369.2434;}
	
		.st2{fill:none;stroke:url(#SVGID_00000139273033312017251850000012573640312453798321_);stroke-miterlimit:10;stroke-dasharray:0,0,0,0,0,449.6564;}
	
		.st3{fill:none;stroke:url(#SVGID_00000051363583767633578470000008957468137836312494_);stroke-miterlimit:10;stroke-dasharray:0,0,0,0,0,532.6956;}
	
		.st4{fill:none;stroke:url(#SVGID_00000085948914359696893590000015930568060426638497_);stroke-miterlimit:10;stroke-dasharray:0,0,0,0,0,616.9475;}
	
		.st5{fill:none;stroke:url(#SVGID_00000018918046890425692760000018118853355740874141_);stroke-width:0.75;stroke-miterlimit:10;stroke-dasharray:0,0,0,0,0,702.5814;}
	
		.st6{fill:none;stroke:url(#SVGID_00000116917793464888149050000011530027770204682426_);stroke-miterlimit:10;stroke-dasharray:0,0,0,0,0,788.2211;}
	
		.st7{fill:none;stroke:url(#SVGID_00000012468798075898111280000008091080089299508882_);stroke-miterlimit:10;stroke-dasharray:0,0,0,0,0,874.7375;}
	
		.st8{fill:none;stroke:url(#SVGID_00000017475203443847492140000014174977423239855243_);stroke-miterlimit:10;stroke-dasharray:0,0,0,0,0,961.3537;}
	
		.st9{fill:none;stroke:url(#SVGID_00000080164707945313012990000008538949669148432026_);stroke-miterlimit:10;stroke-dasharray:0,0,0,0,0,1048.312;}
	
		.st10{fill:none;stroke:url(#SVGID_00000009582703320341117680000013084515025290717841_);stroke-miterlimit:10;stroke-dasharray:0,0,0,0,0,1134.9541;}
	
		.st11{fill:none;stroke:url(#SVGID_00000165954736633950813220000003970004995137307805_);stroke-width:0.75;stroke-miterlimit:10;stroke-dasharray:0,0,0,0,0,1222.2897;}
	
		.st12{fill:none;stroke:url(#SVGID_00000009586144104959715100000013399755063143006887_);stroke-width:0.75;stroke-miterlimit:10;stroke-dasharray:0,0,0,0,0,1309.6359;}
	
		.st13{fill:none;stroke:url(#SVGID_00000181806340997516694600000003512107144389368721_);stroke-width:0.5;stroke-miterlimit:10;stroke-dasharray:0,0,0,0,0,1396.9185;}
	
		.st14{fill:none;stroke:url(#SVGID_00000085959315942358369780000005440554616926147757_);stroke-width:0.5;stroke-miterlimit:10;stroke-dasharray:0,0,0,0,0,1484.1454;}
	
		.st15{fill:none;stroke:url(#SVGID_00000081647118390977560190000016564595128203571084_);stroke-width:0.25;stroke-miterlimit:10;stroke-dasharray:0,0,0,0,0,1571.7314;}
	
		.st16{fill:none;stroke:url(#SVGID_00000078758161646028028390000012719491746868197307_);stroke-width:0.25;stroke-miterlimit:10;stroke-dasharray:0,0,0,0,0,1658.8621;}
</style>
<linearGradient id="SVGID_1_" gradientUnits="userSpaceOnUse" x1="169.692" y1="361.816" x2="241.0272" y2="361.816" gradientTransform="matrix(1 0 0 -1 0 562)">
	<stop  offset="7.000000e-02" style="stop-color:#17BCC3"/>
	<stop  offset="0.3" style="stop-color:#5087B1"/>
	<stop  offset="0.49" style="stop-color:#7B60A4"/>
	<stop  offset="0.58" style="stop-color:#8C52A0"/>
	<stop  offset="0.66" style="stop-color:#9C599A"/>
	<stop  offset="0.81" style="stop-color:#C66C8B"/>
	<stop  offset="0.94" style="stop-color:#F1807C"/>
</linearGradient>
<path class="st0" d="M237.3,208.2c-6.7,7.9-13.9,15.6-21.6,23.3c-7.7,7.7-15.8,15.2-24.4,22.7c-7.1,7.1-19.4,2.1-19.4-8
	c-1.1-16-1.7-31.7-1.7-47s0.6-30.4,1.7-45c0-10.1,12.2-15.1,19.4-8c8.1,6.8,16,14.1,23.7,21.9c7.7,7.7,15.1,15.8,22.3,24.2
	C241.7,196.6,241.7,203.8,237.3,208.2z">
<animate  accumulate="none" additive="replace" attributeName="stroke-dasharray" attributeType="XML" begin="1.6253140583101775s" calcMode="linear" dur="9.836695652701268s" fill="remove" keyTimes="0; 0.16666666666666666; 0.3333; 0.6666; 0.8333; 1" repeatCount="indefinite" restart="always" values="0,0,0,0,0,293.62872314453125;            0,0,0,42.36557583932797,166.53199562654737,84.73115167865593;            0,0,97.87624104817708,0,195.75248209635416,293.62872314453125;            0,0,195.75248209635416,0,97.87624104817708,293.62872314453125;            0,0,244.69060262044272,48.93812052408854,0,0;            0,293.62872314453125,0,97.87624104817708,0,293.62872314453125">
		</animate>
</path>
<linearGradient id="SVGID_00000128477461926297127050000007148116907399814842_" gradientUnits="userSpaceOnUse" x1="161.9501" y1="357.0607" x2="256.97" y2="357.0607" gradientTransform="matrix(1 0 0 -1 0 562)">
	<stop  offset="7.000000e-02" style="stop-color:#17BCC3"/>
	<stop  offset="0.3" style="stop-color:#5087B1"/>
	<stop  offset="0.49" style="stop-color:#7B60A4"/>
	<stop  offset="0.58" style="stop-color:#8C52A0"/>
	<stop  offset="0.66" style="stop-color:#9C599A"/>
	<stop  offset="0.81" style="stop-color:#C66C8B"/>
	<stop  offset="0.94" style="stop-color:#F1807C"/>
</linearGradient>
<path style="fill:none;stroke:url(#SVGID_00000128477461926297127050000007148116907399814842_);stroke-miterlimit:10;stroke-dasharray:0,0,0,0,0,369.2434;" d="
	M167.4,149c0.7-11.6,14-17.5,23-10.6c6.5,4.3,12.6,9.2,18.6,14.3c3.6,3,7,6,10.5,9.1c3.5,2.8,7,5,10.7,7c2.9,1.6,5.8,3.2,8.7,4.9
	c2.1,1.2,4.1,2.4,6.2,3.9c4.6,3.2,7.9,7.4,9.8,12.2c0.1,0.1,0.1,0.3,0.2,0.5c1.1,2.5,1.5,5.1,1.5,7.9c-0.1,5.3-1.6,10.9-4,15.7
	c-2,3.7-3.8,7.5-5.8,11.1c-1.8,3.4-3.7,6.7-6,10.1c-2.8,4.2-6.3,8.1-10.1,11.8c-10.8,10.2-22.7,18.2-35.3,24.8
	c-10.4,6.4-25.1,0.3-27.9-11.6c-1.3-5.6-2.5-11.3-3.6-17.1c-1.2-6.5-1.5-13-1.3-19.5c0.2-6.2,0.7-12.2,1.3-18.1
	c0.3-2.5,0.6-5,0.8-7.5c0.8-6.5,1-13.2,1.1-19.8c0.1-5,0.2-10.1,0.4-15.1C166.3,159.4,166.7,153.5,167.4,149z">
<animate  accumulate="none" additive="replace" attributeName="stroke-dasharray" attributeType="XML" begin="0.5989354527965461s" calcMode="linear" dur="10.62201286532273s" fill="remove" keyTimes="0; 0.16666666666666666; 0.3333; 0.6666; 0.8333; 1" repeatCount="indefinite" restart="always" values="0,0,0,0,0,369.2434387207031;            0,0,0,52.921947748661985,210.4775954747172,105.84389549732397;            0,0,123.08114624023438,0,246.16229248046875,369.2434387207031;            0,0,246.16229248046875,0,123.08114624023438,369.2434387207031;            0,0,307.70286560058594,61.54057312011719,0,0;            0,369.2434387207031,0,123.08114624023438,0,369.2434387207031">
		</animate>
</path>
<linearGradient id="SVGID_00000178203441266896334160000016031091175649403527_" gradientUnits="userSpaceOnUse" x1="153.7429" y1="352.2717" x2="273.3922" y2="352.2717" gradientTransform="matrix(1 0 0 -1 0 562)">
	<stop  offset="7.000000e-02" style="stop-color:#17BCC3"/>
	<stop  offset="0.3" style="stop-color:#5087B1"/>
	<stop  offset="0.49" style="stop-color:#7B60A4"/>
	<stop  offset="0.58" style="stop-color:#8C52A0"/>
	<stop  offset="0.66" style="stop-color:#9C599A"/>
	<stop  offset="0.81" style="stop-color:#C66C8B"/>
	<stop  offset="0.94" style="stop-color:#F1807C"/>
</linearGradient>
<path style="fill:none;stroke:url(#SVGID_00000178203441266896334160000016031091175649403527_);stroke-miterlimit:10;stroke-dasharray:0,0,0,0,0,449.6564;" d="
	M162.8,143.9c1.4-13.1,15.9-19.8,26.6-13c7.7,4.2,15,9.4,22.2,15c4.2,3.2,8.3,6.5,12.4,9.8c4.8,3.4,9.8,5.9,14.9,7.6
	c4.1,1.4,8.2,2.8,12.3,4.3c2.9,1,5.9,2.3,8.8,3.9c6.6,3.6,10.8,9.3,12.2,16.2c0.1,0.2,0.1,0.4,0.2,0.6c0.8,3.5,0.7,7,0.2,10.6
	c-0.9,6.9-3,14.3-5,20.9c-1.7,4.9-3.1,9.7-4.7,14.6c-1.4,4.4-3.2,8.9-5.5,13.3c-2.9,5.6-7,10.6-11.9,15
	c-14,12.7-29.6,21.2-46.4,26.8c-13.6,5.5-30.8-1.6-36.5-15.1c-2.3-6.2-4.4-12.5-6.2-19.1c-2.1-7.4-2.5-14.9-2-22.5
	c0.6-7.1,1.7-14,2.9-20.8c0.6-3,1.1-5.9,1.7-8.9c1.6-7.9,1.9-15.8,1.9-23.8c0-6.1,0-12.2,0.2-18.2
	C161.4,157.3,161.8,149.1,162.8,143.9z">
<animate  accumulate="none" additive="replace" attributeName="stroke-dasharray" attributeType="XML" begin="0.7654029597668196s" calcMode="linear" dur="9.598222911240175s" fill="remove" keyTimes="0; 0.16666666666666666; 0.3333; 0.6666; 0.8333; 1" repeatCount="indefinite" restart="always" values="0,0,0,0,0,449.6563720703125;            0,0,0,58.517331935104096,274.1043762650002,117.03466387020819;            0,0,149.88545735677084,0,299.7709147135417,449.6563720703125;            0,0,299.7709147135417,0,149.88545735677084,449.6563720703125;            0,0,374.71364339192706,74.94272867838542,0,0;            0,449.6563720703125,0,149.88545735677084,0,449.6563720703125">
		</animate>
</path>
<linearGradient id="SVGID_00000042695045494031710250000001521021270843987862_" gradientUnits="userSpaceOnUse" x1="145.745" y1="346.4105" x2="290.5159" y2="346.4105" gradientTransform="matrix(1 0 0 -1 0 562)">
	<stop  offset="7.000000e-02" style="stop-color:#17BCC3"/>
	<stop  offset="0.3" style="stop-color:#5087B1"/>
	<stop  offset="0.49" style="stop-color:#7B60A4"/>
	<stop  offset="0.58" style="stop-color:#8C52A0"/>
	<stop  offset="0.66" style="stop-color:#9C599A"/>
	<stop  offset="0.81" style="stop-color:#C66C8B"/>
	<stop  offset="0.94" style="stop-color:#F1807C"/>
</linearGradient>
<path style="fill:none;stroke:url(#SVGID_00000042695045494031710250000001521021270843987862_);stroke-miterlimit:10;stroke-dasharray:0,0,0,0,0,532.6956;" d="
	M158.3,139.8c2.2-14.6,17.7-22.2,30.2-15.5c9,4.1,17.4,9.8,25.6,15.7c4.9,3.5,9.6,6.9,14.4,10.5c6.2,4,12.5,6.6,19.2,8.1
	c5.3,1.2,10.7,2.4,16,3.8c3.8,0.9,7.6,2.2,11.3,3.9c8.7,3.9,13.8,11.1,14.6,20.1c0,0.3,0.1,0.5,0.1,0.7c0.5,4.4-0.1,8.8-1,13.3
	c-1.9,8.6-4.4,17.6-6,26.1c-1.3,6-2.3,12-3.6,18c-1.1,5.5-2.6,10.9-5,16.5c-3,7-7.8,13-13.7,18.2c-17.2,15.2-36.6,24.2-57.3,28.9
	c-16.7,4.7-36.5-3.5-45-18.6c-3.4-6.6-6.3-13.7-8.9-21c-3-8.2-3.6-16.8-2.6-25.6c0.9-8.1,2.7-15.9,4.4-23.7
	c0.8-3.4,1.7-6.8,2.5-10.3c2.3-9.1,2.7-18.4,2.6-27.9c-0.1-7.1-0.2-14.3,0-21.4C156.4,156,157,145.7,158.3,139.8z">
<animate  accumulate="none" additive="replace" attributeName="stroke-dasharray" attributeType="XML" begin="0.26479196285953693s" calcMode="linear" dur="8.639103393346844s" fill="remove" keyTimes="0; 0.16666666666666666; 0.3333; 0.6666; 0.8333; 1" repeatCount="indefinite" restart="always" values="0,0,0,0,0,532.695556640625;            0,0,0,65.57761745507752,335.96270427539247,131.15523491015503;            0,0,177.565185546875,0,355.13037109375,532.695556640625;            0,0,355.13037109375,0,177.565185546875,532.695556640625;            0,0,443.9129638671875,88.7825927734375,0,0;            0,532.695556640625,0,177.565185546875,0,532.695556640625">
		</animate>
</path>
<linearGradient id="SVGID_00000048464471222475864880000001572853499273722514_" gradientUnits="userSpaceOnUse" x1="137.5064" y1="342.6489" x2="307.6674" y2="342.6489" gradientTransform="matrix(1 0 0 -1 0 562)">
	<stop  offset="7.000000e-02" style="stop-color:#17BCC3"/>
	<stop  offset="0.3" style="stop-color:#5087B1"/>
	<stop  offset="0.49" style="stop-color:#7B60A4"/>
	<stop  offset="0.58" style="stop-color:#8C52A0"/>
	<stop  offset="0.66" style="stop-color:#9C599A"/>
	<stop  offset="0.81" style="stop-color:#C66C8B"/>
	<stop  offset="0.94" style="stop-color:#F1807C"/>
</linearGradient>
<path style="fill:none;stroke:url(#SVGID_00000048464471222475864880000001572853499273722514_);stroke-miterlimit:10;stroke-dasharray:0,0,0,0,0,616.9475;" d="
	M153.7,133.6c2.9-16.1,19.5-24.5,33.8-18c10.3,4,19.8,10.1,29.2,16.5c5.5,3.6,10.9,7.4,16.4,11.2c7.5,4.7,15.3,7.4,23.5,8.7
	c6.5,1,13.1,2.1,19.6,3.3c4.7,0.8,9.4,2.1,13.9,3.9c10.8,4.4,16.8,13,17,23.9c0,0.3,0,0.6,0,0.9c0.2,5.3-0.9,10.6-2.3,15.9
	c-2.7,10.2-5.8,20.9-6.9,31.3c-1,7.1-1.6,14.2-2.5,21.3c-0.8,6.5-2.1,13-4.6,19.5c-3.1,8.3-8.5,15.4-15.4,21.4
	c-20.4,17.8-43.5,27.2-68.3,30.9c-19.9,3.8-42.2-5.2-53.6-22.2c-4.4-7.2-8.1-14.9-11.5-22.9c-3.9-9.2-4.7-18.7-3.3-28.7
	c1.2-9.1,3.6-17.7,6-26.4c1.1-3.8,2.2-7.8,3.4-11.7c3.2-10.4,3.6-21,3.4-31.9c-0.2-8.2-0.4-16.4-0.2-24.5
	C151.4,152.9,152.1,140.4,153.7,133.6z">
<animate  accumulate="none" additive="replace" attributeName="stroke-dasharray" attributeType="XML" begin="1.5359172317767922s" calcMode="linear" dur="8.669669834047266s" fill="remove" keyTimes="0; 0.16666666666666666; 0.3333; 0.6666; 0.8333; 1" repeatCount="indefinite" restart="always" values="0,0,0,0,0,616.947509765625;            0,0,0,78.34585291526274,381.9099510198368,156.69170583052548;            0,0,205.649169921875,0,411.29833984375,616.947509765625;            0,0,411.29833984375,0,205.649169921875,616.947509765625;            0,0,514.1229248046875,102.8245849609375,0,0;            0,616.947509765625,0,205.649169921875,0,616.947509765625">
		</animate>
</path>
<linearGradient id="SVGID_00000051377347565230980470000010033028686074935709_" gradientUnits="userSpaceOnUse" x1="129.5758" y1="337.6243" x2="324.8344" y2="337.6243" gradientTransform="matrix(1 0 0 -1 0 562)">
	<stop  offset="7.000000e-02" style="stop-color:#17BCC3"/>
	<stop  offset="0.3" style="stop-color:#5087B1"/>
	<stop  offset="0.49" style="stop-color:#7B60A4"/>
	<stop  offset="0.58" style="stop-color:#8C52A0"/>
	<stop  offset="0.66" style="stop-color:#9C599A"/>
	<stop  offset="0.81" style="stop-color:#C66C8B"/>
	<stop  offset="0.94" style="stop-color:#F1807C"/>
</linearGradient>
<path style="fill:none;stroke:url(#SVGID_00000051377347565230980470000010033028686074935709_);stroke-width:0.75;stroke-miterlimit:10;stroke-dasharray:0,0,0,0,0,702.5814;" d="
	M149.1,128.5c3.6-17.6,21.4-26.9,37.5-20.6c11.6,3.9,22.2,10.4,32.6,17.2c6.2,3.9,12.2,7.9,18.3,12c8.8,5.3,18,8.2,27.8,9.3
	c7.8,0.8,15.5,1.7,23.3,2.7c5.5,0.7,11,1.9,16.5,4c12.8,4.8,19.7,14.9,19.4,27.9c0,0.4,0,0.7,0,1.1c-0.2,6.3-1.8,12.3-3.6,18.6
	c-3.6,11.9-7.2,24.2-7.9,36.6c-0.7,8.3-0.9,16.5-1.4,24.7c-0.5,7.6-1.5,15.1-4.1,22.7c-3.3,9.7-9.3,17.8-17.2,24.7
	c-23.6,20.3-50.4,30.1-79.3,33c-23.1,3.1-47.9-7.1-62.1-25.7c-5.3-7.8-10-16.1-14.1-24.9c-4.9-10-5.7-20.7-3.9-31.7
	c1.6-10.1,4.6-19.5,7.5-29.1c1.4-4.3,2.7-8.7,4.2-13.1c3.9-11.6,4.4-23.7,4.1-35.9c-0.2-9.3-0.6-18.4-0.4-27.7
	C146.4,150.7,147.3,136,149.1,128.5z">
<animate  accumulate="none" additive="replace" attributeName="stroke-dasharray" attributeType="XML" begin="2.119057057544519s" calcMode="linear" dur="9.256828339122965s" fill="remove" keyTimes="0; 0.16666666666666666; 0.3333; 0.6666; 0.8333; 1" repeatCount="indefinite" restart="always" values="0,0,0,0,0,702.5814208984375;            0,0,0,88.2390284819863,437.86433545247866,176.4780569639726;            0,0,234.19380696614584,0,468.3876139322917,702.5814208984375;            0,0,468.3876139322917,0,234.19380696614584,702.5814208984375;            0,0,585.4845174153646,117.09690348307292,0,0;            0,702.5814208984375,0,234.19380696614584,0,702.5814208984375">
		</animate>
</path>
<linearGradient id="SVGID_00000047781925842572984270000005607575575884288413_" gradientUnits="userSpaceOnUse" x1="121.385" y1="332.846" x2="342.55" y2="332.846" gradientTransform="matrix(1 0 0 -1 0 562)">
	<stop  offset="7.000000e-02" style="stop-color:#17BCC3"/>
	<stop  offset="0.3" style="stop-color:#5087B1"/>
	<stop  offset="0.49" style="stop-color:#7B60A4"/>
	<stop  offset="0.58" style="stop-color:#8C52A0"/>
	<stop  offset="0.66" style="stop-color:#9C599A"/>
	<stop  offset="0.81" style="stop-color:#C66C8B"/>
	<stop  offset="0.94" style="stop-color:#F1807C"/>
</linearGradient>
<path style="fill:none;stroke:url(#SVGID_00000047781925842572984270000005607575575884288413_);stroke-miterlimit:10;stroke-dasharray:0,0,0,0,0,788.2211;" d="
	M144.6,123.3c4.3-19.2,23.2-29.3,41.1-23.1c12.8,3.9,24.6,10.8,36.2,17.9c6.7,4.2,13.6,8.4,20.2,12.7c10.2,6,20.9,9,32,9.7
	c9,0.7,18,1.3,26.9,2.2c6.5,0.6,12.8,1.8,19.1,4c15,5.2,22.7,16.7,21.8,31.8c0,0.4,0,0.8-0.1,1.2c-0.5,7.3-2.6,14.2-5,21.2
	c-4.5,13.6-8.6,27.6-8.9,41.8c-0.5,9.4-0.2,18.7-0.4,28.1c-0.1,8.6-1,17.2-3.6,25.9c-3.4,11.1-10,20.2-19,27.9
	c-26.7,22.8-57.3,33.1-90.3,35.1c-26.4,2.2-53.6-9-70.7-29.3c-6.4-8.2-11.9-17.3-16.8-26.8c-5.8-10.9-6.7-22.6-4.6-34.8
	c2-11,5.5-21.4,9.1-31.9c1.7-4.8,3.3-9.6,5-14.4c4.7-12.9,5.2-26.3,4.8-39.9c-0.3-10.3-0.7-20.6-0.5-30.8
	C141.5,148.6,142.4,131.7,144.6,123.3z">
<animate  accumulate="none" additive="replace" attributeName="stroke-dasharray" attributeType="XML" begin="1.178164978874171s" calcMode="linear" dur="8.5837006627094s" fill="remove" keyTimes="0; 0.16666666666666666; 0.3333; 0.6666; 0.8333; 1" repeatCount="indefinite" restart="always" values="0,0,0,0,0,788.2211303710938;            0,0,0,111.26305066806916,454.43197836688626,222.5261013361383;            0,0,262.74037679036456,0,525.4807535807291,788.2211303710938;            0,0,525.4807535807291,0,262.74037679036456,788.2211303710938;            0,0,656.8509419759115,131.37018839518228,0,0;            0,788.2211303710938,0,262.74037679036456,0,788.2211303710938">
		</animate>
</path>
<linearGradient id="SVGID_00000155826000086049778920000014178077274987358902_" gradientUnits="userSpaceOnUse" x1="113.2633" y1="327.7944" x2="360.0795" y2="327.7944" gradientTransform="matrix(1 0 0 -1 0 562)">
	<stop  offset="7.000000e-02" style="stop-color:#17BCC3"/>
	<stop  offset="0.3" style="stop-color:#5087B1"/>
	<stop  offset="0.49" style="stop-color:#7B60A4"/>
	<stop  offset="0.58" style="stop-color:#8C52A0"/>
	<stop  offset="0.66" style="stop-color:#9C599A"/>
	<stop  offset="0.81" style="stop-color:#C66C8B"/>
	<stop  offset="0.94" style="stop-color:#F1807C"/>
</linearGradient>
<path style="fill:none;stroke:url(#SVGID_00000155826000086049778920000014178077274987358902_);stroke-miterlimit:10;stroke-dasharray:0,0,0,0,0,874.7375;" d="
	M140.1,118.2c5-20.7,25.1-31.6,44.8-25.6c14.1,3.8,27,11,39.7,18.6c7.4,4.4,14.9,8.9,22.2,13.5c11.5,6.5,23.6,9.7,36.3,10.3
	c10.2,0.5,20.4,0.9,30.6,1.7c7.3,0.5,14.5,1.6,21.6,4c17,5.6,25.7,18.6,24.2,35.7c0,0.5-0.1,0.9-0.1,1.4c-0.8,8.2-3.5,16-6.2,23.9
	c-5.3,15.1-10,30.9-9.8,47c-0.1,10.6,0.6,20.9,0.7,31.5c0.2,9.6-0.5,19.3-3.2,29c-3.5,12.5-10.8,22.6-20.8,31.1
	c-29.9,25.2-64.2,36.1-101.3,37c-29.5,1.4-59.3-10.8-79.2-32.8c-7.4-8.8-13.7-18.4-19.4-28.7c-6.6-11.9-7.8-24.5-5.2-37.9
	c2.2-12.1,6.5-23.3,10.6-34.6c2-5.2,3.8-10.6,5.9-15.8c5.5-14.1,6.1-28.9,5.5-43.9c-0.4-11.3-0.9-22.6-0.7-33.9
	C136.5,146.3,137.5,127.3,140.1,118.2z">
<animate  accumulate="none" additive="replace" attributeName="stroke-dasharray" attributeType="XML" begin="0.7925924364609316s" calcMode="linear" dur="10.236565024806199s" fill="remove" keyTimes="0; 0.16666666666666666; 0.3333; 0.6666; 0.8333; 1" repeatCount="indefinite" restart="always" values="0,0,0,0,0,874.7374877929688;            0,0,0,108.37989223931346,549.5978110750283,216.75978447862693;            0,0,291.57916259765625,0,583.1583251953125,874.7374877929688;            0,0,583.1583251953125,0,291.57916259765625,874.7374877929688;            0,0,728.9479064941406,145.78958129882812,0,0;            0,874.7374877929688,0,291.57916259765625,0,874.7374877929688">
		</animate>
</path>
<linearGradient id="SVGID_00000068637758197927961970000006780999733677894547_" gradientUnits="userSpaceOnUse" x1="105.2058" y1="322.8014" x2="377.6711" y2="322.8014" gradientTransform="matrix(1 0 0 -1 0 562)">
	<stop  offset="7.000000e-02" style="stop-color:#17BCC3"/>
	<stop  offset="0.3" style="stop-color:#5087B1"/>
	<stop  offset="0.49" style="stop-color:#7B60A4"/>
	<stop  offset="0.58" style="stop-color:#8C52A0"/>
	<stop  offset="0.66" style="stop-color:#9C599A"/>
	<stop  offset="0.81" style="stop-color:#C66C8B"/>
	<stop  offset="0.94" style="stop-color:#F1807C"/>
</linearGradient>
<path style="fill:none;stroke:url(#SVGID_00000068637758197927961970000006780999733677894547_);stroke-miterlimit:10;stroke-dasharray:0,0,0,0,0,961.3537;" d="
	M135.6,113c5.7-22.2,26.9-33.9,48.3-28.1c15.4,3.7,29.4,11.3,43.2,19.4c8,4.7,16.2,9.3,24.1,14.2c12.8,7.2,26.4,10.5,40.6,10.8
	c11.4,0.3,22.8,0.6,34.2,1.1c8.1,0.4,16.3,1.4,24.2,4c19.1,6,28.7,20.5,26.6,39.6c0,0.6-0.1,1-0.2,1.6c-1.1,9.2-4.3,17.8-7.5,26.6
	c-6.2,16.8-11.4,34.2-10.8,52.3c0.2,11.7,1.3,23.3,1.9,34.9c0.6,10.7,0.1,21.4-2.7,32.2c-3.6,13.8-11.6,25.1-22.5,34.3
	c-33.1,27.8-71.2,39.1-112.2,39.1c-32.7,0.7-65.1-12.6-87.8-36.4c-8.4-9.3-15.6-19.6-22.1-30.7c-7.6-12.7-8.8-26.5-5.9-40.9
	c2.6-13,7.5-25.2,12.2-37.3c2.2-5.7,4.4-11.5,6.7-17.2c6.3-15.3,6.9-31.5,6.3-48c-0.5-12.3-1.1-24.7-0.8-37.1
	C131.6,144.2,132.7,123,135.6,113z">
<animate  accumulate="none" additive="replace" attributeName="stroke-dasharray" attributeType="XML" begin="1.3797599568620709s" calcMode="linear" dur="9.069503030975145s" fill="remove" keyTimes="0; 0.16666666666666666; 0.3333; 0.6666; 0.8333; 1" repeatCount="indefinite" restart="always" values="0,0,0,0,0,961.3536987304688;            0,0,0,137.05876428019832,550.1774058898739,274.11752856039664;            0,0,320.45123291015625,0,640.9024658203125,961.3536987304688;            0,0,640.9024658203125,0,320.45123291015625,961.3536987304688;            0,0,801.1280822753906,160.22561645507812,0,0;            0,961.3536987304688,0,320.45123291015625,0,961.3536987304688">
		</animate>
</path>
<linearGradient id="SVGID_00000139998973166879453580000016544161478734963646_" gradientUnits="userSpaceOnUse" x1="96.9609" y1="317.7589" x2="395.3011" y2="317.7589" gradientTransform="matrix(1 0 0 -1 0 562)">
	<stop  offset="7.000000e-02" style="stop-color:#17BCC3"/>
	<stop  offset="0.3" style="stop-color:#5087B1"/>
	<stop  offset="0.49" style="stop-color:#7B60A4"/>
	<stop  offset="0.58" style="stop-color:#8C52A0"/>
	<stop  offset="0.66" style="stop-color:#9C599A"/>
	<stop  offset="0.81" style="stop-color:#C66C8B"/>
	<stop  offset="0.94" style="stop-color:#F1807C"/>
</linearGradient>
<path style="fill:none;stroke:url(#SVGID_00000139998973166879453580000016544161478734963646_);stroke-miterlimit:10;stroke-dasharray:0,0,0,0,0,1048.312;" d="
	M131,107.9c6.5-23.7,28.7-36.3,52-30.7c16.7,3.6,31.8,11.7,46.8,20.1c8.7,5,17.5,9.8,26.1,15c14.1,7.9,29.2,11.3,44.9,11.4
	c12.6,0.1,25.2,0.2,37.9,0.6c9,0.2,18,1.3,26.8,4c21.1,6.5,31.7,22.3,29,43.6c-0.1,0.6-0.1,1.1-0.2,1.8c-1.4,10.1-5.1,19.6-8.8,29.2
	c-7.1,18.4-12.8,37.6-11.8,57.4c0.5,12.8,2,25.5,2.9,38.2c0.8,11.7,0.7,23.5-2.2,35.3c-3.6,15.2-12.3,27.5-24.3,37.6
	c-36.3,30.3-78.1,42.1-123.2,41.1c-35.9-0.2-70.8-14.5-96.3-39.9c-9.3-9.8-17.5-20.8-24.8-32.6c-8.5-13.7-9.8-28.3-6.5-43.9
	c3-14,8.4-27,13.7-40c2.6-6.2,5-12.4,7.6-18.6c7-16.6,7.8-34.1,7-52c-0.6-13.4-1.3-26.8-1-40.2C126.6,142,127.8,118.6,131,107.9z">
<animate  accumulate="none" additive="replace" attributeName="stroke-dasharray" attributeType="XML" begin="1.1218385592194287s" calcMode="linear" dur="9.287149138072884s" fill="remove" keyTimes="0; 0.16666666666666666; 0.3333; 0.6666; 0.8333; 1" repeatCount="indefinite" restart="always" values="0,0,0,0,0,1048.31201171875;            0,0,0,125.97981345350972,670.3725713582209,251.95962690701944;            0,0,349.4373372395833,0,698.8746744791666,1048.31201171875;            0,0,698.8746744791666,0,349.4373372395833,1048.31201171875;            0,0,873.5933430989584,174.71866861979166,0,0;            0,1048.31201171875,0,349.4373372395833,0,1048.31201171875">
		</animate>
</path>
<linearGradient id="SVGID_00000119083742478911286050000011010301714467856805_" gradientUnits="userSpaceOnUse" x1="88.8614" y1="312.8111" x2="412.8903" y2="312.8111" gradientTransform="matrix(1 0 0 -1 0 562)">
	<stop  offset="7.000000e-02" style="stop-color:#17BCC3"/>
	<stop  offset="0.3" style="stop-color:#5087B1"/>
	<stop  offset="0.49" style="stop-color:#7B60A4"/>
	<stop  offset="0.58" style="stop-color:#8C52A0"/>
	<stop  offset="0.66" style="stop-color:#9C599A"/>
	<stop  offset="0.81" style="stop-color:#C66C8B"/>
	<stop  offset="0.94" style="stop-color:#F1807C"/>
</linearGradient>
<path style="fill:none;stroke:url(#SVGID_00000119083742478911286050000011010301714467856805_);stroke-miterlimit:10;stroke-dasharray:0,0,0,0,0,1134.9541;" d="
	M126.4,102.8c7.1-25.2,30.6-38.6,55.6-33.2c18,3.6,34.2,12,50.2,20.8c9.4,5.1,18.8,10.3,28,15.7c15.5,8.5,31.9,12.1,49.2,11.9
	c13.8-0.1,27.7-0.2,41.6,0c9.9,0.1,19.7,1.1,29.4,4c23.2,6.8,34.6,24.2,31.4,47.5c-0.1,0.7-0.2,1.3-0.3,1.9
	c-1.8,11-5.9,21.4-10.1,31.9c-7.9,20.1-14.2,40.9-12.7,62.6c0.7,13.9,2.7,27.8,4,41.6c1.2,12.8,1.2,25.6-1.8,38.4
	c-3.7,16.6-13.1,29.9-26.1,40.8c-39.5,32.8-85,45.1-134.2,43.2c-39.1-1-76.5-16.3-104.9-43.5c-10.4-10.4-19.4-22-27.4-34.6
	c-9.4-14.6-10.9-30.3-7.2-46.9c3.4-15,9.4-28.9,15.2-42.8c2.9-6.6,5.5-13.4,8.4-20c7.8-17.9,8.6-36.7,7.8-56
	c-0.6-14.4-1.5-28.9-1.2-43.4C121.6,139.8,123,114.3,126.4,102.8z">
<animate  accumulate="none" additive="replace" attributeName="stroke-dasharray" attributeType="XML" begin="2.3038782083644085s" calcMode="linear" dur="8.774876797750336s" fill="remove" keyTimes="0; 0.16666666666666666; 0.3333; 0.6666; 0.8333; 1" repeatCount="indefinite" restart="always" values="0,0,0,0,0,1134.9541015625;            0,0,0,124.97413163916819,760.0317066449954,249.94826327833638;            0,0,378.3180338541667,0,756.6360677083334,1134.9541015625;            0,0,756.6360677083334,0,378.3180338541667,1134.9541015625;            0,0,945.7950846354166,189.15901692708334,0,0;            0,1134.9541015625,0,378.3180338541667,0,1134.9541015625">
		</animate>
</path>
<linearGradient id="SVGID_00000044857535031093725980000001807634202701218741_" gradientUnits="userSpaceOnUse" x1="80.9283" y1="307.6536" x2="430.4774" y2="307.6536" gradientTransform="matrix(1 0 0 -1 0 562)">
	<stop  offset="7.000000e-02" style="stop-color:#17BCC3"/>
	<stop  offset="0.3" style="stop-color:#5087B1"/>
	<stop  offset="0.49" style="stop-color:#7B60A4"/>
	<stop  offset="0.58" style="stop-color:#8C52A0"/>
	<stop  offset="0.66" style="stop-color:#9C599A"/>
	<stop  offset="0.81" style="stop-color:#C66C8B"/>
	<stop  offset="0.94" style="stop-color:#F1807C"/>
</linearGradient>
<path style="fill:none;stroke:url(#SVGID_00000044857535031093725980000001807634202701218741_);stroke-width:0.75;stroke-miterlimit:10;stroke-dasharray:0,0,0,0,0,1222.2897;" d="
	M121.9,97.6c7.9-26.6,32.4-41,59.3-35.7c19.3,3.6,36.6,12.2,53.8,21.5c10,5.4,20.1,10.8,30,16.5c16.8,9.1,34.7,12.8,53.4,12.4
	c15.1-0.3,30.1-0.6,45.3-0.6c10.8,0,21.5,1,32,4c25.2,7.3,37.6,26.1,33.8,51.3c-0.1,0.7-0.2,1.4-0.4,2.1
	c-2.1,12.1-6.7,23.2-11.3,34.5c-8.9,21.8-15.6,44.2-13.7,67.9c1,15.1,3.5,30,5,45c1.5,13.8,1.8,27.7-1.3,41.6
	c-3.8,18-13.8,32.4-27.9,44c-42.6,35.4-92,48.2-145.3,45.3c-42.4-1.9-82.2-18.1-113.4-47c-11.4-10.8-21.2-23.2-30-36.5
	c-10.4-15.4-12-32.3-7.9-50c3.6-16,10.4-30.7,16.7-45.5c3.2-7.1,6.1-14.3,9.3-21.4c8.6-19.2,9.4-39.4,8.5-59.9
	c-0.7-15.5-1.6-30.9-1.4-46.5C116.6,137.6,118.1,109.9,121.9,97.6z">
<animate  accumulate="none" additive="replace" attributeName="stroke-dasharray" attributeType="XML" begin="0.8398072953000086s" calcMode="linear" dur="8.85882022617943s" fill="remove" keyTimes="0; 0.16666666666666666; 0.3333; 0.6666; 0.8333; 1" repeatCount="indefinite" restart="always" values="0,0,0,0,0,1222.2896728515625;            0,0,0,161.1217480753584,738.9244286254873,322.2434961507168;            0,0,407.4298909505208,0,814.8597819010416,1222.2896728515625;            0,0,814.8597819010416,0,407.4298909505208,1222.2896728515625;            0,0,1018.5747273763021,203.7149454752604,0,0;            0,1222.2896728515625,0,407.4298909505208,0,1222.2896728515625">
		</animate>
</path>
<linearGradient id="SVGID_00000031892530189745283620000010977268590884798128_" gradientUnits="userSpaceOnUse" x1="72.7037" y1="302.4913" x2="447.9446" y2="302.4913" gradientTransform="matrix(1 0 0 -1 0 562)">
	<stop  offset="7.000000e-02" style="stop-color:#17BCC3"/>
	<stop  offset="0.3" style="stop-color:#5087B1"/>
	<stop  offset="0.49" style="stop-color:#7B60A4"/>
	<stop  offset="0.58" style="stop-color:#8C52A0"/>
	<stop  offset="0.66" style="stop-color:#9C599A"/>
	<stop  offset="0.81" style="stop-color:#C66C8B"/>
	<stop  offset="0.94" style="stop-color:#F1807C"/>
</linearGradient>
<path style="fill:none;stroke:url(#SVGID_00000031892530189745283620000010977268590884798128_);stroke-width:0.75;stroke-miterlimit:10;stroke-dasharray:0,0,0,0,0,1309.6359;" d="
	M117.3,92.5c8.6-28.1,34.2-43.3,62.9-38.2c20.6,3.5,39,12.6,57.2,22.3c10.7,5.6,21.4,11.3,32,17.1c18.1,9.7,37.4,13.7,57.7,13
	c16.3-0.5,32.5-0.9,48.8-1c11.6-0.1,23.2,0.8,34.6,4c27.3,7.7,40.6,28,36.2,55.3c-0.1,0.7-0.2,1.5-0.4,2.2
	c-2.4,13-7.6,25.1-12.6,37.2c-9.7,23.4-17,47.5-14.7,73.1c1.4,16.3,4.2,32.3,6.2,48.4c1.9,14.9,2.3,29.7-0.8,44.8
	c-3.9,19.4-14.6,34.8-29.6,47.2c-45.7,37.9-98.8,51-156.1,47.3c-45.5-2.6-87.9-20-122-50.6c-12.4-11.4-23.1-24.4-32.7-38.4
	c-11.2-16.4-13-34.1-8.5-53.1c4-16.9,11.3-32.5,18.3-48.2c3.5-7.6,6.6-15.2,10.1-22.8c9.3-20.4,10.3-42,9.3-64
	c-0.7-16.6-1.8-33.1-1.6-49.6C111.6,135.5,113.2,105.5,117.3,92.5z">
<animate  accumulate="none" additive="replace" attributeName="stroke-dasharray" attributeType="XML" begin="2.9295149463714236s" calcMode="linear" dur="10.64475846377114s" fill="remove" keyTimes="0; 0.16666666666666666; 0.3333; 0.6666; 0.8333; 1" repeatCount="indefinite" restart="always" values="0,0,0,0,0,1309.6358642578125;            0,0,0,180.05036918586669,769.4847567002124,360.10073837173337;            0,0,436.5452880859375,0,873.090576171875,1309.6358642578125;            0,0,873.090576171875,0,436.5452880859375,1309.6358642578125;            0,0,1091.3632202148438,218.27264404296875,0,0;            0,1309.6358642578125,0,436.5452880859375,0,1309.6358642578125">
		</animate>
</path>
<linearGradient id="SVGID_00000093899310675451625960000014024659394124231814_" gradientUnits="userSpaceOnUse" x1="64.7706" y1="297.3087" x2="465.3302" y2="297.3087" gradientTransform="matrix(1 0 0 -1 0 562)">
	<stop  offset="7.000000e-02" style="stop-color:#17BCC3"/>
	<stop  offset="0.3" style="stop-color:#5087B1"/>
	<stop  offset="0.49" style="stop-color:#7B60A4"/>
	<stop  offset="0.58" style="stop-color:#8C52A0"/>
	<stop  offset="0.66" style="stop-color:#9C599A"/>
	<stop  offset="0.81" style="stop-color:#C66C8B"/>
	<stop  offset="0.94" style="stop-color:#F1807C"/>
</linearGradient>
<path style="fill:none;stroke:url(#SVGID_00000093899310675451625960000014024659394124231814_);stroke-width:0.5;stroke-miterlimit:10;stroke-dasharray:0,0,0,0,0,1396.9185;" d="
	M112.9,87.3c9.3-29.7,36.1-45.6,66.5-40.8c21.8,3.4,41.3,12.9,60.8,23c11.3,5.9,22.6,11.8,33.8,17.9c19.5,10.4,40.2,14.4,62,13.6
	c17.5-0.7,35-1.3,52.5-1.6c12.5-0.2,25,0.7,37.1,4.1c29.5,8,43.5,29.8,38.6,59.2c-0.1,0.8-0.3,1.6-0.5,2.4
	c-2.7,13.9-8.4,26.8-13.9,39.8c-10.6,25.1-18.4,50.9-15.6,78.4c1.7,17.4,4.9,34.5,7.3,51.8c2.1,15.9,2.8,31.9-0.3,47.9
	c-4.1,20.8-15.3,37.2-31.4,50.5c-48.9,40.4-105.7,53.9-167.2,49.4c-48.7-3.5-93.6-21.8-130.5-54.1c-13.4-12-25-25.5-35.3-40.4
	c-12.2-17.3-14-36.1-9.2-56.1c4.4-18,12.2-34.4,19.8-51c3.7-8,7.2-16.2,10.9-24.2c10.1-21.7,11.1-44.7,10-68
	c-0.8-17.6-2-35.2-1.8-52.7C106.7,133.3,108.4,101.2,112.9,87.3z">
<animate  accumulate="none" additive="replace" attributeName="stroke-dasharray" attributeType="XML" begin="2.6935831667306096s" calcMode="linear" dur="8.894613032100233s" fill="remove" keyTimes="0; 0.16666666666666666; 0.3333; 0.6666; 0.8333; 1" repeatCount="indefinite" restart="always" values="0,0,0,0,0,1396.91845703125;            0,0,0,184.45127070807166,843.5646449070351,368.9025414161433;            0,0,465.6394856770833,0,931.2789713541666,1396.91845703125;            0,0,931.2789713541666,0,465.6394856770833,1396.91845703125;            0,0,1164.0987141927083,232.81974283854166,0,0;            0,1396.91845703125,0,465.6394856770833,0,1396.91845703125">
		</animate>
</path>
<linearGradient id="SVGID_00000000212664356510268020000017083133943261102006_" gradientUnits="userSpaceOnUse" x1="56.7123" y1="292.2555" x2="482.9594" y2="292.2555" gradientTransform="matrix(1 0 0 -1 0 562)">
	<stop  offset="7.000000e-02" style="stop-color:#17BCC3"/>
	<stop  offset="0.3" style="stop-color:#5087B1"/>
	<stop  offset="0.49" style="stop-color:#7B60A4"/>
	<stop  offset="0.58" style="stop-color:#8C52A0"/>
	<stop  offset="0.66" style="stop-color:#9C599A"/>
	<stop  offset="0.81" style="stop-color:#C66C8B"/>
	<stop  offset="0.94" style="stop-color:#F1807C"/>
</linearGradient>
<path style="fill:none;stroke:url(#SVGID_00000000212664356510268020000017083133943261102006_);stroke-width:0.5;stroke-miterlimit:10;stroke-dasharray:0,0,0,0,0,1484.1454;" d="
	M108.3,82.2c10-31.2,38-48,70.1-43.3c23.1,3.3,43.8,13.2,64.2,23.7c12,6.2,23.9,12.2,35.8,18.6c20.9,11,43,15.1,66.3,14
	c18.7-0.8,37.4-1.7,56.1-2.2c13.4-0.4,26.6,0.6,39.7,4.1c31.5,8.5,46.5,31.7,41,63.1c-0.2,0.8-0.3,1.7-0.5,2.5
	c-3,14.9-9.3,28.6-15.2,42.5c-11.5,26.6-19.8,54.2-16.6,83.6c2,18.5,5.6,36.7,8.3,55.2c2.5,16.9,3.4,33.9,0.2,51.1
	c-4.2,22.2-16.1,39.6-33.2,53.7c-52.1,42.9-112.7,56.9-178.1,51.4c-51.9-4.3-99.3-23.7-139.1-57.7c-14.4-12.4-26.8-26.7-38-42.3
	c-13.1-18.1-15.1-38-9.8-59.2c4.7-18.9,13.2-36.3,21.4-53.8c4-8.5,7.8-17.1,11.8-25.6c10.9-22.9,12-47.3,10.8-72
	c-0.9-18.6-2.2-37.2-2-55.9C101.7,131.2,103.5,96.9,108.3,82.2z">
<animate  accumulate="none" additive="replace" attributeName="stroke-dasharray" attributeType="XML" begin="0.9977104523094388s" calcMode="linear" dur="8.579672358617572s" fill="remove" keyTimes="0; 0.16666666666666666; 0.3333; 0.6666; 0.8333; 1" repeatCount="indefinite" restart="always" values="0,0,0,0,0,1484.1453857421875;            0,0,0,176.6578393715276,954.1718676276048,353.3156787430552;            0,0,494.7151285807292,0,989.4302571614584,1484.1453857421875;            0,0,989.4302571614584,0,494.7151285807292,1484.1453857421875;            0,0,1236.787821451823,247.3575642903646,0,0;            0,1484.1453857421875,0,494.7151285807292,0,1484.1453857421875">
		</animate>
</path>
<linearGradient id="SVGID_00000085240724251529080730000017586361141893181319_" gradientUnits="userSpaceOnUse" x1="48.6854" y1="287.1022" x2="500.5002" y2="287.1022" gradientTransform="matrix(1 0 0 -1 0 562)">
	<stop  offset="7.000000e-02" style="stop-color:#17BCC3"/>
	<stop  offset="0.3" style="stop-color:#5087B1"/>
	<stop  offset="0.49" style="stop-color:#7B60A4"/>
	<stop  offset="0.58" style="stop-color:#8C52A0"/>
	<stop  offset="0.66" style="stop-color:#9C599A"/>
	<stop  offset="0.81" style="stop-color:#C66C8B"/>
	<stop  offset="0.94" style="stop-color:#F1807C"/>
</linearGradient>
<path style="fill:none;stroke:url(#SVGID_00000085240724251529080730000017586361141893181319_);stroke-width:0.25;stroke-miterlimit:10;stroke-dasharray:0,0,0,0,0,1571.7314;" d="
	M103.7,77c10.8-32.7,39.7-50.3,73.8-45.8c24.4,3.2,46.2,13.6,67.8,24.4C257.9,62,270.5,68.3,283,75c22.2,11.6,45.7,16,70.6,14.6
	c19.9-1.1,39.8-2.1,59.8-2.7c14.2-0.5,28.4,0.4,42.3,4.1c33.6,8.9,49.5,33.6,43.4,67c-0.2,0.9-0.4,1.8-0.6,2.7
	c-3.4,15.8-10.1,30.5-16.5,45.2c-12.3,28.3-21.2,57.5-17.6,88.7c2.2,19.6,6.4,39,9.4,58.5c2.8,18,3.9,36,0.7,54.2
	c-4.3,23.5-16.8,42.1-35,56.9c-55.3,45.4-119.6,59.9-189.2,53.5c-55.1-5-105-25.5-147.6-61.2c-15.4-13-28.7-28-40.7-44.2
	c-14-19.1-16.1-39.9-10.5-62.3c5-19.9,14.1-38.1,22.9-56.5c4.3-9,8.2-18,12.6-27c11.7-24.2,12.8-49.9,11.5-76
	c-1-19.6-2.3-39.4-2.2-59C96.8,128.9,98.6,92.5,103.7,77z">
<animate  accumulate="none" additive="replace" attributeName="stroke-dasharray" attributeType="XML" begin="2.003990472849124s" calcMode="linear" dur="9.343143653309893s" fill="remove" keyTimes="0; 0.16666666666666666; 0.3333; 0.6666; 0.8333; 1" repeatCount="indefinite" restart="always" values="0,0,0,0,0,1571.7314453125;            0,0,0,212.1828489007569,935.1828986102292,424.3656978015138;            0,0,523.9104817708334,0,1047.8209635416667,1571.7314453125;            0,0,1047.8209635416667,0,523.9104817708334,1571.7314453125;            0,0,1309.7762044270833,261.9552408854167,0,0;            0,1571.7314453125,0,523.9104817708334,0,1571.7314453125">
		</animate>
</path>
<linearGradient id="SVGID_00000078018953305693823550000008980164192306495627_" gradientUnits="userSpaceOnUse" x1="40.6479" y1="282.0295" x2="518.1372" y2="282.0295" gradientTransform="matrix(1 0 0 -1 0 562)">
	<stop  offset="7.000000e-02" style="stop-color:#17BCC3"/>
	<stop  offset="0.3" style="stop-color:#5087B1"/>
	<stop  offset="0.49" style="stop-color:#7B60A4"/>
	<stop  offset="0.58" style="stop-color:#8C52A0"/>
	<stop  offset="0.66" style="stop-color:#9C599A"/>
	<stop  offset="0.81" style="stop-color:#C66C8B"/>
	<stop  offset="0.94" style="stop-color:#F1807C"/>
</linearGradient>
<path style="fill:none;stroke:url(#SVGID_00000078018953305693823550000008980164192306495627_);stroke-width:0.25;stroke-miterlimit:10;stroke-dasharray:0,0,0,0,0,1658.8621;" d="
	M99.2,71.9c11.4-34.2,41.6-52.7,77.4-48.3c25.6,3.2,48.5,13.8,71.2,25.2c13.3,6.6,26.6,13.2,39.7,20.1
	c23.5,12.2,48.5,16.7,74.8,15.1c21.1-1.3,42.3-2.4,63.5-3.2c15.1-0.6,30.1,0.3,44.9,4.1c36.7,9.5,53.3,36.8,45.3,73.8
	c-3.6,16.8-10.9,32.3-17.8,47.8c-13.2,30-22.6,60.9-18.5,94c2.5,20.8,7,41.2,10.5,61.9c3.2,19.1,4.5,38.1,1.1,57.3
	c-4.4,24.9-17.7,44.5-36.7,60.1c-58.4,48-126.5,62.9-200.1,55.4c-58.3-5.9-110.7-27.3-156.2-64.7C81.8,457,67.7,441.4,55,424.3
	c-14.9-20-17.1-41.9-11.1-65.3c5.4-20.9,15.1-40,24.5-59.3c4.6-9.4,8.8-19,13.5-28.4c12.4-25.4,13.7-52.5,12.2-80
	c-1-20.7-2.5-41.4-2.2-62.2C91.8,126.8,93.8,88.1,99.2,71.9z">
<animate  accumulate="none" additive="replace" attributeName="stroke-dasharray" attributeType="XML" begin="3.2807144210993404s" calcMode="linear" dur="10.66101056666721s" fill="remove" keyTimes="0; 0.16666666666666666; 0.3333; 0.6666; 0.8333; 1" repeatCount="indefinite" restart="always" values="0,0,0,0,0,1658.862060546875;            0,0,0,201.80564601652435,1053.445122497302,403.6112920330487;            0,0,552.9540201822916,0,1105.9080403645833,1658.862060546875;            0,0,1105.9080403645833,0,552.9540201822916,1658.862060546875;            0,0,1382.3850504557292,276.4770100911458,0,0;            0,1658.862060546875,0,552.9540201822916,0,1658.862060546875">
		</animate>
</path>
</svg>
