<?xml version="1.0" encoding="UTF-8"?><svg id="Layer_1" xmlns="http://www.w3.org/2000/svg" xmlns:xlink="http://www.w3.org/1999/xlink" viewBox="0 0 1132.5 566.9"><defs><style>.cls-1{fill:url(#linear-gradient);}.cls-2{fill:#fff;}.cls-3{fill:#7a3996;}.cls-4{fill:url(#linear-gradient-3);}.cls-5{fill:url(#linear-gradient-4);}.cls-6{fill:url(#linear-gradient-2);}</style><linearGradient id="linear-gradient" x1="777.35" y1="406.86" x2="922.27" y2="159.29" gradientTransform="translate(0 567.76) scale(1 -1)" gradientUnits="userSpaceOnUse"><stop offset=".07" stop-color="#00babd"/><stop offset=".08" stop-color="#01b9bd"/><stop offset=".29" stop-color="#4274a8"/><stop offset=".44" stop-color="#6a499b"/><stop offset=".52" stop-color="#7a3996"/><stop offset=".59" stop-color="#8a4090"/><stop offset=".75" stop-color="#b55281"/><stop offset=".94" stop-color="#f16b6b"/></linearGradient><linearGradient id="linear-gradient-2" x1="777.17" y1="406.75" x2="922.09" y2="159.19" gradientTransform="translate(0 567.76) scale(1 -1)" gradientUnits="userSpaceOnUse"><stop offset=".07" stop-color="#00babd"/><stop offset=".08" stop-color="#01b9bd"/><stop offset=".29" stop-color="#4274a8"/><stop offset=".44" stop-color="#6a499b"/><stop offset=".52" stop-color="#7a3996"/><stop offset=".59" stop-color="#8a4090"/><stop offset=".75" stop-color="#b55281"/><stop offset=".94" stop-color="#f16b6b"/></linearGradient><linearGradient id="linear-gradient-3" x1="777.05" y1="406.68" x2="921.96" y2="159.11" gradientTransform="translate(0 567.76) scale(1 -1)" gradientUnits="userSpaceOnUse"><stop offset=".07" stop-color="#00babd"/><stop offset=".08" stop-color="#01b9bd"/><stop offset=".29" stop-color="#4274a8"/><stop offset=".44" stop-color="#6a499b"/><stop offset=".52" stop-color="#7a3996"/><stop offset=".59" stop-color="#8a4090"/><stop offset=".75" stop-color="#b55281"/><stop offset=".94" stop-color="#f16b6b"/></linearGradient><linearGradient id="linear-gradient-4" x1="777.09" y1="407.13" x2="922.54" y2="158.67" gradientTransform="translate(0 567.76) scale(1 -1)" gradientUnits="userSpaceOnUse"><stop offset=".07" stop-color="#00babd"/><stop offset=".08" stop-color="#01b9bd"/><stop offset=".29" stop-color="#4274a8"/><stop offset=".44" stop-color="#6a499b"/><stop offset=".52" stop-color="#7a3996"/><stop offset=".59" stop-color="#8a4090"/><stop offset=".75" stop-color="#b55281"/><stop offset=".94" stop-color="#f16b6b"/></linearGradient></defs><path class="cls-3" d="m889,308.8c-3.4-1-7.9-1.7-13.3-.9-1.9.3-3.9.8-5.9,1.5-.2.1-.4.1-.6.2-1.1.4-2.1.9-3.2,1.4-.9.5-1.8,1-2.7,1.5-2,1.2-4,2.6-6,4.1-2.2-13.4-1.1-25.9-.6-32,0,0,0-.1.1,0,4.7,3,3.4,11.4,2.4,13.7,0,0,.1.1.1,0,5.9-7,3-14.7,1.8-16.7,0,0,0-.1.1-.1.9.7,1.6,1.4,2.1,2.2,1.8,2.3,2.5,4.9,2.7,7.1.1,1.2.1,2.3,0,3.2,0,.2,0,.5-.1.7h.1c1.6-3.1,2.4-7.9,0-12.5-.6-1.2-1.5-2.5-2.7-3.7-.3-.3-.7-.7-1.1-1v-.1c.4.1.7.2,1,.3,1,.3,1.9.8,2.7,1.4,1.8,1.3,3,3.1,3.7,5.1.6,1.6.9,3.2.9,4.6,0,.1.1.1.1,0,1.1-4.1.4-7.2-1-9.4-1-1.6-2.4-2.8-3.7-3.6-.9-.6-1.9-1-2.7-1.2-.5-.1-.9-.2-1.3-.3-.1,0,0-.1,0-.1.4,0,.9-.1,1.3-.1,1,0,1.9.1,2.7.2,1.6.3,2.8.9,3.7,1.5,1.5,1,2.3,2.2,2.5,2.7h.1c-.2-2.2-1.2-3.9-2.6-5.1-1.1-.9-2.4-1.6-3.7-2-.9-.2-1.8-.4-2.7-.4-1.2,0-2.4.2-3.4.6,0,0-.1,0-.1-.1.9-1.3,2.1-2,3.4-2.4.9-.3,1.8-.4,2.7-.3.8.1,1.6.2,2.2.5,0,0,.1,0,.1-.1-.7-.8-1.4-1.4-2.3-1.8-.9-.5-1.8-.8-2.7-.9-2.4-.3-4.8.7-6.5,3.2h-.1c-.3-.6-.6-1.2-.9-1.8-.7-1.5-1.2-3.2-1.5-4.9-.3,1.7-.8,3.4-1.5,4.9-.3.6-.6,1.3-.9,1.8h-.1c-1.6-2.5-4.1-3.5-6.5-3.2-.9.1-1.8.4-2.7.9-.8.5-1.6,1.1-2.3,1.8,0,0,0,.1.1.1.6-.3,1.4-.5,2.2-.5.9,0,1.8,0,2.7.3,1.3.4,2.5,1.2,3.4,2.4,0,0,0,.1-.1.1-1-.4-2.2-.6-3.4-.6-.9,0-1.8.1-2.7.4-1.4.4-2.7,1-3.7,2-1.4,1.2-2.4,2.9-2.6,5.1,0,.1.1.1.1,0,.3-.5,1-1.7,2.5-2.7.9-.6,2.2-1.2,3.7-1.5.8-.1,1.7-.2,2.7-.2.4,0,.8,0,1.3.1.1,0,.1.1,0,.1-.4,0-.8.1-1.3.3-.8.2-1.8.6-2.7,1.2-1.4.8-2.7,2-3.7,3.6-1.4,2.3-2.1,5.4-1,9.4,0,.1.1,0,.1,0,0-1.4.3-3.1.9-4.6.7-1.9,1.9-3.7,3.7-5.1.8-.6,1.7-1.1,2.7-1.4.3-.1.7-.2,1-.3,0,0,.1,0,0,.1-.4.3-.7.7-1.1,1-1.2,1.2-2,2.4-2.7,3.7-2.4,4.6-1.6,9.4,0,12.5h.1c0-.2,0-.5-.1-.7-.1-.9-.1-2,0-3.2.2-2.2.9-4.8,2.7-7.1.6-.8,1.3-1.5,2.1-2.2,0,0,.1,0,.1.1-1.2,2-4.1,9.7,1.8,16.7h.1c-1-2.4-2.3-10.7,2.4-13.7h.1c.5,6.1,1.6,18.6-.6,32-2-1.5-4-2.9-6-4.1-.9-.5-1.8-1-2.7-1.5-1.1-.5-2.1-1-3.2-1.4-.2-.1-.4-.1-.6-.2-2.1-.7-4.1-1.2-6-1.5-5.4-.8-9.9-.1-13.3.9-.3.1-.5.3-.5.6,0,.4.3.7.7.6,4.6-.6,9-.2,13,1,2.1.6,4,1.4,6,2.3,1.3.6,2.5,1.3,3.7,2,.9.5,1.8,1.1,2.7,1.7,2.1,1.4,4.1,3,6,4.5-2.1,1.9-4.2,3.7-6,5.4-.9.9-1.8,1.7-2.7,2.4-1.4,1.2-2.7,2.3-3.7,3-.5.3-.9.6-1.3.8-.7-.9-1.9-1.5-3.2-1.2-.6.1-1.1.4-1.5.8s-.7.9-.9,1.5c-.2,1,.2,2.3.6,2.7.1.1.2.2.3.2,1.7,1.5,3.7,1.3,6,.1,1.2-.6,2.4-1.5,3.7-2.6.9-.7,1.8-1.5,2.7-2.3,2.3-2.1,4.7-4.5,7.4-7,.5-.4,1-.9,1.5-1.3.5.4,1,.9,1.5,1.3,2.7,2.5,5.2,4.9,7.4,6.9.9.8,1.8,1.6,2.7,2.3,1.3,1.1,2.6,2,3.7,2.6,2.3,1.2,4.3,1.4,5.9-.1.1-.1.2-.2.3-.2.4-.4.8-1.7.6-2.7-.1-.6-.5-1.1-.9-1.5s-.9-.7-1.5-.8c-1.3-.3-2.5.3-3.2,1.2-.4-.2-.8-.5-1.3-.8-1.1-.7-2.3-1.8-3.7-3-.8-.7-1.7-1.5-2.7-2.4-1.8-1.7-3.9-3.5-6-5.4,1.9-1.6,3.9-3.1,6-4.6.9-.6,1.8-1.2,2.7-1.7,1.2-.7,2.5-1.4,3.7-2,1.9-.9,3.9-1.7,5.9-2.3,4-1.2,8.4-1.6,13-1,.4.1.7-.2.7-.6,1,0,.9-.3.6-.4"/><path class="cls-1" d="m858.6,187.2c-18.8-4.5-34.8-12.1-48.9-18.9l-5.4-2.5-.7.5c-14.4,10.3-27.9,21.7-42.2,33.7l-7.6,6.4-.3.3c-13.7,21-20.3,47-18.5,73.2,1.8,26.3,12.4,51.7,30.5,73.4,21.9,26.1,49.1,44.4,78.6,53l.4.1.4-.1c20.5-3.7,38.3-9.1,54.7-16.5,15.6-7.1,29.7-16,43.6-27.4,17.5-22.4,27.4-52.6,26.5-81.2-5.4-22.1-19.4-43.7-39.4-60.8-17.4-15-40.9-25.8-71.7-33.2Zm-101.6,45.7c18.9-14.5,34.8-31,50.2-46.9l3.1-3.2c.4.6.8,1.2,1.2,1.8-16.2,18.4-33,37.3-54.5,53.7v-5.4Zm180.3,97.4c-17.8,14.9-65.1,38.5-91.6,49.5-17.5-16.7-39.1-37.5-54.4-61.9-13.4-21.5-24.9-47.4-34-77,21.8-16.4,38.7-35.4,55-53.9,12.3,24.5,30.4,45.5,52.7,60.8,22.9,15.8,49.4,25.1,76.8,26.9,2.7,10.7,3.2,34.4-4.5,55.6Zm-147.8-11.2c15.5,24.9,37.5,45.9,55.2,62.8l.5.5.7-.3c26.7-10.9,75.2-35.2,93.1-50.3l.2-.2.1-.3c7.4-20.4,7.9-44.2,4.7-56.9,1.3.7,2.6,1.4,3.9,2,2.5,15.6.7,40.5-9.1,61.4-14.2,10.1-27.8,18.4-42.9,26.1-14,7.1-30,14-51.6,22.3-21.6-15.9-41.1-36.4-58.1-61-10.3-14.9-17.8-30.2-22.4-45.6-2.9-9.8-4.9-19.8-5.9-30,8.7,26.5,19.3,49.8,31.6,69.5Zm76.7-73.1c-18.7-12.9-34.5-30-46.3-49.7,12.6,16.2,27.1,28.7,43.2,37.2,7.8,4.1,16,8,24,11.8,7.1,3.4,14.4,6.8,21.3,10.4,8.3,4.3,16.3,8.6,23.9,12.6,2.6,1.4,5.2,2.7,7.7,4.1-26.3-2.2-51.8-11.2-73.8-26.4Zm-60.8-61.8c-15.4,15.9-31.4,32.4-50.2,46.8.4-2.1.9-4.2,1.4-6.2,14.8-11.7,28.1-24.2,41-36.4,3.6-3.4,7.2-6.8,10.8-10.1.4.5.8.9,1.3,1.4l-4.3,4.5Zm-51,51.1c.2,15.3,2.4,30.4,6.8,45.1,4.7,15.7,12.3,31.3,22.7,46.4,17.3,25.1,37.3,46,59.3,62.1l.6.4.7-.2c22-8.4,38.2-15.4,52.5-22.6,15.3-7.8,29.1-16.2,43.5-26.5l.4-.5c10.3-21.8,12.1-47.8,9.4-63.9l-.1-.6-.6-.3c-5.1-2.6-10.4-5.5-16.1-8.5-7.6-4-15.6-8.3-23.9-12.6-7-3.6-14.3-7.1-21.4-10.4-7.9-3.8-16.1-7.7-23.9-11.7-18.3-9.7-34.5-24.6-48.2-44.4,14.4,15.1,29.3,25.7,45.2,32.2l4.4,1.8c16.9,6.9,34.3,14.1,49.2,23.8,15.5,10.1,29.3,22,39.1,33.5,1.6,16.5-1.2,43.9-14.7,67.2-14,10.5-27.6,18.8-42.8,26.3-14.8,7.2-31.4,13.7-52.2,20.3-23.6-13.2-45.8-33.2-64.3-58-12.7-17-21.2-35.7-24.9-54.3-2.8-15.1-3-30.2-.7-44.6Zm53.2-60c-4,3.7-7.9,7.4-11.9,11.1-12.9,12.2-26.3,24.8-41.2,36.5l-.4.3-.1.4c-4.7,17.9-5.3,37.5-1.6,56.5,3.7,18.9,12.4,38.1,25.3,55.4,18.9,25.3,41.6,45.7,65.7,59l.5.3.6-.2c21.3-6.7,38.2-13.3,53.2-20.6,15.4-7.6,29.2-16.1,43.5-26.7l.4-.4c14-24.2,16.9-52.6,15.1-69.6v-.4l-.3-.3c-9.9-11.8-24.1-24-39.9-34.3-15.1-9.8-32.7-17-49.7-24l-4.4-1.8c-17.8-7.3-34.3-19.9-50.4-38.4,13.1,10.1,28.7,20.4,47.6,26.5,20.4,6.5,43.7,15.1,62,29,17.6,13.4,31.3,29.8,38.7,46.2,1.4,24.5-6.3,52.4-20.2,73-13.6,10.6-27.6,19.3-42.7,26.5-15.3,7.2-32.6,13.2-52.9,18.3-26.1-10.8-50.5-29.8-70.5-54.9-15.2-19.1-24.6-40.8-27.3-62.9s.6-43.9,9.6-62.9c9.6-7.8,18.8-15.8,27.8-23.6,7.7-6.7,15-13,22.5-19.3.5.4,1,.8,1.4,1.1l-.4.2Zm158.9,106.2c.8,27.6-8.9,57.1-25.7,78.7-13.4,11-27.4,19.8-42.7,26.8-16,7.3-33.5,12.6-53.6,16.2-28.8-8.4-55.3-26.4-76.7-51.9-17.7-21.1-28-45.9-29.8-71.6-1.8-25.5,4.5-50.7,17.8-71.1l7.5-6.2c14-11.7,27.2-22.9,41.3-33l1.7.8-.8.6c-7.9,6.5-15.8,13.4-23.5,20.1-9,7.8-18.2,15.9-27.9,23.7l-.4.5c-9.3,19.6-12.8,42.1-10,64.9,2.8,22.6,12.4,44.9,27.9,64.4,20.4,25.7,45.4,45.1,72.1,56l.4.2.5-.1c20.7-5.1,38.3-11.2,53.9-18.6,15.4-7.3,29.6-16.1,43.4-27l.3-.3c14.4-21.1,22.4-50,20.8-75.2l-.1-.5c-7.6-16.9-21.7-33.8-39.7-47.6-18.6-14.2-42.2-22.8-62.8-29.4-21.6-6.9-38.9-19.6-53.1-31l-.3-.3,1.3.6c14.2,6.8,30.4,14.5,49.5,19.1,30.4,7.3,53.4,17.9,70.3,32.4,19.6,16.6,33.3,37.6,38.4,58.8Z"/><path class="cls-6" d="m856.7,172.5c-10.5-1.8-20.3-3.9-29.7-6-8.6-1.9-16.7-3.7-24.1-4.9l-.6-.1-.5.3c-14.9,9.1-29.8,20.3-48.3,36.3l-.2.2c-18.3,22.6-27.8,51.5-26.9,81.5.9,29.7,12.7,59,33.1,82.3,23,26.2,53.2,43.9,85,49.9h.4c20-2.2,38.7-7.1,55.5-14.5,15.8-7,29.9-15.9,43.5-27.6,18.8-21.5,30.5-50.2,32.1-78.9.3-5.3,0-10.5-1-15.4-4.7-24.4-18.1-48-37.9-66.5-19.9-18.4-47.7-31.1-80.4-36.6Zm115.9,118.3c-1.6,28-13,56-31.1,76.8-13.1,11.3-27,20.1-42.5,26.9-16.4,7.2-34.7,12-54.2,14.2-31.1-5.9-60.5-23.2-82.9-48.8-20-22.8-31.4-51.3-32.3-80.2-.9-29.1,8.4-57.2,26.1-79.2,18.1-15.6,32.7-26.6,47.2-35.5,7.2,1.2,15.1,2.9,23.4,4.8,9.5,2.1,19.3,4.3,29.9,6.1,32.1,5.4,59.3,17.8,78.7,35.8,19.3,18,32.4,40.9,36.9,64.7.8,4.5,1.1,9.4.8,14.4Z"/><path class="cls-4" d="m854.7,157.1c-16-1.6-36.7-3-54.7-.8l-.6.2c-16.1,8.1-31.9,19.1-47.1,32.7l-.1.1c-22.9,24.3-35.5,56.3-35.6,90.2-.1,33.8,12.7,66.4,35.9,91.8,23.5,25.8,54.6,42.2,88.1,46.7,2.8.4,5.6.4,8.4.3,18.4-1.2,36-5.3,52.4-12.3,15.9-6.8,30.5-16.1,43.6-27.9,23.9-24.7,37.8-58.5,38.3-92.9-1.1-32.5-14.9-63.6-38.9-87.6-22.7-22.7-54.5-37.1-89.7-40.5Zm87.9,218.5c-12.7,11.4-27,20.6-42.5,27.2-17.2,7.3-35.8,11.4-55.1,12.2-34-3.5-65.9-19.8-89.8-46-22.6-24.8-35.1-56.6-35-89.4.1-33,12.3-64.1,34.6-87.8,14.8-13.3,30.3-24.1,46-32,17.7-2.2,37.9-.7,53.7.8,34.3,3.3,65.4,17.3,87.6,39.4,23.4,23.4,36.8,53.7,37.9,85.2-.6,33.4-14.2,66.4-37.4,90.4Z"/><path class="cls-5" d="m951.9,186.1c-26-27.5-61.2-43.2-99-44.3-37.9-1.1-73.8,12.7-101.3,38.7s-43.2,61.2-44.3,99c-1,37.8,12.7,73.8,38.7,101.3s61.2,43.2,99,44.3c1.3,0,2.7.1,4,.1,36.4,0,70.8-13.7,97.3-38.8,27.5-26,43.2-61.2,44.3-99,1.1-37.9-12.6-73.8-38.7-101.3Zm35.1,101.2c-1,36.9-16.3,71.1-43.1,96.5-26.8,25.3-61.8,38.7-98.7,37.7s-71.1-16.3-96.5-43.1c-25.3-26.8-38.7-61.8-37.7-98.7s16.3-71.1,43.1-96.5c25.8-24.4,59.4-37.8,94.8-37.8,1.3,0,2.6,0,3.9.1,36.9,1,71.1,16.3,96.5,43.1,25.3,26.8,38.7,61.8,37.7,98.7Z"/><path class="cls-2" d="m165.8,328.4c-2.2-2.1-5.4-3.2-8.2-3.2-7.1,0-11.2,5.3-11.2,11.7,0,5.5,3.3,10.9,11.2,10.9,2.6,0,5-.6,7.4-2.7v-6.1h-8.4v-4.3h12.9v12.3c-3,3.3-6.8,5.3-11.9,5.3-11.1,0-15.9-7.4-15.9-15.4,0-8.7,5.6-16.2,15.9-16.2,4,0,8.1,1.5,11.2,4.6l-3,3.1Z"/><path class="cls-2" d="m200.4,351.7h-22.4v-30.3h22.2v4.7h-17.4v8.2h16.7v4.5h-16.7v8.1h17.5v4.8h.1Z"/><path class="cls-2" d="m229.9,342.9v-21.5h4.8v30.3h-3.7l-17.2-21.4v21.4h-4.8v-30.3h3.7l17.2,21.5Z"/><path class="cls-2" d="m267,351.7h-22.4v-30.3h22.2v4.7h-17.4v8.2h16.7v4.5h-16.7v8.1h17.6v4.8Z"/><path class="cls-2" d="m301.7,351.7h-5.7l-9.2-10.5h-6.4v10.5h-4.8v-30.3h14.1c7,0,10.7,4.8,10.7,9.9,0,4.3-2.2,8.6-8.2,9.4l9,10.1.5.9Zm-21.3-25.9v11h9.2c4,0,5.8-2.6,5.8-5.4s-1.8-5.6-5.8-5.6h-9.2Z"/><path class="cls-2" d="m330.9,345.3h-16.4l-2.9,6.4h-5.1l13.6-30.3h5.3l13.6,30.3h-5.1l-3-6.4Zm-8.2-18.8l-6.4,14.4h12.8l-6.4-14.4Z"/><path class="cls-2" d="m350.3,321.4v25.8h16v4.5h-20.8v-30.3h4.8Z"/><path class="cls-2" d="m404.1,345.3h-16.4l-2.9,6.4h-5.1l13.6-30.3h5.3l13.6,30.3h-5.2l-2.9-6.4Zm-8.2-18.8l-6.4,14.4h12.8l-6.4-14.4Z"/><path class="cls-2" d="m442.8,321.4v17.7c0,8.9-5.9,13.4-13.2,13.1-6.7-.2-12.5-4.5-12.5-13.1v-17.7h4.8v17.7c0,5.5,3.2,8.5,7.7,8.6,4.8.3,8.4-2.9,8.4-8.6v-17.7h4.8Z"/><path class="cls-2" d="m459.2,325.8h-9.9v-4.4h24.7v4.4h-9.9v25.9h-4.9v-25.9h0Z"/><path class="cls-2" d="m501.7,351.7v-12.6h-16v12.6h-4.8v-30.3h4.8v13.2h16v-13.2h4.8v30.3h-4.8Z"/><path class="cls-2" d="m545.5,336.7c0,8.2-5,15.7-15.5,15.7s-15.5-7.7-15.5-15.6c0-9.2,6.4-15.9,15.6-15.9,10.4,0,15.4,7.6,15.4,15.8Zm-15.4,11.2c7.5,0,10.7-5.3,10.7-11.1s-3.2-11.4-10.6-11.5c-7,0-10.8,4.9-10.8,11.5.1,5.3,3.2,11.1,10.7,11.1Z"/><path class="cls-2" d="m579.7,351.7h-5.7l-9.2-10.5h-6.4v10.5h-4.8v-30.3h14.1c7,0,10.7,4.8,10.7,9.9,0,4.3-2.2,8.6-8.2,9.4l9,10.1.5.9Zm-21.2-25.9v11h9.2c4,0,5.8-2.6,5.8-5.4s-1.8-5.6-5.8-5.6h-9.2Z"/><path class="cls-2" d="m587.1,351.7v-30.3h4.8v30.3h-4.8Z"/><path class="cls-2" d="m608.8,325.8h-9.9v-4.4h24.7v4.4h-9.9v25.9h-4.9v-25.9h0Z"/><path class="cls-2" d="m641.4,334.8l8.6-13.4h5.8v.2l-12,17.6v12.4h-4.8v-12.4l-11.7-17.6v-.2h5.8l8.3,13.4Z"/><path class="cls-2" d="m172.6,386.6c0,8.1-5,15.6-15.4,15.6s-15.4-7.6-15.4-15.5c0-9.2,6.4-15.8,15.5-15.8,10.2-.1,15.3,7.5,15.3,15.7Zm-15.4,11.1c7.5,0,10.6-5.3,10.6-11.1s-3.2-11.3-10.6-11.5c-7,0-10.7,4.9-10.7,11.5.1,5.4,3.2,11.1,10.7,11.1Z"/><path class="cls-2" d="m178.9,401.5v-30.1h21.3v4.7h-16.5v9.2h15.7v4.5h-15.7v11.8h-4.8v-.1Z"/><path class="cls-2" d="m240.8,378.4l-10.3,14.3h-1l-10.1-14.3v23.1h-4.8v-30.2h5.6l9.9,14.1,9.9-14.1h5.6v30.2h-4.8v-23.1h0Z"/><path class="cls-2" d="m276.1,401.5h-22.3v-30.2h22.2v4.7h-17.3v8.1h16.6v4.5h-16.6v8.1h17.4v4.8Z"/><path class="cls-2" d="m294.3,371.4c10.3,0,15,7.4,15.1,14.8.2,7.6-4.6,15.3-15.1,15.3h-11.4v-30.2h11.4v.1Zm-6.6,25.5h6.6c7.4,0,10.5-5.4,10.3-10.7-.1-5.1-3.2-10.2-10.3-10.2h-6.6v20.9Z"/><path class="cls-2" d="m315.8,401.5v-30.2h4.8v30.2h-4.8Z"/><path class="cls-2" d="m349.7,395.2h-16.3l-2.8,6.3h-5.1l13.5-30.2h5.3l13.5,30.2h-5.1l-3-6.3Zm-8.2-18.8l-6.4,14.3h12.7l-6.3-14.3Z"/><path class="cls-2" d="m397.8,401.5h-5.6l-9.2-10.4h-6.4v10.4h-4.8v-30.2h14c7,0,10.6,4.8,10.6,9.9,0,4.3-2.2,8.5-8.2,9.4l9,10,.6.9Zm-21.1-25.8v10.9h9.2c4,0,5.8-2.5,5.8-5.4,0-2.7-1.8-5.6-5.7-5.6h-9.3v.1Z"/><path class="cls-2" d="m425.8,401.5h-22.3v-30.2h22.1v4.7h-17.3v8.1h16.6v4.5h-16.6v8.1h17.4v4.8h.1Z"/><path class="cls-2" d="m454.9,378.3c-2.2-2.1-5.3-3.2-8.1-3.2-7.1,0-11.2,5.3-11.1,11.7,0,5.5,3.3,10.9,11.1,10.9,2.6,0,5-.6,7.4-2.7v-6.1h-8.4v-4.3h12.9v12.4c-3,3.3-6.8,5.3-11.8,5.3-11.1,0-15.9-7.4-15.9-15.4,0-8.7,5.6-16.1,15.9-16.1,4,0,8.1,1.5,11.2,4.6l-3.2,2.9Z"/><path class="cls-2" d="m490.6,371.4v17.6c0,8.9-5.9,13.3-13.1,13.1-6.7-.2-12.4-4.5-12.4-13.1v-17.6h4.8v17.6c0,5.5,3.2,8.4,7.7,8.6,4.8.3,8.4-2.9,8.4-8.6v-17.6h4.6Z"/><path class="cls-2" d="m503.2,371.4v25.6h15.4v4.5h-20.2v-30.2h4.8v.1Z"/><path class="cls-2" d="m545.5,395.2h-16.3l-2.8,6.3h-5.1l13.5-30.2h5.3l13.5,30.2h-5.1l-3-6.3Zm-8.1-18.8l-6.4,14.3h12.7l-6.3-14.3Z"/><path class="cls-2" d="m562.1,375.7h-9.9v-4.4h24.6v4.4h-9.8v25.8h-4.9v-25.8Z"/><path class="cls-2" d="m581.9,401.5v-30.2h4.8v30.2h-4.8Z"/><path class="cls-2" d="m623.9,386.6c0,8.1-5,15.6-15.4,15.6s-15.4-7.6-15.4-15.5c0-9.2,6.4-15.8,15.5-15.8,10.2-.1,15.3,7.5,15.3,15.7Zm-15.4,11.1c7.5,0,10.6-5.3,10.6-11.1s-3.2-11.3-10.6-11.5c-7,0-10.7,4.9-10.7,11.5.1,5.4,3.2,11.1,10.7,11.1Z"/><path class="cls-2" d="m651,392.8v-21.5h4.8v30.2h-3.7l-17.1-21.3v21.3h-4.9v-30.2h3.7l17.2,21.5Z"/><path class="cls-2" d="m631,164.8v43.2h-25v-8c0-24.3-21.7-29.3-39.3-21.6l2.6,5.9c14.3-5.9,30-2,30,15.7v8h-7.6v-6.8c0-7.5-5.2-13.1-12.3-13.1-8,0-13.6,5.1-13.6,12.6,0,2.8,1,5.3,2.8,7.3h-31.8c-4.9,0-7.4-2.4-7.4-7.6v-13.5h-6.7v13.6c0,2.6-.6,4.5-1.8,5.7s-3,1.8-5.5,1.8h-15.5c-4.9-.1-7.2-2.7-7.2-7.6v-13.6h-6.7v13.6c0,2.6-.6,4.5-1.8,5.7-1.2,1.2-3,1.8-5.5,1.8h-9.9c-4.9-.1-7.2-2.5-7.2-7.6v-19.3h-15.9c-9.2,0-16.3,6.4-16.3,16.1s5.5,17.8,16.3,17.8c5,0,9.2-2.4,12.1-6.2.1.2.3.5.4.6,1.1,1.6,3.9,4.2,10.5,4.2h10c4.7,0,8.1-1.8,9.9-5.2.2.3.6.8.7.9,1.1,1.6,3.9,4.2,10.5,4.2h15.7c4.7,0,8.2-1.9,9.9-5.3.1.1.6.9.7,1,1.1,1.6,3.9,4.2,10.5,4.2h101.3v-48.8h-6.9v.3Zm-176.6,32.5c0,9.8-5.3,11.6-8.9,11.6s-8.8-2.9-8.8-11.6,6.5-10.5,10.3-10.5h7.4v10.5Zm130.5,10.7h-5.3c-3.8,0-7.1-2.1-7.1-7.2,0-5.6,3.9-7.3,6.2-7.3s6.2.9,6.2,7.3v7.2h0Z"/><rect class="cls-2" x="649.1" y="164.8" width="6.7" height="48.8"/><path class="cls-2" d="m495.2,176.1v3.2h-13v-3.2h3.8c-1-.7-1.6-1.9-1.8-3.1-.2-1.2.1-2.5.7-3.5s1.5-1.9,2.6-2.3c1.1-.5,2.3-.6,3.5-.5,1,.1,2.3.6,3.3,1.3l-1.5,2.8c-1.2-.6-2.7-.8-3.7-.3-.7.3-1.2.9-1.4,1.6-.2.7-.2,1.5.1,2.1.6,1.2,2,1.8,3.3,2,1.4,0,2.7-.1,4.1-.1Z"/><rect class="cls-2" x="385.6" y="237.4" width="6.7" height="48.8"/><polygon class="cls-2" points="366.7 237.4 366.7 280.6 352.9 280.6 352.9 247.1 346.2 247.1 346.2 280.6 333.9 280.6 333.9 286.2 343.6 286.2 343.6 286.2 350.4 286.2 350.4 286.2 373.4 286.2 373.4 237.4 366.7 237.4"/><path class="cls-2" d="m170.9,253.7c-9.2,0-15.9,6.8-15.9,16.5v10.6c-7.8,1.1-13.3,7.4-13.3,16.1v6h6.7v-5c0-9.9,5.7-11.7,9.1-11.7h13.3c9.2,0,16.3-6.3,16.3-16s-6.8-16.5-16.2-16.5Zm-1.8,26.9h-7.4v-10.4c0-9.9,5.9-11,9.1-11s9.1,1.9,9.1,11c.1,9.8-6.8,10.4-10.8,10.4Z"/><path class="cls-2" d="m312.3,279.2c-2.4-1-4.2-2.4-5.6-4.2-1.3-1.8-2-3.9-2-6.2,0-1.8.4-3.5,1.3-4.9.8-1.4,2.1-2.6,3.7-3.4s3.5-1.2,5.7-1.2c1.4,0,3.3.2,5.7.6v-5.3c-2.4-.6-4.7-.9-6.9-.9-3.3,0-6.2.6-8.7,1.9-2.5,1.3-4.5,3-5.9,5.3-1.4,2.2-2.1,4.8-2.1,7.7,0,2.4.5,4.6,1.5,6.5s2.5,3.6,4.4,4.9l1,.7h-62.9c-2.5,0-4.4-.6-5.6-1.8-1.2-1.2-1.8-3.1-1.8-5.8v-35.6h-6.7v35.6c0,5.2-2.4,7.6-7.4,7.6h-5.7v-33.5h-6.7v33.5h-13.6v5.6h26.3c6.6,0,9.4-2.7,10.5-4.2.1-.1.5-.7.5-.8,1.9,3.3,5.4,5,10.2,5h82.7v-5.6h-3.8c-3.1-.1-5.8-.6-8.1-1.5Z"/><path class="cls-2" d="m349.3,299.9c-1.2-.1-2.6-.7-3.1-1.8-.3-.6-.4-1.3-.1-2,.2-.6.7-1.2,1.3-1.5,1-.5,2.4-.2,3.4.3l1.4-2.6c-1-.6-2.2-1-3.1-1.2-1.1-.1-2.2,0-3.3.4-1,.5-1.9,1.2-2.4,2.2-.6,1-.8,2.2-.6,3.3.2,1.1.8,2.2,1.7,2.9h-3.6v3h12.2v-3c-1.3,0-2.5.1-3.8,0Z"/><circle class="cls-2" cx="520.7" cy="223" r="4.1"/><circle class="cls-2" cx="531" cy="223" r="4.1"/><circle class="cls-2" cx="444.8" cy="173" r="4.1"/><circle class="cls-2" cx="455.2" cy="173" r="4.1"/><path class="cls-2" d="m384.4,164.8v43.2h-28.2c-2.3,0-5.7.2-6.9-1.7,2.3-2.2,4.6-4.7,5.9-6.2,9.2-11.1,3.2-19.3-10.7-19-5.2.1-11.1,1.1-16.5,3.4v5.7c2.9.7,8.3,9.5,12.4,15.9-.9.9-2.4,1.9-6.6,1.9h-53.4v-43.2h-6.7v48.8h61.1c5.4,0,8.3-2,9.6-3.3,1.8,1.9,4.2,3.3,7.7,3.3h39v-48.8h-6.7Zm-39.6,37.7c-3.6-5.3-7.7-12.7-9.7-13.9,4.3-1.8,10.8-2.7,14.7-.7,3.9,2.2.9,7.4-1.1,10.1-.9,1.3-2.1,2.7-3.9,4.5Z"/><rect class="cls-2" x="402.5" y="164.8" width="6.7" height="48.8"/><path class="cls-2" d="m244.7,181c-9.2,0-15.9,6.8-15.9,16.5v10.5h-47.8c-4.9-.1-7.2-2.5-7.2-7.6v-19.4h-15.5c-9.2,0-16.3,6.4-16.3,16.1s5.5,17.8,16.3,17.8c4.9,0,9.1-2.4,11.8-6.1.1.2.3.4.3.5,1.1,1.6,3.9,4.2,10.5,4.2h63.7c9.2,0,16.3-6.3,16.3-16,.1-9.6-6.7-16.5-16.2-16.5Zm-77.6,14.5h0v2.2c-.2,9.4-5.3,11.2-8.8,11.2s-8.8-2.9-8.8-11.6,6.5-10.5,10.3-10.5h7.4v8.7h-.1Zm75.9,12.5h-7.4v-10.4c0-9.9,5.9-11,9.1-11s9.1,1.9,9.1,11c0,9.8-6.8,10.4-10.8,10.4Z"/><path class="cls-2" d="m157.1,177.1c2.2,0,4.1-1.8,4.1-4.1s-1.8-4.1-4.1-4.1-4.1,1.8-4.1,4.1,1.8,4.1,4.1,4.1Z"/><path class="cls-2" d="m167.3,177.1c2.2,0,4.1-1.8,4.1-4.1s-1.8-4.1-4.1-4.1-4.1,1.8-4.1,4.1,1.9,4.1,4.1,4.1Z"/><path class="cls-2" d="m649.1,237.4v43.2h-20.3c-5.1,0-7.4-2.4-7.4-7.6v-13.5h-6.7v13.6c0,2.6-.6,4.5-1.8,5.7s-3,1.8-5.5,1.8h-7.1c-4.9-.1-7.2-2.5-7.2-7.6v-13.6h-6.7v13.6c0,2.7-.6,4.5-1.8,5.7s-3,1.8-5.6,1.8h-11.9c-4.9-.1-7.2-2.5-7.2-7.6v-2.9h0c0-4.3-1.4-8.8-4.3-12-2.7-2.9-6.7-4.4-12-4.4-5.9,0-13.1,3.6-19.7,10.8v-22.4h-6.7v38.6h-27.3c-2.5,0-4.4-.6-5.6-1.8-1.2-1.2-1.8-3.1-1.8-5.8v-13.3h-6.7v13.3c0,5.2-2.4,7.6-7.4,7.6h-10.1c-4.9-.1-7.2-2.5-7.2-7.6v-2.8c0-9.7-6.8-16.5-16.3-16.5s-15.9,6.8-15.9,16.5v10.6c-7.7,1.2-13,7.4-13,16.1v6h6.7v-5c0-9.9,5.7-11.7,9.1-11.7h13c5,0,9.4-1.9,12.3-5.1v.1c.1.1.4.6.5.7,1.1,1.6,3.9,4.2,10.5,4.2h10.5c6.6,0,9.4-2.7,10.5-4.2.1-.1.5-.7.5-.8,1.9,3.3,5.4,5,10.2,5h54.7c2.7,0,5.3-.7,7.6-2,1.5-.9,2.7-1.9,3.8-3.1l.1.2c.1.1.4.6.5.7,1.1,1.6,3.9,4.2,10.5,4.2h12c4.8,0,8.3-1.7,10.2-5,.1.1.4.6.5.7,1.1,1.6,3.9,4.2,10.5,4.2h7.2c4.7,0,8.2-1.9,9.9-5.3.1.1.6.9.6,1,1.1,1.6,3.9,4.2,10.5,4.2h27.3v-48.8h-6.5v.3Zm-216.1,43.2h-7.4v-10.4c0-9.9,5.9-11,9.1-11s9.1,1.9,9.1,11c.1,9.8-6.8,10.4-10.8,10.4Zm110.6,0h-19.7v-8.6c6.2-7.3,12.6-11.9,18.5-11.9,3.3,0,5.8.9,7.7,2.7,1.9,1.8,2.8,4.4,2.8,7.9-.1,4.7-3.6,9.9-9.3,9.9Z"/><circle class="cls-2" cx="472.5" cy="295.7" r="4.1"/><circle class="cls-2" cx="482.9" cy="295.7" r="4.1"/><circle class="cls-2" cx="611.9" cy="249.5" r="4.1"/><circle class="cls-2" cx="622.3" cy="249.5" r="4.1"/><circle class="cls-2" cx="588.4" cy="249.5" r="4.1"/><circle class="cls-2" cx="541" cy="246" r="4.1"/></svg>