<?xml version="1.0" encoding="UTF-8"?>
<svg id="Layer_1" data-name="Layer 1" xmlns="http://www.w3.org/2000/svg" xmlns:xlink="http://www.w3.org/1999/xlink" viewBox="0 0 300 300">
  <defs>
    <style>
      .cls-1 {
        stroke: url(#linear-gradient);
      }

      .cls-1, .cls-2, .cls-3 {
        fill: none;
        stroke-linecap: round;
        stroke-linejoin: round;
        stroke-width: 7px;
      }

      .cls-2 {
        stroke: url(#linear-gradient-2);
      }

      .cls-3 {
        stroke: #00bbbe;
      }
    </style>
    <linearGradient id="linear-gradient" x1="72.58" y1="206.56" x2="182.37" y2="96.76" gradientUnits="userSpaceOnUse">
      <stop offset=".07" stop-color="#00bbbe"/>
      <stop offset=".08" stop-color="#01b8bd"/>
      <stop offset=".29" stop-color="#4274a8"/>
      <stop offset=".44" stop-color="#6a499b"/>
      <stop offset=".52" stop-color="#7a3996"/>
      <stop offset=".59" stop-color="#8a3f90"/>
      <stop offset=".75" stop-color="#b45181"/>
      <stop offset=".94" stop-color="#f26b6b"/>
    </linearGradient>
    <linearGradient id="linear-gradient-2" x1="187.78" y1="120.63" x2="249.81" y2="58.6" xlink:href="#linear-gradient"/>
  </defs>
  <path class="cls-3" d="m234.95,62.33l17.48-12.9c3.71-2.74,8.94-1.95,11.68,1.76h0c2.74,3.71,1.95,8.94-1.76,11.68l-17.48,12.9"/>
  <line class="cls-3" x1="148.33" y1="208.97" x2="136.92" y2="193.51"/>
  <line class="cls-3" x1="163.13" y1="174.16" x2="174.54" y2="189.62"/>
  <path class="cls-3" d="m143.65,212.85h93.45v49.29h-93.45c-.83,0-1.5-.67-1.5-1.5v-46.29c0-.83.67-1.5,1.5-1.5Z" transform="translate(111.13 531.09) rotate(-126.43)"/>
  <path class="cls-3" d="m78.43,206.39l-12.43,9.18c-6.5,4.79-15.65,3.41-20.44-3.08h0c-4.79-6.5-3.41-15.65,3.08-20.44l12.43-9.18"/>
  <line class="cls-3" x1="169.8" y1="252.13" x2="209.45" y2="222.86"/>
  <line class="cls-3" x1="79.21" y1="115.32" x2="90.62" y2="130.78"/>
  <line class="cls-3" x1="116.84" y1="111.43" x2="105.43" y2="95.97"/>
  <path class="cls-3" d="m18.15,42.8h93.45v49.29H18.15c-.83,0-1.5-.67-1.5-1.5v-46.29c0-.83.67-1.5,1.5-1.5Z" transform="translate(80.32 -24.2) rotate(53.57)"/>
  <line class="cls-3" x1="44.3" y1="82.08" x2="83.96" y2="52.81"/>
  <path class="cls-1" d="m174.46,94.15c-6.86-9.29-19.95-11.27-29.24-4.41l-81.8,61.11c-9.29,6.86-11.27,19.95-4.41,29.24l21.46,29.08c6.86,9.29,19.95,11.27,29.24,4.41l81.8-61.11c9.29-6.86,11.27-19.95,4.41-29.24"/>
  <path class="cls-2" d="m181.92,107.12l4.51,6.12c22.71,30.78,66.08,37.31,96.85,14.6h0S196.53,10.27,196.53,10.27h0c-30.78,22.71-37.31,66.08-14.6,96.85Z"/>
</svg>