<?xml version="1.0" encoding="UTF-8"?>
<svg id="Layer_1" data-name="Layer 1" xmlns="http://www.w3.org/2000/svg" viewBox="0 0 288 122.4">
  <defs>
    <style>
      .cls-1 {
        fill: #fff;
        stroke-width: 0px;
      }
    </style>
  </defs>
  <path class="cls-1" d="m181.25,69.15v.1c0,8.4-6.1,14.6-16.2,14.6-8.1,0-13.7-3.1-17.4-7.8l6.8-6.5c3.1,3.4,6.2,5.4,10.8,5.4,3.8,0,6.4-2.2,6.4-5.5-.1-.1.8-5.8-8.7-5.8h-4.1l-1.5-6.2,14.3-14.3-5.8,3.8h-15.6v-8.5h30.3v7.4l-11.3,10.8c6,1,12,4.1,12,12.5m-28.2-51.1c0-4.1,2.9-7.3,7-7.3h4.6l-1.2.6c.1,11.1-.2,12.5.4,14.1h-3.8c-3.9-.1-7-3.3-7-7.4h0Zm7.2,9.2h4.1v-1.4c.3.4.6.9,1.3,1.2,1.3.6.3.2,37.6.3V8.85h-2v16.5s-34,.1-34.7-.1c-.5-.3-.8-.9-.9-1.4-.1-.7-.1-5.7-.1-15h-5.3c-5.5,0-9,4.3-9,9.3h0c-.2,4.8,3.5,9.1,9,9.1m57.2-20.4h-4.3c.1-1.4-.5-4.1,2.4-4.1h1.4v1.4c-1.3.1-2.2-.3-2.2.8v.4h2.7s0,1.5,0,1.5Zm5.1,20.6c-.5,0-1.1-.1-1.6-.2l.4-1.8c.9.3,2,.3,2.5-.5.5-1,.3-1.3.4-16h2c-.1,13.8.1,14.2-.2,15.7-.4,1.9-1.5,2.8-3.5,2.8m-57.1-20.6h-2v-1.9h2v1.9Zm43.3,6.8c.9-1.8,2.8-2.8,4.8-2.8h3.1l-1.1.5v8.8c-1.5-.1-2.6.1-4.1-.3-1.9-.6-3.3-2.2-3.3-4.3.1-.7.3-1.3.6-1.9m0,7c2.6,1.8,6,1.5,6.2,1.6l.6-1.4c-.1,1.3.3,3.2-.9,4.1-1.1.8-2.9.8-4.1.4-.4-.1-1.1-.3-1.6-.6l-.6,1.8c1.3.4,2.4.9,3.8.9,1.9,0,3.3-.4,4.2-1.4.9-.9,1.3-2.2,1.3-3.7v-13.5c-2.4.1-4.3-.3-6.5.4-5.9,2.2-6,8.8-2.4,11.4m-47.3-13.8h-2v-1.9h2v1.9Zm-20.2,1.9h2v18.4h-1.6l-13.2-16.5,1.2,2.7v13.9h-2V8.75h1.9l12.5,15.8-.9-2.3c.1.1.1-13.5.1-13.5Zm-76.6,18.5l-8-18.5h2.4c.1.3,6.4,15.6,7.1,17.1l-.2-2,6.2-15.1h2.2l-7.9,18.5h-1.8Zm35.1-18.5h2v18.4h-2V8.75Zm22.4,9.4c0,4.2-3,7.5-7.2,7.5s-7.3-3.4-7.3-7.5v-.1c0-4.2,3-7.5,7.2-7.5s7.3,3.3,7.3,7.6h0Zm-7.3-9.6c-5.6,0-9.5,4.5-9.5,9.5v.1c0,5.1,3.8,9.5,9.4,9.5s9.5-4.5,9.5-9.5v-.1c0-5.2-3.8-9.5-9.4-9.5m-18.5,13.7h0c0,3.2-2.6,5.3-6.2,5.3-2.9,0-5.3-1-7.5-2.9l1.3-1.5c1.9,1.7,3.8,2.6,6.4,2.6s4.1-1.3,4.1-3.1v-.1c0-5.2-11-1.7-11-8.8v-.1c0-2.9,2.6-5.1,6-5.1,2.7,0,4.6.8,6.5,2.3l-1.3,1.6c-4.2-3.3-9.3-2-9.3,1v.1c0,1.7,1,2.7,5.1,3.6,4.1.8,5.9,2.3,5.9,5.1m-17,4.9h-2V8.75h2v18.4Zm121.1,2.1h2v1.9h-2v-1.9Zm-4,0h2v1.9h-2v-1.9Zm-123.3,45.4h17.1v8.5h-33.1v-7.8c16.5-14,22.6-16.8,22.6-22.9,0-3.8-2.5-5.8-6-5.8s-5.8,1.9-9.2,6l-6.9-5.6c4.4-6,8.7-9.3,16.7-9.3,9.3,0,15.4,5.5,15.4,13.8v.1c0,10.4-8,13.9-21.5,24.9l-1.9,1.4s6.8-3.3,6.8-3.3Zm147.9-13.8c0,7.6-5.5,13.9-13.5,13.9s-13.6-6.4-13.6-14v-.1c0-7.6,5.5-13.9,13.5-13.9s13.6,6.4,13.6,14v.1Zm-13.5-23.2c-13.9,0-23.8,10.4-23.8,23.2v.1c0,12.7,9.9,23,23.8,23s23.8-10.4,23.8-23.2v-.1c0-12.7-9.9-23-23.8-23"/>
  <path class="cls-1" d="m117.05,34.75l2.3,2.2-2.2,2.2-2.3-2.2"/>
  <path class="cls-1" d="m122.15,36.95l2.3,2.2,2.2-2.3-2.3-2.2"/>
  <path class="cls-1" d="m119.05,39.85l1.8,1.7,1.7-1.8-1.8-1.7"/>
  <path class="cls-1" d="m125.55,40.85l1.8,1.7,1.7-1.8-1.8-1.7"/>
  <path class="cls-1" d="m116.15,42.55l1.8,1.7,1.7-1.8-1.8-1.7"/>
  <path class="cls-1" d="m122.05,42.75l1.8,1.7,1.7-1.8-1.8-1.7"/>
  <path class="cls-1" d="m119.75,44.75l1.3,1.2,1.2-1.3-1.3-1.2"/>
  <path class="cls-1" d="m124.45,45.65l1.3,1.2,1.2-1.3-1.3-1.2"/>
  <path class="cls-1" d="m134.65,36.25l3.9-.6.6,3.9-3.9.6-.6-3.9Z"/>
  <path class="cls-1" d="m129.65,37.85l3.1-.5.5,3.1-3.1.5-.5-3.1Z"/>
  <path class="cls-1" d="m135.65,42.15l3.1-.5.5,3.1-3.1.5-.5-3.1Z"/>
  <path class="cls-1" d="m131.35,42.55l2.4-.4.4,2.4-2.4.5-.4-2.5Z"/>
  <path class="cls-1" d="m136.05,47.15l2.4-.4.4,2.4-2.4.4-.4-2.4Z"/>
  <path class="cls-1" d="m127.65,43.55l2.4-.4.4,2.4-2.4.4-.4-2.4Z"/>
  <path class="cls-1" d="m132.05,46.75l2.4-.4.4,2.4-2.3.4-.5-2.4Z"/>
  <path class="cls-1" d="m129.05,46.95l1.7-.3.3,1.7-1.7.3-.3-1.7Z"/>
  <path class="cls-1" d="m132.35,50.55l1.7-.3.3,1.7-1.7.3-.3-1.7Z"/>
  <path class="cls-1" d="m146.05,48.95l-1.6,3.6,3.6,1.6,1.6-3.6"/>
  <path class="cls-1" d="m141.15,47.15l-1.4,2.8,2.8,1.4,1.4-2.8"/>
  <path class="cls-1" d="m143.45,54.15l-1.4,2.8,2.8,1.4,1.4-2.8"/>
  <path class="cls-1" d="m139.75,52.05l-1.1,2.1,2.2,1.1,1.1-2.2"/>
  <path class="cls-1" d="m140.85,58.55l-1.1,2.2,2.2,1.1,1.1-2.2"/>
  <path class="cls-1" d="m136.15,50.75l-1.1,2.2,2.2,1.1,1.1-2.2"/>
  <path class="cls-1" d="m137.95,55.85l-1.1,2.2,2.2,1.1,1.1-2.2"/>
  <path class="cls-1" d="m135.25,54.35l-.8,1.6,1.6.8.8-1.6"/>
  <path class="cls-1" d="m135.15,60.55l.8-1.6,1.6.8-.8,1.6-1.6-.8Z"/>
  <path class="cls-1" d="m148.05,65.75l-3.4,1.8,1.8,3.4,3.4-1.8"/>
  <path class="cls-1" d="m144.95,61.55l-2.8,1.5,1.5,2.8,2.8-1.5"/>
  <path class="cls-1" d="m142.75,68.55l-2.8,1.5,1.5,2.8,2.8-1.5"/>
  <path class="cls-1" d="m140.95,64.65l-2.2,1.2,1.2,2.2,2.2-1.2"/>
  <path class="cls-1" d="m138.05,70.45l-2.2,1.2,1.2,2.2,2.2-1.2"/>
  <path class="cls-1" d="m138.85,61.55l-2.2,1.2,1.2,2.2,2.2-1.2"/>
  <path class="cls-1" d="m137.25,66.65l-2.2,1.2,1.2,2.2,2.2-1.2"/>
  <path class="cls-1" d="m135.95,63.75l-1.5.9.9,1.5,1.5-.9"/>
  <path class="cls-1" d="m133.75,67.95l-1.5.9.9,1.5,1.5-.9"/>
  <path class="cls-1" d="m135.35,84.05l.4-3.9,3.9.4-.4,3.9-3.9-.4Z"/>
  <path class="cls-1" d="m136.05,78.15l.4-3.1,3.1.4-.4,3-3.1-.3Z"/>
  <path class="cls-1" d="m130.15,82.45l.4-3.1,3.1.4-.4,3.1-3.1-.4Z"/>
  <path class="cls-1" d="m131.85,77.65l.3-2.4,2.4.3-.3,2.4-2.4-.3Z"/>
  <path class="cls-1" d="m126.05,80.75l.3-2.4,2.4.3-.3,2.5-2.4-.4Z"/>
  <path class="cls-1" d="m131.95,73.95l.3-2.4,2.4.3-.3,2.4-2.4-.3Z"/>
  <path class="cls-1" d="m127.65,77.15l.3-2.4,2.4.3-.3,2.3-2.4-.2Z"/>
  <path class="cls-1" d="m129.05,73.45l.2-1.7,1.7.2-.2,1.7-1.7-.2Z"/>
  <path class="cls-1" d="m124.85,75.55l.2-1.7,1.7.2-.2,1.7-1.7-.2Z"/>
  <path class="cls-1" d="m124.25,87.65l-2.9-2.7-2.7,2.9,2.9,2.7"/>
  <path class="cls-1" d="m123.65,32.95l-2.9-2.7-2.7,2.9,2.9,2.7"/>
  <path class="cls-1" d="m127.25,83.45l-2.3-2.2-2.2,2.3,2.3,2.2"/>
  <path class="cls-1" d="m119.95,83.45l-2.3-2.2-2.2,2.3,2.3,2.2"/>
  <path class="cls-1" d="m123.05,80.55l-1.8-1.6-1.6,1.8,1.8,1.6"/>
  <path class="cls-1" d="m116.55,79.85l-1.8-1.6-1.6,1.8,1.8,1.6"/>
  <path class="cls-1" d="m125.35,77.65l-1.8-1.6-1.6,1.8,1.8,1.6"/>
  <path class="cls-1" d="m119.95,77.75l-1.7-1.6-1.6,1.8,1.8,1.6"/>
  <path class="cls-1" d="m122.15,75.75l-1.3-1.2-1.2,1.3,1.3,1.2"/>
  <path class="cls-1" d="m117.55,74.85l-1.3-1.2-1.2,1.3,1.3,1.2"/>
  <path class="cls-1" d="m102.95,81.35l3.9-.8.8,3.9-3.9.8-.8-3.9Z"/>
  <path class="cls-1" d="m108.85,80.35l3.1-.6.6,3.1-3.1.6-.6-3.1Z"/>
  <path class="cls-1" d="m102.75,76.15l3.1-.6.6,3.1-3.1.6-.6-3.1Z"/>
  <path class="cls-1" d="m107.85,76.15l2.4-.4.4,2.4-2.4.4-.4-2.4Z"/>
  <path class="cls-1" d="m111.45,75.05l2.4-.4.4,2.4-2.4.4-.4-2.4Z"/>
  <path class="cls-1" d="m107.05,71.95l2.4-.4.4,2.4-2.4.5-.4-2.5Z"/>
  <path class="cls-1" d="m110.85,72.25l1.7-.3.3,1.6-1.7.3-.3-1.6Z"/>
  <path class="cls-1" d="m107.55,68.85l1.6-.3.3,1.6-1.6.3-.3-1.6Z"/>
  <path class="cls-1" d="m95.85,72.05l1.6-3.6-3.6-1.6-1.6,3.6"/>
  <path class="cls-1" d="m100.85,73.55l1.3-2.8-2.9-1.3-1.3,2.8"/>
  <path class="cls-1" d="m98.35,66.65l1.3-2.8-2.9-1.3-1.3,2.8"/>
  <path class="cls-1" d="m99.95,67.75l1.1-2.2,2.2,1.1-1.2,2.2-2.1-1.1Z"/>
  <path class="cls-1" d="m105.15,74.35l1.1-2.2-2.1-1-1.1,2.1"/>
  <path class="cls-1" d="m98.75,61.35l1.1-2.2,2.2,1.1-1.1,2.2-2.2-1.1Z"/>
  <path class="cls-1" d="m103.45,68.95l1.1-2.2,2.2,1.1-1.1,2.2-2.2-1.1Z"/>
  <path class="cls-1" d="m101.75,63.85l1.1-2.2,2.2,1.1-1.1,2.2-2.2-1.1Z"/>
  <path class="cls-1" d="m106.55,66.45l.6-1.6-1.6-.6-.6,1.6"/>
  <path class="cls-1" d="m105.95,61.65l.6-1.6-1.6-.6-.6,1.6"/>
  <path class="cls-1" d="m93.65,55.15l3.3-1.9-1.9-3.4-3.3,1.8"/>
  <path class="cls-1" d="m96.75,59.35l2.8-1.6-1.6-2.8-2.8,1.6"/>
  <path class="cls-1" d="m98.85,52.35l2.8-1.6-1.6-2.8-2.8,1.6"/>
  <path class="cls-1" d="m100.75,56.25l2.2-1.3-1.3-2.2-2.2,1.3"/>
  <path class="cls-1" d="m103.45,50.35l2.2-1.3-1.3-2.2-2.2,1.3"/>
  <path class="cls-1" d="m102.95,59.25l2.2-1.3-1.3-2.2-2.2,1.4"/>
  <path class="cls-1" d="m104.45,54.05l2.2-1.3-1.3-2.2-2.2,1.3"/>
  <path class="cls-1" d="m105.75,56.85l1.5-.9-.9-1.4-1.6.9"/>
  <path class="cls-1" d="m107.85,52.65l1.5-.9-.8-1.4-1.5.9"/>
  <path class="cls-1" d="m101.75,40.35l.4-3.9,3.9.4-.4,3.9-3.9-.4Z"/>
  <path class="cls-1" d="m101.85,45.45l.3-3.1,3.1.3-.3,3.1-3.1-.3Z"/>
  <path class="cls-1" d="m107.65,41.05l.3-3.1,3.1.3-.3,3.1-3.1-.3Z"/>
  <path class="cls-1" d="m106.95,45.25l.3-2.4,2.4.3-.3,2.4-2.4-.3Z"/>
  <path class="cls-1" d="m112.65,42.05l.3-2.4,2.4.3-.3,2.4-2.4-.3Z"/>
  <path class="cls-1" d="m106.75,48.95l.3-2.4,2.4.3-.3,2.4-2.4-.3Z"/>
  <path class="cls-1" d="m111.15,45.55l.3-2.4,2.4.3-.3,2.4-2.4-.3Z"/>
  <path class="cls-1" d="m110.55,48.75l.2-1.7,1.7.2-.2,1.7-1.7-.2Z"/>
  <path class="cls-1" d="m114.75,46.55l.2-1.7,1.7.2-.2,1.7s-1.7-.2-1.7-.2Z"/>
  <path class="cls-1" d="m133.25,62.85c-2-1.2-4.8-1.5-7.9-.4-1.3.4-2.6,1.3-3.7,2.2-.6-4.2-.3-8.1-.2-9.9h0c1.4.9,1.1,3.6.8,4.3h0c1.8-2.2,1-4.5.5-5.2-.1-.1.3.2.6.6,1.3,1.6.6,3.4.9,3.4h0c.9-1.6.5-3.8-1.2-5.4-.1-.1.2,0,.3.1,1.5.5,2.3,2,2.3,3.4,0,.3,1.1-2.6-1.4-4.1-.4-.3-.9-.4-1.3-.4-.2,0,1.3-.3,2.4.4.6.4.9,1,.9.9-.2-1.9-2.5-2.7-3.9-2.2-.1.1.5-1,1.8-.9.3,0,.4.1.6.1h0c-1.1-1.2-2.7-1.2-3.6.1h0c-.3-.6-.6-1.4-.8-2,0-.2-.1.9-.8,2h0c-.9-1.3-2.6-1.3-3.6-.1h0c.6-.3,1.9-.2,2.6.6h0c-1.4-.6-3.7.2-3.9,2.2h0c.1-.1.2-.3.4-.6,1.2-1.1,2.9-.6,2.7-.6-.6.1-2.2.6-2.7,2.2-.4,1.2,0,2.7,0,2.4,0-1.3.8-3,2.6-3.4h0c-2.8,2.5-1.1,5.6-1.2,5.3-.1-1-.1-2.8,1.5-4.1h0c-.3.6-1.3,3,.5,5.2h0c-.3-.8-.6-3.3.8-4.3h0c.1,1.9.4,5.8-.2,9.9-2.4-1.8-4.6-2.9-7.5-2.8-1.5.1-2.9.4-3.9,1.1-.1,0,0,.1,0,.1,4.3-1.4,8.1.3,11.5,3.1-1.7,1.5-3.3,3.1-4.3,3.6-.2-.3-.6-.4-1.1-.3-.8.1-1,1.1-.5,1.6,1.5,1.5,3.9-1.5,6.8-4,2.8,2.4,5.3,5.5,6.8,4,.1-.1.3-.5.2-.9-.2-.8-1.3-1.1-1.7-.3-.9-.4-2.5-2-4.3-3.6,4.2-2.9,7.8-4.6,12.2-3.3,0,.1,0,0,0,0"/>
  <path class="cls-1" d="m119.55,104.05h1.1v-10h-1.1v10Zm-29.6-1.1l-1.7-4.3c1.8-1.5,4.1-1.3,5.5,0l-1.7,4.3h-2.1Zm-6.2,0c-.9,0-1.5.1-2.4-.2-3-1-2.2-5.2,1.2-5.2h1.2s0,5.4,0,5.4Zm31.3,0c-1.8-.1-3.4.3-4.3-1.1.1-.6.1-1.4.1-4.6h-1.1v3.8c0,2.8-3.3,2.6-4.1,1-.3-.6-.1-1-.2-4.7h-1.1v3.8c0,1.3-.9,1.9-1.9,1.9h-2.2v-5.9h-1.1v5.8h-5.9l2-4.6c-1.1-1-2.7-1.8-4.1-1.8-1.5,0-3,.9-4.1,1.8l2,4.6h-3.9v-6.5h-1.8c-2.6,0-4.6,1.4-4.6,3.9,0,4.3,5.3,3.8,5.3,3.8,0,.1.1,1.1-.4,1.6s-1.6.4-2.4.3c-.3-.1-.6-.2-1-.3l-.3,1.1c.6.3,1.4.4,2.2.4,2.2,0,3.1-1.1,3.1-2.9v-.2c18.3-.1,17.8.3,19-.3.4-.2.8-.5,1.1-1,.3.4.6.9,1.1,1.1,1,.5,2.5.4,3.3,0,.4-.2.9-.6,1.1-1.1.4.8,1.1,1.3,2.5,1.3h3.2v-10h-1.1v8.8c.1,0-.4,0-.4,0Zm100.8-.5c-1,2.4-4.4,2.4-5.5-.1-.3-.6-.3-1.6,0-2.3,1.2-2.9,5.6-2.2,5.6,1.2.2.4.1.9-.1,1.2m-10.9,0c-.9,2-3.4,2.3-4.8.9-1.1-1.2-1.1-3,0-4.1.9-.9,2.2-1.1,3.2-.6,1.8.6,2.3,2.4,1.6,3.8m-27.3.5c-.9,0-1.5.1-2.3-.2-2.9-1-2.3-5.2,1.2-5.2h1.1v5.4h0Zm43.1,0h-3.9c1.3-2.6-.6-5.7-3.8-5.7-2.8,0-4.8,2.9-3.7,5.7h-3.6c1.2-2.6-.6-5.7-3.8-5.7-2.8,0-4.8,2.9-3.7,5.7h-3.7v-8.9h-1.1v8.9h-3.3c-.1-1.2.3-2.8-.6-3.9-.6-.8-1.4-1-2.4-1h-5l2.2-4.1h-1.3l-2.2,4c.1.4.2.9.4,1.1,5.6.1,6-.1,6.7.1.5.2.9.6,1,1.1s.1,1.1.1,2.6h-10.4v-6.5h-1.6c-2.9,0-4.6,1.8-4.6,3.8,0,2.6,2,3.8,4.6,3.8h22.3c1.6,1.8,4.4,1.6,5.9,0h5c1.6,1.8,4.4,1.6,6,0h5.7v-10h-1.1l-.1,9h0Zm4.4,1.1h1.1v-10h-1.1v10Zm-82.8,2.5h1.2v-1.2h-1.2v1.2Zm11-3.6l-1.8-4.3c1.8-1.5,4.1-1.3,5.5,0l-1.7,4.3h-2Zm8,0h-4.7l2-4.6c-1.1-1-2.7-1.8-4.1-1.8-1.5,0-3,.9-4.1,1.8l2,4.6h-4.2v-6.5h-1.1v7.9c0,1-.1,1.7-1.1,1.7-.2,0-.3,0-.5-.1l-.3,1.1c1,.3,2,.1,2.6-.6.4-.8.4-1.7.4-2.4h14.4v-10h-1.1l-.2,8.9h0Zm-85.4-5.6c-1.3-1.4-2.7-.9-3.1-1v1.1c.9,0,1.2-.1,1.7.2.4.2.9.6,1,1.1.1.6.1,1.1.1,4.1h-5.3v1.1h6.4c-.1-4.3.1-4.6-.2-5.6-.1-.3-.3-.6-.6-1m62.3,9.2h1.2v-1.2h-1.2v1.2Zm-6.8-3.6c-.9,0-1.5.1-2.3-.2-2.9-1-2.3-5.2,1.2-5.2h1.1s0,5.4,0,5.4Zm12.1-6.5h-1.1v6.5h-4.3v-6.5h-1.1v6.5h-4.5v-6.5c-1.4.1-3.6-.3-5.2,1.1-2.3,1.9-1.7,6.6,3.3,6.6h12.7c.2-.1.2-7.7.2-7.7Zm-7.3,10.1h1.2v-1.2h-1.2v1.2Zm-75-12.5h-1.2v1.2h1.2v-1.2Zm115.5,0h-1.2v1.2h1.2v-1.2Zm-44.2,0h-1.2v1.2h1.2v-1.2Zm-64.7,12.5h1.2v-1.2h-1.2v1.2Zm62.7-12.5h-1.2v1.2h1.2v-1.2Zm-67.4,0h-1.2v1.2h1.2v-1.2Zm2.6,12.5h1.2v-1.2h-1.2v1.2Zm-3.8-3.6c-.9,0-1.5.1-2.3-.2-2.9-1-2.3-5.2,1.2-5.2h1.1v5.4Zm6.7-6.5h-1.1v6.5h-4.5v-6.5c-1.4.1-2.4-.1-3.7.3-1.1.3-1.9,1.1-2.4,2-.4,1.1-.4,2.4.1,3.2.9,1.5,2.6,2,4.3,2h7.3c0,.1,0-7.5,0-7.5Zm97,7.6h1.1v-10h-1.1v10Zm13.1-10h-1.2v1.2h1.2v-1.2Z"/>
  <path class="cls-1" d="m57.75,111.45h1.4v4l3.8-4h1.7l-3.3,3.4,3.6,4.5h-1.8l-2.8-3.6-1.3,1.4v2.4h-1.3"/>
  <path class="cls-1" d="m66.15,111.45h1.4v8h-1.4v-8Z"/>
  <path class="cls-1" d="m69.85,111.45h1.3l4.3,5.5v-5.5h1.4v8h-1.2l-4.4-5.7v5.7h-1.4"/>
  <path class="cls-1" d="m78.55,115.45h0c0-2.3,1.7-4.2,4.1-4.2,1.4,0,2.3.4,3.1,1.1l-.9,1.1c-2.2-1.8-4.8-.5-4.8,2h0c0,1.6,1.1,2.9,2.8,2.9.8,0,1.4-.2,1.9-.6v-1.6h-2.2v-1.3h3.4v3.3c-2.7,2.7-7.4,1.4-7.4-2.7"/>
  <path class="cls-1" d="m91.05,118.15c3.8,0,3.8-5.5,0-5.5h-1.6v5.5h1.6Zm-3.1-6.7h3c5.7,0,5.6,8,0,8h-2.9l-.1-8h0Z"/>
  <path class="cls-1" d="m103.45,115.45h0c0-1.6-1.1-2.9-2.8-2.9-1.6,0-2.7,1.3-2.7,2.8h0c0,1.6,1.1,2.8,2.8,2.8,1.6.1,2.7-1.1,2.7-2.7m-6.9,0h0c0-2.3,1.7-4.2,4.2-4.2s4.2,1.8,4.2,4.1h0c0,2.3-1.7,4.1-4.2,4.1-2.5.1-4.2-1.7-4.2-4"/>
  <path class="cls-1" d="m106.65,111.45h1.5l2.4,3.8,2.4-3.8h1.5v8h-1.4v-5.7l-2.6,3.8h-.1l-2.5-3.8v5.7h-1.4"/>
  <path class="cls-1" d="m126.75,115.45h0c0-1.6-1.1-2.9-2.8-2.9-1.6,0-2.7,1.3-2.7,2.8h0c0,1.6,1.1,2.8,2.8,2.8,1.6.1,2.7-1.1,2.7-2.7m-6.9,0h0c0-2.3,1.7-4.2,4.2-4.2s4.2,1.8,4.2,4.1h0c0,2.3-1.7,4.1-4.2,4.1-2.5.1-4.2-1.7-4.2-4"/>
  <path class="cls-1" d="m129.95,111.45h6v1.3h-4.5v2.2h4v1.3h-4.1v3.2h-1.3"/>
  <path class="cls-1" d="m140.35,118.25l.9-1.1c.8.6,1.5,1.1,2.6,1.1.9,0,1.4-.4,1.4-1.1h0c0-1.8-4.5-.5-4.5-3.7h0c0-2.5,3.4-3.1,5.6-1.3l-.8,1.1c-1.8-1.4-3.6-.9-3.6.1h0c0,1.8,4.5.6,4.5,3.6h0c.2,3-3.8,3.4-6.1,1.3"/>
  <path class="cls-1" d="m152.85,116.35l-1.4-3.2-1.4,3.2h2.8Zm-1.9-5h1.3l3.6,8.1h-1.5l-.9-1.9h-3.8l-.9,1.9h-1.4s3.6-8.1,3.6-8.1Z"/>
  <path class="cls-1" d="m156.55,116.15v-4.6h1.4v4.5c0,1.5.8,2.3,2,2.3s2-.8,2-2.2v-4.6h1.4v4.5c0,2.4-1.4,3.6-3.4,3.6s-3.4-1.3-3.4-3.5"/>
  <path class="cls-1" d="m168.45,118.15c3.8,0,3.8-5.5,0-5.5h-1.6v5.5h1.6Zm-2.9-6.7h2.9c5.7,0,5.6,8,0,8h-2.9v-8Z"/>
  <path class="cls-1" d="m174.55,111.45h1.4v8h-1.4v-8Z"/>
  <path class="cls-1" d="m186.35,116.35l-1.4-3.2-1.4,3.2h2.8Zm-1.9-5h1.3l3.6,8.1h-1.5l-.9-1.9h-3.8l-.9,1.9h-1.4l3.6-8.1Z"/>
  <path class="cls-1" d="m194.05,115.35c1.1,0,1.6-.5,1.6-1.3h0c0-.9-.6-1.3-1.6-1.3h-2v2.7c-.1-.1,2-.1,2-.1Zm-3.5-3.9h3.6c1.7,0,2.9.9,2.9,2.6,0,.1.1,1.8-1.9,2.5l2.2,3h-1.5l-2-2.8h-1.8v2.8h-1.4v-8.1h-.1Z"/>
  <path class="cls-1" d="m203.95,116.35l-1.4-3.2-1.4,3.2h2.8Zm-2-5h1.3l3.6,8.1h-1.5l-.9-1.9h-3.8l-.9,1.9h-1.4l3.6-8.1Z"/>
  <path class="cls-1" d="m211.75,118.25c1,0,1.5-.3,1.5-1.1h0c0-.6-.5-1.1-1.6-1.1h-2.2v2.2h2.3Zm-.4-3.4c.9,0,1.5-.3,1.5-1.1h0c0-.6-.4-1.1-1.4-1.1h-2v2.2h1.9Zm-3.2-3.4h3.6c1.4,0,2.6.6,2.6,2,0,.1.1,1.2-1.2,1.8,1,.3,1.6.9,1.6,1.9h0c0,1.4-1.2,2.2-2.9,2.2h-3.7v-7.9h0Z"/>
  <path class="cls-1" d="m216.55,111.45h1.4v8h-1.4v-8h0Z"/>
  <path class="cls-1" d="m224.85,116.35l-1.4-3.2-1.4,3.2h2.8Zm-2-5h1.3l3.6,8.1h-1.5l-.9-1.9h-3.8l-.9,1.9h-1.4l3.6-8.1Z"/>
</svg>